<svg width="3096" height="790" viewBox="0 0 3096 790" fill="none" xmlns="http://www.w3.org/2000/svg">
<mask id="path-1-inside-1_33_2" fill="white">
<path d="M771.877 376.877C776.298 468.817 746.958 559.203 689.381 631.018C631.803 702.834 549.959 751.125 459.257 766.8C368.555 782.476 275.251 764.455 196.91 716.131C118.569 667.806 60.5949 592.51 33.9018 504.419C7.20865 416.327 13.6377 321.517 51.9787 237.835C90.3197 154.154 157.928 87.3741 242.075 50.0676C326.223 12.761 421.106 7.50112 508.862 35.2781C596.617 63.0551 671.192 121.953 718.548 200.884L681.996 222.813C639.991 152.799 573.84 100.555 495.998 75.9163C418.157 51.2773 333.993 55.943 259.352 89.035C184.71 122.127 124.74 181.363 90.7302 255.59C56.7206 329.818 51.0178 413.918 74.6954 492.058C98.373 570.197 149.798 636.987 219.288 679.852C288.779 722.718 371.543 738.703 451.998 724.798C532.454 710.893 605.051 668.057 656.124 604.355C707.197 540.653 733.222 460.478 729.3 378.924L771.877 376.877Z"/>
</mask>
<path d="M771.877 376.877C776.298 468.817 746.958 559.203 689.381 631.018C631.803 702.834 549.959 751.125 459.257 766.8C368.555 782.476 275.251 764.455 196.91 716.131C118.569 667.806 60.5949 592.51 33.9018 504.419C7.20865 416.327 13.6377 321.517 51.9787 237.835C90.3197 154.154 157.928 87.3741 242.075 50.0676C326.223 12.761 421.106 7.50112 508.862 35.2781C596.617 63.0551 671.192 121.953 718.548 200.884L681.996 222.813C639.991 152.799 573.84 100.555 495.998 75.9163C418.157 51.2773 333.993 55.943 259.352 89.035C184.71 122.127 124.74 181.363 90.7302 255.59C56.7206 329.818 51.0178 413.918 74.6954 492.058C98.373 570.197 149.798 636.987 219.288 679.852C288.779 722.718 371.543 738.703 451.998 724.798C532.454 710.893 605.051 668.057 656.124 604.355C707.197 540.653 733.222 460.478 729.3 378.924L771.877 376.877Z" stroke="white" stroke-width="100" mask="url(#path-1-inside-1_33_2)"/>
<circle cx="735.995" cy="287.961" r="53.9017" fill="white"/>
<path d="M167.542 503.186L311.28 486.365L621.311 307.84L417.172 375.886L199.654 221.826L299.812 450.431L167.542 503.186Z" fill="white"/>
<path d="M584.23 542.179L379.327 534.533L300.577 592.64L321.22 529.181L643.101 352.567L497.069 476.426L584.23 542.179Z" fill="white"/>
<path d="M967.92 77.3467C966.628 76.2166 964.274 75.1372 964.217 73.9482C963.87 66.6694 964.043 59.3658 964.043 51.5762C966.524 51.4535 968.628 51.2589 970.732 51.2586C1058.71 51.2453 1146.68 51.241 1234.66 51.2938C1237.19 51.2953 1240.51 49.9954 1241.4 54.3877C1241.52 54.9557 1244.38 54.8933 1245.94 55.2578C1249.62 56.1193 1254.74 52.668 1256.67 58.821C1256.71 58.9313 1256.94 59.0131 1257.1 59.0472C1261.94 60.1169 1266.78 61.1695 1271.62 62.2462C1274.12 62.8026 1277.94 60.6891 1278.35 65.5439C1278.36 65.6645 1278.56 65.8247 1278.71 65.8698C1282.8 67.1453 1286.89 68.4082 1290.66 70.3772C1292.53 71.3253 1294.52 72.106 1296.24 73.2697C1297.89 74.3785 1299.16 76.0301 1300.78 77.1896C1304.07 79.554 1307.53 81.6873 1310.85 84.0324C1313.23 85.7206 1315.62 87.4452 1317.76 89.4284C1320.45 91.9296 1321.64 96.5517 1326.74 95.4142C1329.71 101.224 1337.36 102.824 1339.27 109.956C1340.03 112.805 1343.44 114.973 1345.72 117.381C1348.39 120.194 1351.14 122.924 1353.84 125.705C1355.03 126.932 1356.18 128.196 1357.84 129.966C1357.33 133.984 1359.71 137.275 1363.89 139.525C1364.03 139.6 1364.28 139.735 1364.26 139.795C1362.66 147.059 1373.57 148.125 1371.98 155.369C1375.5 157.225 1375.78 160.953 1377.08 164.104C1377.58 165.317 1378.3 166.438 1378.92 167.601C1379.8 169.248 1380.68 170.895 1381.56 172.542C1382.02 172.395 1382.48 172.249 1382.94 172.102C1382.94 174.423 1382.71 176.776 1383.03 179.053C1383.19 180.199 1384.28 181.249 1385.06 182.26C1385.52 182.853 1386.61 183.229 1386.69 183.799C1387.02 186.317 1389.45 189.746 1389.37 190.118C1387.65 197.897 1395.03 203.521 1394.07 211.011C1393.88 212.445 1395.71 214.042 1396.24 215.684C1396.99 218.002 1397.69 220.411 1397.86 222.82C1398.13 226.634 1396.7 231.037 1398.15 234.214C1403.96 247.019 1400 260.276 1400.75 273.26C1401.53 286.711 1401.01 300.243 1400.81 313.737C1400.79 315.442 1399.23 317.09 1398.56 318.835C1398.16 319.878 1397.98 321.057 1397.96 322.18C1397.89 326.344 1397.95 330.51 1397.92 334.676C1397.9 336.73 1398.61 339.144 1395.23 339.534C1394.7 339.595 1394.06 341.32 1394 342.31C1393.82 344.965 1393.95 347.638 1393.91 350.304C1393.9 351.293 1393.99 353.036 1393.62 353.155C1388.18 354.901 1391.54 360.409 1389.61 362.733C1386.41 366.582 1387.44 370.533 1386.83 374.501C1386.73 375.165 1385.47 375.59 1384.9 376.261C1384.16 377.139 1383.19 378.083 1383.01 379.119C1382.51 382.009 1383.95 385.666 1379.46 386.746C1379.16 386.817 1378.98 387.934 1378.97 388.569C1378.89 393.658 1375.8 397.21 1372.86 400.89C1371.44 402.677 1370.28 404.676 1369.28 406.829C1366.95 410.501 1364.62 414.173 1361.34 419.327C1362.07 423.979 1355.88 426.126 1352.51 430.113C1351.01 431.897 1349.02 433.267 1347.3 434.877C1345.96 436.127 1344.74 437.493 1343.41 438.747C1338.46 443.406 1333.39 447.934 1328.57 452.721C1325.61 455.658 1323.04 458.976 1320.29 462.122C1320.18 462.246 1320.05 462.455 1319.93 462.451C1313.28 462.192 1311.53 471.556 1304.41 470.365C1303.75 475.651 1296.2 472.335 1295.4 477.538C1295.36 477.798 1294.58 478.001 1294.12 478.132C1290.28 479.211 1285.37 479.18 1282.89 481.62C1280.15 484.297 1277.34 485.073 1274.18 486.042C1272.06 486.69 1270.04 487.703 1267.9 488.186C1265.84 488.652 1263.25 487.402 1262.5 491.005C1262.35 491.749 1259.11 491.923 1257.27 492.228C1255.06 492.593 1251.99 491.104 1251.62 495.188C1251.58 495.616 1250.06 496.133 1249.19 496.226C1244.71 496.701 1240.29 495.449 1235.83 498.81C1233.37 500.664 1228.41 499.12 1224.59 499.275C1222.19 499.372 1219.04 498.092 1218.44 502.338C1218.38 502.813 1215.82 503.18 1214.41 503.188C1202.08 503.259 1189.75 503.115 1177.43 503.352C1175.11 503.397 1172.84 504.936 1170.5 505.635C1168.46 506.244 1166.37 507.032 1164.29 507.064C1154.63 507.216 1144.96 507.238 1135.31 507.021C1133.82 506.988 1132.42 505.354 1130.9 504.665C1129.52 504.046 1128.02 503.319 1126.57 503.307C1114.24 503.199 1101.91 503.244 1089.58 503.244C1050.09 503.243 1010.6 503.243 971.11 503.243C968.974 503.243 966.839 503.243 964.319 503.243C964.319 495.558 964.319 488.335 964.319 480.47C979.643 480.47 994.879 480.47 1010.49 480.47C1010.67 478.443 1010.91 477.011 1010.91 475.579C1010.91 343.449 1010.9 211.318 1010.48 78.5284C996.025 77.695 981.973 77.5209 967.92 77.3467ZM1192.05 77.7511C1191.24 77.6074 1190.42 77.3394 1189.61 77.338C1169.51 77.3041 1149.41 77.2783 1129.31 77.3302C1127.88 77.3339 1126.44 77.9434 1124.95 79.2037C1124.95 212.747 1124.95 346.29 1124.95 480.221C1142.21 480.221 1158.68 480.23 1175.15 480.192C1175.92 480.19 1176.73 479.836 1177.47 479.528C1179.19 478.814 1180.81 477.724 1182.59 477.32C1192.54 475.065 1203.66 481.779 1212.83 473.376C1218.18 474.767 1222.02 470.877 1226.53 469.384C1228.87 468.611 1231.07 467.387 1233.26 466.222C1234.6 465.506 1235.9 464.633 1237.04 463.626C1240.14 460.874 1243.19 458.052 1246.19 455.187C1249.13 452.385 1253.52 449.955 1254.54 446.545C1256.43 440.196 1263.45 436.413 1262.72 429.04C1262.68 428.643 1263.13 428.163 1263.42 427.772C1266.44 423.708 1268.19 419.109 1268.87 414.137C1269.38 410.396 1268.28 405.532 1270.26 403.1C1273.44 399.206 1272.79 395.384 1272.89 391.369C1273.03 386.208 1272.85 381.039 1272.94 375.876C1272.96 374.64 1273.23 372.509 1273.84 372.327C1278.07 371.069 1276.9 367.734 1276.9 364.975C1276.93 304.827 1276.95 244.68 1276.85 184.533C1276.85 181.141 1278.86 176.692 1273.46 174.863C1272.93 174.683 1272.99 172.422 1272.98 171.125C1272.93 163.128 1273 155.13 1272.86 147.134C1272.84 145.858 1272.06 144.56 1271.5 143.335C1270.71 141.621 1269.36 140.054 1269 138.272C1267.75 132.132 1266.85 125.922 1265.75 119.752C1265.65 119.244 1264.93 118.871 1264.57 118.383C1263.69 117.178 1262.73 116.004 1262 114.705C1260.95 112.809 1260.07 110.813 1259.11 108.86C1258.66 109.009 1258.21 109.158 1257.76 109.306C1257.76 107.647 1258.46 105.382 1257.64 104.432C1253.95 100.164 1250.07 95.9819 1245.76 92.3575C1243.55 90.5014 1238.55 90.5027 1237.87 88.585C1236.1 83.557 1232.11 86.047 1229.57 84.1343C1228.12 82.7119 1226.5 81.7017 1224.74 81.3189C1222.82 80.9016 1219.61 81.8127 1218.99 80.8491C1216.22 76.4821 1212.19 78.5285 1208.75 78.299C1203.44 77.9455 1198.09 78.1453 1192.05 77.7511Z" fill="white"/>
<path d="M2705.89 77.407C2704.73 77.3042 2703.57 77.2013 2701.95 77.0571C2701.95 69.4157 2701.84 61.7928 2702.09 54.1817C2702.12 53.1861 2703.86 51.7525 2705.06 51.4071C2706.76 50.9198 2708.69 51.2459 2710.52 51.2459C2799.35 51.2437 2888.18 51.224 2977.01 51.32C2980.4 51.3236 2984.31 49.7402 2986.89 54.5816C2987.65 56.0058 2992.8 55.0497 2995.94 55.2586C2998.06 55.4002 3000.86 54.3598 3001.17 58.0646C3001.2 58.4602 3002.06 59.0026 3002.61 59.1056C3008.33 60.1854 3014.1 61.0304 3019.77 62.3138C3021.42 62.6878 3022.81 64.2527 3024.15 65.5181C3028.76 67.2431 3033.7 68.0726 3037.4 72.3453C3038.55 73.6703 3041.73 73.2355 3044.26 73.6523C3046.07 76.7696 3047.5 80.9263 3052.81 80.2027C3053.53 80.1045 3054.76 80.402 3055.03 80.9072C3057.59 85.6087 3061.76 88.6835 3065.58 92.1955C3069.15 95.469 3072.03 99.4864 3075.24 103.145C3075.64 103.601 3076.57 103.764 3076.73 104.237C3078.91 110.866 3083.8 115.819 3087.32 121.614C3087.8 122.399 3087.81 123.508 3087.89 124.48C3088.14 127.371 3086.91 130.517 3091.14 132.245C3092.25 132.694 3091.58 137.184 3091.96 139.782C3092.34 142.315 3090.13 146.217 3095.29 146.579C3095.6 146.601 3095.97 148.622 3095.97 149.714C3096 160.046 3096.01 170.378 3095.87 180.708C3095.83 184.021 3096.03 187.159 3092.67 189.908C3091.11 191.178 3092.2 195.572 3091.89 198.53C3091.62 201.199 3093.36 204.905 3088.63 205.573C3088.42 205.603 3088.11 206.114 3088.13 206.367C3088.64 210.782 3085.74 214.518 3085.31 218.373C3084.69 224.007 3080.05 224.737 3077.33 229.255C3078.18 234.566 3072.58 237.247 3068.82 241.04C3064.3 245.612 3058.58 249.002 3055.74 255.25C3055.21 256.425 3052.69 256.778 3051.04 257.351C3046.88 258.789 3044.5 263.682 3039.38 263.31C3038.67 263.259 3037.5 263.625 3037.26 264.136C3035.01 268.928 3030.36 269.177 3026.13 270.244C3025.98 270.284 3025.76 270.192 3025.64 270.268C3022.22 272.387 3018.8 274.501 3015.41 276.669C3014.89 277.002 3014.61 277.897 3014.1 278.014C3009.1 279.153 3004.08 280.175 2999.07 281.244C2996.99 281.687 2993.74 279.787 2993.49 284.188C2993.47 284.613 2990.43 285.138 2988.79 285.163C2978.91 285.314 2969.54 290.141 2959.45 288.311C2958.87 288.205 2957.7 288.493 2957.64 288.776C2956.44 294.404 2951.96 292.095 2948.87 292.139C2933.87 292.353 2918.87 292.225 2903.87 292.262C2901.7 292.267 2899.17 291.493 2898.45 295.014C2898.32 295.656 2895.61 296.064 2894.08 296.077C2883.94 296.17 2873.81 296.125 2863.28 296.125C2863.28 357.515 2863.28 418.424 2863.28 480.084C2880.9 480.084 2898.6 480.084 2916.61 480.084C2916.61 488.067 2916.61 495.302 2916.61 502.892C2845.17 502.892 2773.94 502.892 2702.32 502.892C2702.32 495.566 2702.32 488.332 2702.32 480.497C2717.57 480.497 2732.81 480.497 2748.6 480.497C2748.74 478.355 2748.93 476.767 2748.93 475.178C2748.93 343.186 2748.92 211.193 2748.51 78.5403C2734.03 77.7225 2719.96 77.5648 2705.89 77.407ZM2916.09 77.711C2899.17 77.6145 2882.26 77.5069 2865.35 77.4573C2864.58 77.4551 2863.8 77.9758 2862.93 79.1846C2862.93 142.413 2862.93 205.642 2862.93 269.221C2875.57 269.221 2887.38 269.226 2899.19 269.206C2899.84 269.205 2900.9 269.191 2901.07 268.846C2903.02 264.764 2906.7 266.374 2909.7 266.294C2916.69 266.106 2923.69 266.295 2930.69 266.188C2932.04 266.168 2934.47 265.641 2934.54 265.097C2935.03 261.44 2937.68 262.02 2939.81 262.31C2945.31 263.056 2947.88 259.878 2949.65 255.546C2952 255.235 2955.47 255.748 2956.33 254.487C2959.4 249.951 2960.99 244.365 2964.28 240.042C2967.2 236.199 2966.64 232.31 2966.98 228.261C2967.04 227.623 2968.07 227.116 2968.51 226.452C2969.37 225.139 2970.82 223.761 2970.82 222.406C2970.95 186.249 2970.94 150.092 2970.85 113.935C2970.85 112.718 2969.92 111.462 2969.29 110.3C2968.6 109.036 2967.12 107.891 2967.06 106.643C2966.76 100.3 2963.85 95.5089 2960.16 90.3993C2956.68 85.5639 2951.26 83.6698 2947.1 81.9352C2940.77 79.2981 2933.45 76.5849 2925.8 78.0962C2922.92 78.664 2919.82 78.0932 2916.09 77.711Z" fill="white"/>
<path d="M2325.14 77.8285C2323.16 77.9654 2321.18 78.1982 2319.2 78.2211C2313.41 78.2879 2307.4 83.829 2306.79 89.6539C2306.65 90.935 2306.57 92.6936 2305.75 93.3504C2301.9 96.4526 2302.94 100.625 2302.94 104.541C2302.92 237.177 2302.92 369.812 2302.92 502.447C2302.92 504.761 2302.92 507.074 2302.92 510.182C2296.99 510.182 2291.11 511.241 2285.92 509.811C2282.44 508.852 2277.83 504.581 2277.5 501.398C2277.04 496.947 2272.71 496.19 2272.06 492.656C2271.99 492.27 2270.29 492.182 2270.53 492.24C2265.62 481.459 2258.12 473.652 2252.16 464.668C2250.18 461.85 2248.21 459.02 2246.19 456.23C2245.92 455.855 2244.97 455.623 2245 455.429C2246.14 448.191 2236.11 447.048 2236.56 439.839C2236.67 438.123 2233.3 436.254 2231.66 434.342C2230.64 433.149 2229.8 431.785 2229 430.423C2227.7 428.204 2226.99 424.639 2225.16 423.953C2221.96 422.751 2222.28 420.814 2221.72 418.438C2221.39 417.045 2219.06 416.247 2218.05 414.871C2213.74 408.976 2208.16 403.476 2205.78 396.848C2203.61 390.776 2196.02 388.367 2196.53 380.827C2196.63 379.363 2192.8 377.722 2190.93 375.996C2190.07 375.197 2189.1 374.04 2189.01 372.972C2188.8 370.665 2188.62 369.047 2186.28 367.353C2181.43 363.831 2180.83 356.649 2175.3 353.42C2175.43 346.002 2168.08 344.018 2164.85 339.041C2164.59 338.647 2164.03 338.202 2164.1 337.889C2165.21 332.833 2159.5 331.712 2158.45 328.07C2157.02 323.08 2153.56 320.12 2149.78 316.967C2147.78 315.302 2150.05 310.732 2146.11 309.194C2144.81 308.685 2143.82 307.384 2142.14 305.986C2144.1 301.531 2139.63 299.417 2136.94 296.376C2136.26 295.603 2135.05 294.747 2135.08 293.976C2135.23 290.808 2134.45 288.995 2131.28 287.208C2127.3 284.965 2125.53 280.376 2123.77 276.063C2122.8 273.678 2120.43 271.889 2119.3 269.538C2116.51 263.733 2110.3 260.357 2108.63 253.651C2108.1 251.531 2105.32 249.977 2103.59 248.15C2103.07 247.601 2102.15 246.976 2102.18 246.431C2102.36 243.321 2101.07 241.744 2098.25 240.183C2096.15 239.018 2094.61 236.544 2094.59 233.149C2094.59 231.182 2091.36 229.255 2089.64 227.251C2088.98 226.471 2088.04 225.537 2088.03 224.658C2087.97 221.779 2087.97 219.551 2084.29 218.419C2080.53 217.263 2080.11 212.74 2078.05 209.816C2076.08 207.024 2074.22 204.158 2072.28 201.354C2070.19 198.351 2068.09 195.357 2065.94 192.403C2062.71 187.965 2059.28 183.659 2056.23 179.095C2055.15 177.472 2054.94 175.263 2053.69 173.877C2051.31 170.24 2048.93 166.603 2046.56 162.966C2046.93 162.708 2047.31 162.45 2047.69 162.192C2045.28 160.661 2042.88 159.131 2040 157.294C2040.57 152.837 2039.21 149.002 2033.82 146.639C2031.88 145.791 2031.45 141.905 2029.87 139.753C2027.63 136.729 2024.95 134.038 2022.5 131.177C2022.2 130.831 2021.9 130.294 2021.94 129.882C2022.23 127.128 2021.8 125.062 2018.42 124.638C2017.91 124.574 2017.63 122.678 2016.72 120.181C2016.3 122.702 2015.95 123.844 2015.95 124.985C2015.93 236.126 2015.84 347.266 2016.17 458.406C2016.18 464.359 2020.88 469.056 2025.47 473.763C2029.76 478.16 2034.06 475.691 2037.76 477.429C2050.02 483.19 2062.9 478.65 2075.34 480.455C2075.64 480.5 2075.93 480.706 2076.81 481.1C2076.81 488.436 2077.09 496.06 2076.54 503.624C2076.45 504.93 2072.83 506.987 2070.84 506.998C2033.51 507.198 1996.19 507.14 1958.86 507.136C1951.08 507.136 1943.29 507.136 1935.22 507.136C1935.22 498.012 1935.22 489.448 1935.22 480.244C1939.61 480.244 1943.73 480.326 1947.84 480.224C1953.33 480.088 1958.96 481.246 1964.07 477.815C1965.39 476.931 1967.77 476.87 1969.4 477.346C1974.69 478.893 1980.21 475.471 1980.76 472.657C1981.71 467.794 1986.18 465.341 1986.17 459.787C1985.85 337.15 1985.87 214.512 1986.09 91.8748C1986.1 86.2878 1982.59 84.3605 1979.74 81.0639C1976.42 77.2368 1972.44 78.6593 1967.81 77.9511C1956.29 77.516 1945.6 77.3279 1934.91 77.1398C1934.91 68.8173 1934.91 60.4947 1934.91 51.2445C1937.12 51.2445 1939.03 51.2445 1940.93 51.2445C1994.42 51.2447 2047.92 51.2687 2101.41 51.2032C2106.01 51.1975 2109.47 51.7057 2110.18 57.4584C2110.42 59.4128 2113.14 61.0078 2114.57 62.8869C2115.8 64.5077 2116.81 66.2987 2117.67 68.1641C2120.41 70.9547 2124.22 72.6881 2125.01 77.5037C2125.37 79.7365 2126.89 82.8478 2128.67 83.5452C2131.76 84.7563 2131.69 86.5955 2132.15 89.0979C2132.41 90.4992 2134.91 91.3442 2135.74 92.8149C2137.12 95.2902 2137.65 98.2581 2139.13 100.654C2140.42 102.738 2142.59 104.264 2144.25 106.142C2145.26 107.283 2146.1 108.588 2146.91 109.882C2148.42 112.275 2149.83 114.73 2151.33 117.128C2152.15 118.422 2153.08 119.638 2153.92 120.916C2154.89 122.397 2155.71 123.994 2156.78 125.392C2161.49 131.506 2167.78 136.959 2170.53 143.838C2172.76 149.41 2180.14 151.578 2179.22 158.727C2179.12 159.558 2181.59 160.705 2182.86 161.729C2187.56 165.542 2187.19 172.82 2193.11 176.132C2195.14 177.269 2195.14 181.583 2196.96 183.654C2200.79 188 2202.04 194.103 2207.06 197.683C2208.22 198.508 2207.94 201.341 2208.36 203.416C2211.5 205.973 2215.71 207.842 2216.09 213.129C2216.19 214.518 2217.86 215.839 2218.92 217.106C2223.5 222.603 2228.13 228.053 2232.7 233.562C2233.29 234.276 2233.94 235.232 2233.95 236.082C2234 240.132 2236.37 242.459 2239.55 244.327C2240.05 244.625 2240.83 245.26 2240.77 245.617C2239.86 250.843 2244.78 252.258 2247.03 255.395C2247.47 255.997 2247.87 256.813 2247.85 257.519C2247.7 263.029 2252.88 264.039 2255.72 268.05C2255.41 271.892 2257.75 275.225 2261.83 277.574C2262.21 277.792 2262.72 278.348 2262.67 278.671C2261.89 283.832 2266.88 285.217 2269.01 288.46C2269.18 288.724 2269.66 289 2269.61 289.164C2268.45 293.367 2272.55 294.842 2274 297.677C2275.46 300.523 2277 303.326 2279.5 306.114C2279.65 304.282 2279.93 302.451 2279.93 300.619C2279.95 231.632 2279.96 162.644 2279.86 93.6573C2279.86 91.8234 2279.18 89.6555 2278.08 88.213C2271.54 79.6872 2262.54 77.2232 2252.24 78.2327C2251.09 78.3454 2249.91 78.1704 2247.9 77.9163C2240.92 77.5603 2234.78 77.3261 2228.65 77.3289C2226.8 77.3298 2224.96 77.9912 2223.11 78.35C2222.73 77.371 2222.03 76.3957 2222.02 75.4123C2221.93 67.6107 2221.97 59.8074 2221.97 51.628C2268.28 51.628 2314.17 51.628 2360.74 51.628C2360.74 59.0894 2360.86 66.349 2360.62 73.5964C2360.58 74.8192 2358.96 75.9892 2357.19 77.1959C2345.92 77.4149 2335.53 77.6217 2325.14 77.8285Z" fill="white"/>
<path d="M1698.93 69.0847C1698.93 69.6956 1698.88 69.8934 1698.95 70.0243C1700.97 73.8376 1703 77.6468 1705.05 81.4469C1705.2 81.7252 1705.61 81.8947 1705.69 82.1744C1707.12 87.211 1708.65 92.2253 1709.86 97.3157C1710.36 99.4107 1709.18 102.076 1712.7 102.68C1713.25 102.774 1713.69 104.555 1713.86 105.608C1714.35 108.62 1714.35 111.311 1716.17 114.459C1718.05 117.722 1717.75 122.44 1720.69 126.078C1721.99 127.684 1720.23 131.416 1723.88 132.327C1724.11 132.384 1724.32 132.83 1724.4 133.131C1725.59 137.813 1726.82 142.487 1727.9 147.195C1728.45 149.613 1726.44 153.251 1731.15 153.54C1731.37 153.553 1731.77 154.106 1731.71 154.279C1729.72 160.06 1734.32 164.222 1736.39 168.348C1738.58 172.694 1736.96 178.589 1739.42 180.569C1743.75 184.053 1741.18 190.079 1743.29 191.266C1749.1 194.539 1747.1 200.498 1748.85 204.682C1750.78 209.326 1754.77 213.494 1754.56 219.792C1754.46 223.113 1757.02 227.58 1757.08 231.864C1763.74 233.574 1758.85 241.427 1764.15 244.819C1766.84 246.542 1766.89 252.56 1767.88 256.699C1768.43 259.031 1766.78 262.244 1771 262.852C1771.47 262.919 1771.71 265.164 1771.9 266.422C1772.31 269.218 1770.43 272.995 1775.25 273.868C1775.56 273.924 1775.74 275.012 1775.87 275.642C1776.92 280.485 1776.45 286.731 1779.36 289.823C1782.91 293.613 1781.23 299.52 1783.43 300.849C1788.43 303.863 1785.25 308.521 1787.22 311.106C1790.01 314.766 1789.75 318.423 1790.07 322.322C1790.12 322.998 1791.17 323.657 1791.85 324.2C1792.33 324.583 1793.38 324.643 1793.5 325.041C1794.72 329.325 1795.69 333.681 1796.98 337.944C1797.46 339.531 1798.58 340.922 1799.4 342.41C1799.91 343.334 1800.62 344.22 1800.84 345.212C1801.55 348.341 1798.97 352.781 1804.46 353.964C1804.63 354.001 1804.74 354.531 1804.8 354.845C1805.86 359.855 1805.54 365.904 1808.33 369.596C1811.29 373.503 1811.73 377.186 1812.4 381.367C1812.51 382.041 1814.52 382.409 1815.32 382.765C1816.59 389.547 1816.13 397.197 1819.58 402.118C1822.04 405.638 1821.17 410.656 1825.27 412.942C1825.61 413.132 1825.75 413.785 1825.87 414.251C1827.24 419.332 1828.48 424.449 1829.99 429.484C1830.42 430.902 1831.6 432.103 1832.49 433.365C1832.84 433.858 1833.71 434.249 1833.71 434.68C1833.66 439 1834.13 442.985 1836.72 446.831C1837.92 448.616 1836.11 452.093 1840.03 452.956C1840.64 453.09 1840.45 456.056 1840.97 457.598C1841.66 459.62 1842.68 461.528 1843.97 463.323C1845.41 468.731 1846.84 474.138 1848.42 480.096C1861.24 480.096 1874.16 480.096 1887.83 480.096C1887.83 488.723 1887.89 496.81 1887.73 504.892C1887.71 505.603 1886.37 506.69 1885.48 506.894C1883.89 507.26 1882.17 507.13 1880.51 507.13C1817.19 507.138 1753.87 507.137 1690.54 507.136C1687.57 507.136 1684.59 507.136 1680.77 507.136C1680.77 498.367 1680.77 489.711 1680.77 480.459C1695.94 480.459 1711.51 480.459 1727.51 480.459C1727.46 477.736 1729.74 475.126 1725.52 474.135C1724.89 473.987 1723.9 472.779 1724.03 472.37C1726.33 465.265 1721.04 459.685 1719.25 453.775C1717.71 448.709 1719.44 441.75 1713.59 437.945C1712.78 437.425 1713.18 435.139 1712.92 433.691C1712.45 431.136 1714.62 427.27 1709.61 426.885C1709.43 426.871 1709.19 426.369 1709.13 426.064C1708.05 420.555 1707.1 415.015 1705.85 409.546C1705.49 407.967 1704.29 406.568 1703.39 405.133C1703.16 404.758 1702.27 404.474 1702.31 404.295C1703.64 398.571 1698.53 394.652 1698.09 389.641C1697.38 381.335 1695.71 379.267 1687.52 379.267C1649.69 379.266 1611.87 379.267 1574.04 379.266C1572.24 379.266 1570.44 379.266 1568.25 379.266C1568.13 381.315 1568.28 382.988 1567.87 384.511C1567.3 386.632 1566.16 388.597 1565.56 390.711C1565.11 392.263 1565.11 393.945 1564.93 395.571C1564.65 397.958 1566.12 401.234 1561.81 401.568C1561.53 401.59 1561.17 402.299 1561.08 402.734C1559.8 409.363 1558.56 416 1556.52 422.325C1555.66 424.052 1554.45 425.697 1554.01 427.527C1553.36 430.25 1555.33 434.08 1550.5 434.787C1550.32 434.813 1550.15 435.33 1550.09 435.64C1549.02 440.974 1548.09 446.341 1546.84 451.631C1546.44 453.293 1545.18 454.75 1544.31 456.297C1543.87 457.077 1543.03 457.839 1543.02 458.621C1542.91 464.585 1542.96 470.552 1542.96 476.848C1544.82 477.003 1546.28 476.999 1547.7 477.265C1551.81 478.041 1555.89 478.971 1560.01 479.742C1561.62 480.044 1563.28 480.216 1564.92 480.222C1575.71 480.264 1586.49 480.244 1597.89 480.244C1597.89 488.591 1597.91 496.37 1597.87 504.148C1597.86 507.309 1595.61 507.267 1593.31 507.253C1582.31 507.186 1571.31 507.14 1560.32 507.142C1528.66 507.149 1497 507.184 1465.33 507.198C1464.38 507.198 1463.42 507.09 1462.21 507.018C1462.21 498.12 1462.21 489.538 1462.21 481.579C1471.48 475.587 1481.45 477.575 1491.13 477.131C1492.46 477.07 1493.75 475.596 1495.01 474.71C1495.49 474.366 1495.83 473.485 1496.28 473.448C1502.9 472.903 1505 466.147 1509.46 463.711C1514 461.232 1510.76 454.5 1516.58 454.387C1516.64 454.386 1516.72 454.108 1516.76 453.951C1517.81 448.435 1518.74 442.891 1520 437.42C1520.35 435.874 1521.76 434.599 1522.46 433.098C1523.1 431.743 1523.58 430.279 1523.89 428.812C1524.44 426.223 1522.36 422.441 1527.22 421.883C1527.47 421.855 1527.74 421.064 1527.81 420.6C1528.31 417.112 1528.05 413.916 1530.48 410.368C1533.35 406.19 1532.46 399.45 1535.32 395.261C1538.04 391.264 1536.13 385.749 1538.48 383.889C1542.62 380.617 1541.58 377.033 1542.12 373.307C1542.22 372.584 1543.25 371.98 1543.89 371.353C1544.52 370.729 1545.66 370.214 1545.76 369.53C1546.34 365.614 1545.52 361.746 1548.6 357.966C1550.31 355.857 1548.84 351.347 1552.55 349.287C1553.12 348.97 1552.78 347.096 1552.94 345.953C1553.1 344.833 1553.23 342.803 1553.59 342.755C1558.35 342.12 1556.36 338.441 1557 335.877C1557.45 334.068 1558.99 332.501 1559.32 330.695C1559.91 327.471 1559.95 324.147 1561.34 321.233C1562.2 319.373 1563.18 317.558 1563.89 315.643C1564.76 313.3 1561.99 309.316 1567.09 308.798C1567.47 308.759 1567.77 306.775 1567.9 305.671C1568.2 303.068 1568.35 300.929 1570.18 298.303C1572.96 294.314 1572.31 287.856 1575.22 284.073C1578.86 279.357 1575.09 272.286 1581.18 268.906C1581.82 268.551 1581.73 266.813 1581.92 265.708C1582.36 263.109 1580.37 259.392 1585.23 258.753C1585.59 258.705 1585.76 256.674 1585.91 255.551C1586.3 252.674 1586.04 250.166 1588.25 247.184C1591.11 243.319 1590.46 236.921 1593.21 232.896C1596.21 228.494 1595.95 223.211 1598.85 219.011C1599.67 217.813 1599.64 215.995 1599.91 214.445C1600.34 211.955 1598.6 208.467 1603.11 207.863C1603.46 207.815 1603.75 206.474 1603.88 205.703C1604.43 202.341 1602.12 197.876 1607.54 196.407C1607.71 196.362 1607.76 195.82 1607.83 195.501C1608.88 190.651 1609.51 185.658 1611.09 180.989C1612.62 176.47 1615.18 172.304 1617.19 167.935C1617.65 166.934 1617.72 165.744 1617.91 164.632C1618.42 161.711 1616.39 157.793 1621.33 156.551C1621.85 156.422 1621.72 153.804 1621.93 152.345C1622.28 149.858 1620.52 146.327 1625.12 145.896C1625.39 145.871 1625.69 145.127 1625.79 144.676C1626.86 139.856 1627.5 134.894 1629.06 130.235C1630.78 125.069 1633.31 120.171 1635.53 115.172C1635.72 114.735 1636.35 114.455 1636.46 114.023C1637.66 109.217 1638.67 104.36 1640.02 99.5981C1640.48 97.992 1641.88 96.6776 1642.59 95.1141C1643.22 93.7399 1643.59 92.224 1643.91 90.735C1644.45 88.1553 1642.37 84.3597 1647.23 83.8117C1647.48 83.7843 1647.71 82.9885 1647.81 82.5205C1648.87 77.6951 1649.49 72.7238 1651.06 68.0733C1652.59 63.5381 1655.13 59.3472 1657.13 54.9628C1657.59 53.9653 1657.79 52.8042 1657.89 51.6993C1658.08 49.4183 1658.11 47.1246 1658.23 44.5513C1669.51 44.5513 1680.42 44.5513 1691.42 44.5513C1692.58 47.3116 1690.53 51.5001 1695.15 52.3326C1695.37 52.3726 1695.62 52.8117 1695.68 53.1021C1696.78 58.2781 1697.85 63.4599 1698.93 69.0847ZM1682.03 353.171C1684.06 351.076 1684.94 344.135 1683.06 343.709C1679 342.785 1680.32 339.954 1679.88 337.546C1678.96 332.51 1677.82 327.513 1676.72 322.512C1676.64 322.113 1676.16 321.515 1675.83 321.496C1672.15 321.286 1673.15 318.529 1672.88 316.37C1672.75 315.338 1672.24 314.331 1671.79 313.367C1670.88 311.424 1669.49 309.612 1669.03 307.579C1667.97 302.931 1664.24 298.898 1665.74 293.641C1665.82 293.36 1665.28 292.602 1664.96 292.557C1660.83 291.972 1661.87 288.781 1661.99 286.341C1662.15 283.221 1661.77 280.787 1658.48 280.787C1657.22 273.994 1656.09 267.658 1654.82 261.351C1654.66 260.587 1653.7 260.011 1653.19 259.288C1652.4 258.148 1651.28 257.047 1650.99 255.772C1649.78 250.463 1648.85 245.093 1647.77 239.753C1647.69 239.312 1647.35 238.593 1647.07 238.566C1642.45 238.112 1644.26 234.563 1643.95 232.095C1643.69 229.952 1644.75 227.169 1641.02 226.972C1640.66 226.953 1640.18 226.054 1640.04 225.494C1638.75 220.034 1637.52 214.56 1636.28 209.117C1634.58 207.944 1632.78 206.699 1631.06 205.515C1630.77 205.607 1630.49 205.626 1630.47 205.705C1629.25 210.848 1628.06 215.999 1626.83 221.14C1626.68 221.752 1626.38 222.783 1626.04 222.825C1621.52 223.393 1623.37 226.894 1622.89 229.354C1622.58 230.979 1622.12 232.614 1621.46 234.125C1620.79 235.653 1619.36 236.937 1619 238.496C1617.77 243.945 1616.87 249.47 1615.79 254.956C1615.71 255.364 1615.27 255.995 1614.96 256.019C1610.55 256.35 1612.33 259.725 1611.91 262.033C1611.61 263.724 1611.43 266.746 1610.8 266.858C1606.83 267.555 1608.15 270.435 1607.94 272.664C1607.8 274.151 1608.31 276.677 1607.68 276.987C1602.26 279.634 1607.7 287.82 1601.07 289.607C1601.22 293.961 1600.16 297.811 1598.15 301.848C1595.85 306.486 1595.18 311.925 1593.66 316.974C1593.5 317.535 1592.33 317.729 1591.8 318.266C1591.1 318.985 1590.21 319.796 1590.02 320.7C1588.83 326.183 1589.23 332.638 1586.36 336.942C1583.65 341.007 1582.96 344.664 1582.63 348.976C1582.6 349.443 1581.41 349.779 1580.82 350.26C1580.11 350.841 1579.48 351.512 1577.68 353.224C1613.24 353.224 1647.17 353.224 1682.03 353.171Z" fill="white"/>
<path d="M2425.91 77.1615C2425.91 68.7244 2425.91 60.2874 2425.91 51.5542C2496.35 51.5542 2566.16 51.5542 2636.56 51.5542C2636.56 59.8111 2636.58 68.0268 2636.49 76.2415C2636.49 76.552 2635.48 76.852 2634.07 77.2162C2618.75 77.2706 2604.31 77.2226 2589.87 77.3054C2587.6 77.3184 2585.34 77.9243 2583.07 78.256C2583.02 80.0866 2582.93 81.9173 2582.93 83.748C2582.92 213.553 2582.92 343.358 2582.92 473.164C2582.92 475.294 2582.92 477.425 2582.92 480.156C2601 480.156 2618.58 480.156 2636.53 480.156C2636.53 487.988 2636.53 495.215 2636.53 503.243C2634.39 503.243 2632.29 503.243 2630.2 503.243C2578.71 503.243 2527.22 503.23 2475.73 503.284C2473.36 503.287 2470.18 502.024 2469.46 506.141C2469.39 506.564 2468.09 507.042 2467.36 507.045C2453.75 507.098 2440.13 507.084 2426.22 507.084C2426.22 498.135 2426.22 489.561 2426.22 480.405C2441.64 480.405 2456.88 480.405 2472.5 480.405C2472.67 478.433 2472.91 477 2472.91 475.567C2472.91 343.429 2472.9 211.291 2472.48 78.5079C2456.68 77.6289 2441.3 77.3952 2425.91 77.1615Z" fill="white"/>
<path d="M996.372 626.214V694.324H1016.48C1026.77 694.324 1033.94 689.25 1038 679.102C1040.22 673.532 1041.33 666.901 1041.33 659.207C1041.33 648.587 1039.65 640.445 1036.3 634.781C1033 629.069 1026.39 626.214 1016.48 626.214H996.372ZM1020.16 608.089C1026.63 608.183 1032.01 608.938 1036.3 610.354C1043.62 612.762 1049.54 617.175 1054.07 623.594C1057.71 628.786 1060.19 634.403 1061.51 640.445C1062.83 646.486 1063.49 652.245 1063.49 657.72C1063.49 671.597 1060.71 683.35 1055.14 692.979C1047.58 705.959 1035.93 712.449 1020.16 712.449H975.202V608.089H1020.16ZM1157.16 626.568H1101.94V648.729H1152.63V666.854H1101.94V693.687H1159.71V712.449H1080.62V608.089H1157.16V626.568ZM1192.49 680.235C1193.15 685.002 1194.45 688.566 1196.38 690.926C1199.92 695.221 1205.99 697.369 1214.58 697.369C1219.72 697.369 1223.9 696.802 1227.11 695.669C1233.2 693.498 1236.24 689.463 1236.24 683.562C1236.24 680.117 1234.73 677.45 1231.71 675.562C1228.69 673.721 1223.95 672.093 1217.48 670.677L1206.44 668.199C1195.58 665.744 1188.08 663.077 1183.92 660.198C1176.89 655.384 1173.37 647.855 1173.37 637.613C1173.37 628.267 1176.77 620.503 1183.57 614.319C1190.37 608.136 1200.35 605.044 1213.52 605.044C1224.52 605.044 1233.88 607.971 1241.63 613.824C1249.41 619.629 1253.5 628.078 1253.87 639.17H1232.92C1232.54 632.893 1229.8 628.432 1224.7 625.789C1221.31 624.043 1217.08 623.169 1212.03 623.169C1206.41 623.169 1201.93 624.302 1198.58 626.568C1195.23 628.833 1193.55 631.996 1193.55 636.055C1193.55 639.784 1195.2 642.569 1198.51 644.41C1200.63 645.637 1205.16 647.076 1212.1 648.729L1230.08 653.047C1237.97 654.935 1243.91 657.461 1247.93 660.623C1254.16 665.532 1257.27 672.636 1257.27 681.934C1257.27 691.469 1253.61 699.398 1246.3 705.723C1239.03 712.001 1228.74 715.14 1215.43 715.14C1201.84 715.14 1191.14 712.048 1183.36 705.865C1175.57 699.634 1171.67 691.091 1171.67 680.235H1192.49ZM1293.38 712.449H1271.72V608.089H1293.38V712.449ZM1383.94 640.657C1382.28 633.53 1378.25 628.55 1371.83 625.718C1368.24 624.161 1364.25 623.382 1359.86 623.382C1351.46 623.382 1344.55 626.568 1339.12 632.94C1333.74 639.265 1331.05 648.799 1331.05 661.543C1331.05 674.382 1333.97 683.468 1339.83 688.802C1345.68 694.135 1352.33 696.802 1359.79 696.802C1367.11 696.802 1373.1 694.702 1377.78 690.501C1382.45 686.253 1385.33 680.707 1386.41 673.863H1362.27V656.446H1405.74V712.449H1391.3L1389.1 699.422C1384.9 704.378 1381.13 707.871 1377.78 709.9C1372.02 713.44 1364.94 715.21 1356.54 715.21C1342.71 715.21 1331.38 710.42 1322.55 700.838C1313.35 691.209 1308.74 678.04 1308.74 661.331C1308.74 644.433 1313.39 630.887 1322.69 620.691C1331.99 610.496 1344.29 605.398 1359.58 605.398C1372.84 605.398 1383.49 608.773 1391.51 615.523C1399.58 622.225 1404.21 630.604 1405.39 640.657H1383.94ZM1426.27 608.089H1449.14L1490.7 680.943V608.089H1511.02V712.449H1489.22L1446.59 638.321V712.449H1426.27V608.089ZM1568.58 684.908C1568.58 678.63 1570.14 673.249 1573.26 668.765C1576.37 664.281 1581.47 659.844 1588.55 655.455L1590.74 654.109C1587.72 650.711 1585.39 647.242 1583.73 643.702C1582.08 640.162 1581.26 636.48 1581.26 632.657C1581.26 625.057 1583.81 619.134 1588.9 614.886C1594 610.59 1600.61 608.443 1608.73 608.443C1616.14 608.443 1622.25 610.638 1627.06 615.027C1631.93 619.37 1634.36 624.939 1634.36 631.736C1634.36 637.872 1632.89 642.852 1629.97 646.675C1627.09 650.499 1622.84 654.039 1617.22 657.295L1632.02 675.562C1633.72 673.108 1635.02 670.441 1635.92 667.562C1636.86 664.682 1637.35 661.638 1637.4 658.428H1655.31C1655.03 664.753 1653.52 671.149 1650.78 677.615C1649.27 681.25 1646.82 685.262 1643.42 689.651L1662.39 712.449H1637.9L1630.68 703.599C1627.18 706.856 1623.93 709.263 1620.91 710.821C1615.52 713.606 1609.32 714.998 1602.28 714.998C1591.71 714.998 1583.45 711.883 1577.5 705.652C1571.56 699.422 1568.58 692.507 1568.58 684.908ZM1599.81 631.949C1599.81 633.837 1600.47 635.819 1601.79 637.896C1602.64 639.265 1604.48 641.696 1607.31 645.188C1610.14 643.206 1612.17 641.53 1613.4 640.162C1615.76 637.613 1616.94 634.852 1616.94 631.878C1616.94 629.707 1616.23 627.771 1614.82 626.072C1613.4 624.373 1611.25 623.523 1608.37 623.523C1606.58 623.523 1604.9 624.019 1603.35 625.01C1600.99 626.473 1599.81 628.786 1599.81 631.949ZM1588.69 684.271C1588.69 687.716 1590.08 690.879 1592.87 693.758C1595.7 696.637 1599.31 698.077 1603.7 698.077C1607 698.077 1610.12 697.321 1613.05 695.811C1616.02 694.253 1618.43 692.531 1620.27 690.643L1601.15 666.995C1596.1 670.346 1592.75 673.296 1591.1 675.845C1589.49 678.394 1588.69 681.202 1588.69 684.271ZM1736.88 712.449H1715.21V608.089H1736.88V712.449ZM1756.91 608.089H1779.78L1821.34 680.943V608.089H1841.66V712.449H1819.86L1777.23 638.321V712.449H1756.91V608.089ZM1862.05 608.23H1936.04V626.568H1883.72V650.569H1929.53V668.694H1883.72V712.449H1862.05V608.23ZM1972.5 626.214V654.251H1997.21C2002.12 654.251 2005.8 653.685 2008.26 652.552C2012.6 650.569 2014.77 646.652 2014.77 640.799C2014.77 634.474 2012.67 630.226 2008.47 628.055C2006.11 626.827 2002.57 626.214 1997.85 626.214H1972.5ZM2002.38 608.089C2009.7 608.23 2015.31 609.127 2019.23 610.779C2023.2 612.431 2026.55 614.862 2029.28 618.072C2031.55 620.715 2033.34 623.641 2034.67 626.851C2035.99 630.061 2036.65 633.719 2036.65 637.825C2036.65 642.781 2035.4 647.667 2032.9 652.481C2030.39 657.248 2026.26 660.623 2020.5 662.605C2025.32 664.541 2028.72 667.302 2030.7 670.889C2032.73 674.429 2033.74 679.857 2033.74 687.173V694.183C2033.74 698.95 2033.93 702.183 2034.31 703.882C2034.88 706.573 2036.2 708.555 2038.28 709.83V712.449H2014.27C2013.61 710.136 2013.14 708.272 2012.86 706.856C2012.29 703.93 2011.99 700.932 2011.94 697.864L2011.8 688.165C2011.7 681.509 2010.47 677.072 2008.11 674.854C2005.8 672.636 2001.44 671.526 1995.02 671.526H1972.5V712.449H1951.19V608.089H2002.38ZM2084.01 673.013H2110.49L2097.47 631.949L2084.01 673.013ZM2085.36 608.089H2110L2146.96 712.449H2123.31L2116.58 690.997H2078.14L2070.92 712.449H2048.12L2085.36 608.089ZM2176.05 680.235C2176.72 685.002 2178.01 688.566 2179.95 690.926C2183.49 695.221 2189.55 697.369 2198.14 697.369C2203.29 697.369 2207.47 696.802 2210.68 695.669C2216.76 693.498 2219.81 689.463 2219.81 683.562C2219.81 680.117 2218.3 677.45 2215.28 675.562C2212.26 673.721 2207.51 672.093 2201.05 670.677L2190 668.199C2179.15 665.744 2171.64 663.077 2167.49 660.198C2160.45 655.384 2156.94 647.855 2156.94 637.613C2156.94 628.267 2160.34 620.503 2167.13 614.319C2173.93 608.136 2183.91 605.044 2197.08 605.044C2208.08 605.044 2217.45 607.971 2225.19 613.824C2232.98 619.629 2237.06 628.078 2237.44 639.17H2216.48C2216.1 632.893 2213.37 628.432 2208.27 625.789C2204.87 624.043 2200.65 623.169 2195.6 623.169C2189.98 623.169 2185.49 624.302 2182.14 626.568C2178.79 628.833 2177.12 631.996 2177.12 636.055C2177.12 639.784 2178.77 642.569 2182.07 644.41C2184.2 645.637 2188.73 647.076 2195.67 648.729L2213.65 653.047C2221.53 654.935 2227.48 657.461 2231.49 660.623C2237.72 665.532 2240.84 672.636 2240.84 681.934C2240.84 691.469 2237.18 699.398 2229.86 705.723C2222.59 712.001 2212.3 715.14 2198.99 715.14C2185.4 715.14 2174.71 712.048 2166.92 705.865C2159.13 699.634 2155.24 691.091 2155.24 680.235H2176.05ZM2332.81 608.089V626.568H2301.58V712.449H2279.64V626.568H2248.27V608.089H2332.81ZM2367.43 626.214V654.251H2392.14C2397.05 654.251 2400.73 653.685 2403.18 652.552C2407.53 650.569 2409.7 646.652 2409.7 640.799C2409.7 634.474 2407.6 630.226 2403.4 628.055C2401.04 626.827 2397.5 626.214 2392.78 626.214H2367.43ZM2397.31 608.089C2404.62 608.23 2410.24 609.127 2414.16 610.779C2418.12 612.431 2421.47 614.862 2424.21 618.072C2426.48 620.715 2428.27 623.641 2429.59 626.851C2430.91 630.061 2431.57 633.719 2431.57 637.825C2431.57 642.781 2430.32 647.667 2427.82 652.481C2425.32 657.248 2421.19 660.623 2415.43 662.605C2420.25 664.541 2423.64 667.302 2425.63 670.889C2427.66 674.429 2428.67 679.857 2428.67 687.173V694.183C2428.67 698.95 2428.86 702.183 2429.24 703.882C2429.8 706.573 2431.13 708.555 2433.2 709.83V712.449H2409.2C2408.54 710.136 2408.07 708.272 2407.79 706.856C2407.22 703.93 2406.91 700.932 2406.86 697.864L2406.72 688.165C2406.63 681.509 2405.4 677.072 2403.04 674.854C2400.73 672.636 2396.36 671.526 2389.94 671.526H2367.43V712.449H2346.12V608.089H2397.31ZM2450.41 608.089H2472.57V672.234C2472.57 679.409 2473.42 684.648 2475.12 687.952C2477.76 693.805 2483.52 696.731 2492.39 696.731C2501.22 696.731 2506.95 693.805 2509.6 687.952C2511.3 684.648 2512.15 679.409 2512.15 672.234V608.089H2534.31V672.234C2534.31 683.326 2532.58 691.964 2529.14 698.147C2522.72 709.476 2510.47 715.14 2492.39 715.14C2474.31 715.14 2462.04 709.476 2455.58 698.147C2452.13 691.964 2450.41 683.326 2450.41 672.234V608.089ZM2550.66 661.119C2550.66 642.899 2555.55 628.857 2565.32 618.992C2573.81 610.402 2584.62 606.106 2597.74 606.106C2615.3 606.106 2628.14 611.865 2636.26 623.382C2640.74 629.848 2643.15 636.338 2643.48 642.852H2621.67C2620.26 637.849 2618.44 634.073 2616.22 631.524C2612.26 626.993 2606.38 624.727 2598.59 624.727C2590.66 624.727 2584.41 627.937 2579.83 634.356C2575.25 640.728 2572.96 649.767 2572.96 661.473C2572.96 673.178 2575.37 681.958 2580.19 687.811C2585.05 693.616 2591.21 696.519 2598.66 696.519C2606.31 696.519 2612.14 694.017 2616.15 689.014C2618.37 686.324 2620.21 682.288 2621.67 676.907H2643.27C2641.38 688.283 2636.54 697.534 2628.75 704.661C2621.01 711.788 2611.08 715.352 2598.95 715.352C2583.94 715.352 2572.14 710.538 2563.55 700.909C2554.96 691.233 2550.66 677.969 2550.66 661.119ZM2735.81 608.089V626.568H2704.58V712.449H2682.63V626.568H2651.27V608.089H2735.81ZM2748.62 608.089H2770.78V672.234C2770.78 679.409 2771.63 684.648 2773.33 687.952C2775.97 693.805 2781.73 696.731 2790.6 696.731C2799.43 696.731 2805.17 693.805 2807.81 687.952C2809.51 684.648 2810.36 679.409 2810.36 672.234V608.089H2832.52V672.234C2832.52 683.326 2830.8 691.964 2827.35 698.147C2820.93 709.476 2808.68 715.14 2790.6 715.14C2772.53 715.14 2760.26 709.476 2753.79 698.147C2750.34 691.964 2748.62 683.326 2748.62 672.234V608.089ZM2875.21 626.214V654.251H2899.92C2904.83 654.251 2908.51 653.685 2910.97 652.552C2915.31 650.569 2917.48 646.652 2917.48 640.799C2917.48 634.474 2915.38 630.226 2911.18 628.055C2908.82 626.827 2905.28 626.214 2900.56 626.214H2875.21ZM2905.09 608.089C2912.41 608.23 2918.02 609.127 2921.94 610.779C2925.91 612.431 2929.26 614.862 2931.99 618.072C2934.26 620.715 2936.05 623.641 2937.38 626.851C2938.7 630.061 2939.36 633.719 2939.36 637.825C2939.36 642.781 2938.11 647.667 2935.6 652.481C2933.1 657.248 2928.97 660.623 2923.21 662.605C2928.03 664.541 2931.43 667.302 2933.41 670.889C2935.44 674.429 2936.45 679.857 2936.45 687.173V694.183C2936.45 698.95 2936.64 702.183 2937.02 703.882C2937.59 706.573 2938.91 708.555 2940.99 709.83V712.449H2916.98C2916.32 710.136 2915.85 708.272 2915.57 706.856C2915 703.93 2914.7 700.932 2914.65 697.864L2914.51 688.165C2914.41 681.509 2913.18 677.072 2910.82 674.854C2908.51 672.636 2904.15 671.526 2897.73 671.526H2875.21V712.449H2853.9V608.089H2905.09ZM3035.36 626.568H2980.14V648.729H3030.83V666.854H2980.14V693.687H3037.91V712.449H2958.83V608.089H3035.36V626.568Z" fill="white"/>
</svg>
