<svg width="401" height="513" viewBox="0 0 401 513" fill="none" xmlns="http://www.w3.org/2000/svg">
<path fill-rule="evenodd" clip-rule="evenodd" d="M111.18 472.473C116.188 472.473 121.225 472.474 126.304 472.474H148.467H156.897C213.061 472.474 268.922 472.474 324.783 472.474C325.218 472.474 325.654 472.469 326.09 472.464C327.155 472.452 328.22 472.441 329.282 472.5C332.616 472.685 334.518 474.254 334.446 477.837C334.397 480.336 334.409 482.836 334.422 485.337C334.429 486.67 334.435 488.003 334.433 489.335C334.418 496.525 333.858 497.107 326.787 497.108C307.517 497.111 288.246 497.112 268.975 497.112C252.916 497.112 236.857 497.112 220.798 497.114C220.427 497.114 220.054 497.108 219.681 497.102H219.681H219.68H219.679C218.548 497.083 217.414 497.064 216.306 497.218C212.093 497.803 209.53 500.394 209.487 504.541C209.443 508.688 211.945 511.338 216.153 511.991C217.277 512.165 218.434 512.147 219.587 512.129H219.588H219.589H219.59H219.59H219.591H219.592H219.592H219.593H219.594C219.735 512.127 219.876 512.125 220.017 512.123C220.088 512.122 220.159 512.121 220.23 512.121C220.311 512.12 220.391 512.119 220.472 512.119C220.529 512.119 220.586 512.118 220.644 512.118C273.972 512.124 327.299 512.128 380.627 512.119C394.109 512.117 400.441 505.777 400.448 492.242C400.464 459.578 400.471 426.915 400.43 394.252C400.43 393.89 400.43 393.528 400.43 393.165C400.43 389.361 400.43 385.524 399.882 381.785C395.388 351.121 377.743 330.977 349.5 319.507L349.165 319.37C340.136 315.705 340.094 315.688 340.089 305.692C340.08 287.152 331.347 278.339 312.96 278.334C308.502 278.332 304.044 278.328 299.587 278.323C284.213 278.308 268.839 278.292 253.466 278.406C250.24 278.43 249.129 277.657 249.305 274.305C249.594 268.82 249.486 263.307 249.334 257.812C249.272 255.586 250 254.156 251.731 252.771C257.617 248.062 262.781 242.617 266.864 236.267C268.362 233.937 270.079 233.081 272.84 232.789C289.778 230.997 301.527 220.855 304.781 205.279C305.885 199.992 305.687 194.591 305.49 189.224V189.223C305.455 188.259 305.419 187.295 305.391 186.333C305.293 182.911 306.175 181.607 309.725 180.702C322.448 177.459 331.982 169.762 338.261 158.213C340.526 154.047 339.437 149.776 335.696 147.833C331.733 145.775 328.289 146.739 325.654 150.356C325.093 151.126 324.569 151.924 324.046 152.721C323.656 153.314 323.267 153.907 322.862 154.489C319.539 159.264 315.053 162.563 309.794 164.949C306.686 166.359 305.279 166.327 305.383 162.105C305.586 153.875 305.548 145.639 305.51 137.403C305.495 134.139 305.48 130.875 305.48 127.611V107.1C314.659 109.403 320.549 114.825 325.153 122.133C328.016 126.677 332.497 127.711 336.166 125.228C339.764 122.792 340.437 118.803 337.786 114.195C331.228 102.795 321.527 95.3509 308.748 92.352C305.427 91.5725 304.64 90.1604 304.181 87.123C300.982 65.9504 292.043 47.4585 277.185 32.0363C254.671 8.66608 226.801 -0.787999 194.678 0.0510544C144.195 1.36965 102.829 36.7448 94.6431 86.5009C94.0392 90.172 92.9224 91.7315 89.1958 92.6624C68.9236 97.726 54.8391 116.275 55.0958 137.014C55.3583 158.23 69.7005 176.149 90.3513 181.037C90.6745 181.114 91.0077 181.172 91.3412 181.231C92.6614 181.463 93.9856 181.695 94.709 183.048C98.4105 189.969 104.748 191.506 111.708 190.822C116.606 190.341 117.72 192.167 118.003 196.701C119.21 216.048 125.999 233.635 140.6 246.251C149.909 254.295 152.271 262.709 151.304 273.845C150.973 277.656 150.077 278.447 146.469 278.416C126.139 278.243 105.807 278.271 85.4757 278.357C73.3926 278.407 64.314 284.762 61.5507 294.957C60.4984 298.839 60.4758 302.854 60.5017 306.867L60.502 306.908C60.5601 315.916 60.5612 316.072 52.3418 319.028C21.6358 330.075 -0.738757 357.909 0.018666 394.932C0.472674 417.125 0.364077 439.328 0.255479 461.532C0.205937 471.662 0.156395 481.791 0.160268 491.919C0.165562 505.765 6.46907 512.118 20.1909 512.12C72.852 512.127 125.513 512.126 178.174 512.109C178.441 512.109 178.709 512.111 178.978 512.113H178.981C180.552 512.124 182.151 512.136 183.633 511.754C189.066 510.353 191.064 504.064 187.52 499.867C185.501 497.474 182.769 497.085 179.828 497.093C168.866 497.122 157.904 497.118 146.942 497.114C143.072 497.112 139.203 497.111 135.333 497.111C129.552 497.111 123.772 497.111 117.992 497.112H117.886C103.037 497.114 88.188 497.116 73.3391 497.105C66.9114 497.1 66.2105 496.366 66.178 489.852C66.1661 487.482 66.1696 485.112 66.173 482.742L66.174 482.042L66.1755 480.853C66.1832 473.138 66.8583 472.477 74.8096 472.475C86.5899 472.472 98.3702 472.472 110.317 472.473H110.4H110.485H110.569H110.655H110.741H110.827H110.915H111.002H111.091H111.18ZM325.074 416.122C325.072 411.822 325.07 407.491 325.07 403.117C325.07 393.976 325.07 384.873 325.071 375.799V375.717V375.636V375.556V375.475V375.395V375.315V375.235V375.156V375.077V374.998C325.071 351.585 325.072 328.354 325.067 305.124C325.065 295.684 322.716 293.354 313.207 293.354C237.878 293.35 162.55 293.349 87.2222 293.355C78.0299 293.355 75.5466 295.782 75.5447 304.805C75.5347 351.968 75.534 399.131 75.5461 446.295C75.5483 454.892 78.0049 457.436 86.4032 457.438C162.398 457.454 238.393 457.454 314.388 457.436C322.509 457.435 325.042 454.837 325.06 446.614C325.083 436.602 325.078 426.59 325.074 416.407V416.39V416.372V416.355V416.337V416.319V416.301V416.283V416.265V416.247V416.228L325.074 416.122ZM238.828 104.647C242.025 101.946 244.558 101.849 246.74 105.421C247.204 106.181 247.856 106.828 248.507 107.474C248.812 107.777 249.116 108.079 249.402 108.393C251.106 110.267 253.011 112.062 254.916 113.857C259.264 117.954 263.612 122.051 265.561 127.078C267.605 132.349 267.12 138.636 266.638 144.875C266.457 147.218 266.277 149.555 266.231 151.828C266.121 157.345 266.203 162.865 266.285 168.386V168.387C266.445 179.185 266.605 189.983 265.324 200.754C265.3 200.963 265.278 201.172 265.256 201.381C265.21 201.835 265.163 202.289 265.083 202.738C262.377 217.896 262.23 218.018 247.047 218.018C246.063 218.018 245.077 218.006 244.092 217.994C241.91 217.967 239.727 217.94 237.551 218.046L237.324 218.057C231.445 218.344 226.057 218.607 222.439 212.013C220.197 207.925 215.235 206.261 210.344 206.075L209.911 206.058H209.91C205.898 205.905 201.866 205.75 197.868 205.993C187.229 206.637 179.205 215.337 179.381 225.76C179.556 236.176 187.857 244.656 198.438 245.106C201.93 245.255 205.443 245.29 208.931 245.095C215.821 244.71 221.52 241.902 225.047 235.803C226.333 233.581 227.75 232.923 230.174 232.98C234.739 233.088 239.307 233.069 244.193 233.049H244.193H244.194H244.194H244.195H244.195H244.196H244.197H244.197H244.2C246.215 233.04 248.285 233.032 250.43 233.032C240.388 244.763 228.444 251.799 214.352 254.849C177.137 262.906 142.256 240.503 133.898 203.444C132.871 198.889 132.438 194.237 132.434 189.564C132.428 184.215 132.435 178.867 132.442 173.518C132.457 161.038 132.473 148.559 132.339 136.081C132.3 132.473 133.393 131.717 136.819 131.823C173.384 132.947 207.192 123.518 238.828 104.647ZM279.448 60.394C254.625 16.2251 202.723 5.83081 161.528 22.2371C137.399 33.2444 121.132 51.0023 112.494 75.6724C110.236 82.1213 110.379 82.1714 117.142 82.3698C126.882 82.6554 132.327 88.3047 132.384 98.2076C132.391 99.4932 132.407 100.779 132.422 102.065V102.066V102.066V102.066V102.067V102.067V102.067V102.068V102.068C132.468 105.78 132.514 109.492 132.356 113.195C132.233 116.07 133.259 116.829 136.024 116.939C147.727 117.402 159.338 116.55 170.836 114.528C192.323 110.749 212.395 103.132 231.072 91.8133C243.53 84.2632 248.184 85 258.246 95.7525C259.869 97.4871 261.487 99.2269 263.328 101.207C264.248 102.197 265.225 103.247 266.285 104.387C266.285 103.174 266.276 102.108 266.267 101.139V101.138V101.138V101.137V101.136V101.136V101.135V101.135V101.134C266.251 99.2709 266.238 97.7645 266.3 96.2612C266.602 89.0009 271.249 83.7755 278.467 82.6718C280.428 82.372 282.471 82.2244 284.435 82.4205C287.7 82.7464 287.997 81.3246 287.175 78.705C285.182 72.351 282.718 66.2131 279.448 60.394ZM15.137 451.956V451.955C15.0894 431.405 15.0421 411.023 15.3017 390.645C15.6562 362.815 33.2155 340.395 60.0763 332.478C60.7333 333.74 60.644 335.078 60.5557 336.4C60.5252 336.856 60.4949 337.311 60.4953 337.759C60.5223 366.638 60.5216 395.516 60.5209 424.394C60.5207 431.171 60.5205 437.948 60.5207 444.726C60.521 456.621 60.5073 456.643 54.3467 466.319L54.2974 466.396C52.0939 469.857 51.1153 473.685 51.1553 477.787C51.1724 479.544 51.1748 481.302 51.1772 483.06C51.1823 486.801 51.1874 490.541 51.3343 494.275C51.4181 496.405 51.0107 497.184 48.7205 497.158C38.7249 497.047 28.727 497.064 18.7307 497.141C16.1719 497.16 15.1036 496.173 15.1518 493.609C15.2131 490.349 15.2001 487.087 15.1863 483.655C15.1804 482.177 15.1744 480.669 15.1741 479.115C15.1789 470.021 15.1579 460.974 15.137 451.958V451.958V451.958V451.957V451.957V451.956V451.956ZM385.42 439.509C385.427 433.406 385.435 427.278 385.435 421.117C385.434 417.982 385.429 414.897 385.425 411.845V411.824C385.415 405.15 385.405 398.637 385.438 392.124C385.522 375.912 380.218 361.786 369.07 349.975C361.12 341.552 351.703 335.482 340.089 332.311V338.281C340.089 346.114 340.088 353.947 340.087 361.78C340.085 389.771 340.083 417.762 340.109 445.754C340.112 449.274 340.097 452.851 338.91 456.116C338.005 458.606 338.684 459.677 340.67 460.912C346.524 464.551 349.203 470.092 349.385 476.822C349.537 482.482 349.56 488.158 349.287 493.81C349.161 496.42 349.722 497.222 352.424 497.173C361.586 497.009 370.76 496.881 379.913 497.21C384.342 497.37 385.573 496.012 385.533 491.598C385.377 474.307 385.398 457.013 385.42 439.516V439.515V439.514V439.513V439.512V439.51V439.509ZM93.2338 161.79C93.0371 162.34 93.1453 163.044 93.248 163.712C93.47 165.157 93.6667 166.438 90.7082 165.646C78.8116 162.462 69.6296 149.025 70.1595 135.241C70.682 121.648 80.4295 109.763 93.2339 107.4L93.2338 161.79ZM108.278 114.731L108.278 114.733C108.259 116.824 108.239 118.948 108.239 121.117C108.239 125.782 108.247 130.412 108.256 135.015C108.279 147.667 108.301 160.122 108.148 172.574C108.103 176.211 109.988 176.077 112.214 175.92C112.314 175.913 112.415 175.906 112.516 175.899C112.974 175.868 113.459 175.903 113.939 175.938C115.762 176.07 117.517 176.197 117.493 172.681C117.325 148.702 117.331 124.72 117.499 100.741C117.525 97.094 115.63 97.2254 113.353 97.3832L113.124 97.3989C112.668 97.4297 112.18 97.3964 111.695 97.3632C109.831 97.2359 108.008 97.1113 108.163 100.636C108.367 105.271 108.324 109.916 108.278 114.731V114.731ZM288.114 97.3891C290.61 97.4322 290.534 98.8157 290.466 100.071C290.455 100.273 290.444 100.473 290.444 100.663C290.453 108.296 290.449 115.928 290.446 123.561C290.438 139.922 290.43 156.283 290.544 172.644C290.568 176.185 288.788 176.065 286.925 175.939C286.475 175.908 286.02 175.878 285.585 175.898C285.396 175.907 285.209 175.919 285.023 175.93L285.023 175.93C282.951 176.056 281.159 176.165 281.186 172.614C281.368 148.621 281.327 124.627 281.241 100.633C281.227 96.7396 283.145 97.0428 285.212 97.3696C286.212 97.5276 287.246 97.6911 288.114 97.3891ZM207.636 278.325C212.162 278.333 216.713 278.341 221.299 278.341C235.058 278.341 235.058 278.341 234.248 264.908C234.242 264.815 234.205 264.723 234.144 264.574L234.144 264.574C234.107 264.484 234.061 264.372 234.009 264.225C233.623 264.36 233.234 264.489 232.845 264.619L232.844 264.619L232.844 264.62C232.007 264.899 231.169 265.178 230.35 265.507C212.02 272.862 193.406 272.919 174.658 267.468L174.021 267.283L174.021 267.283C170.156 266.156 168.208 265.589 167.207 266.319C166.188 267.061 166.148 269.144 166.066 273.344L166.053 274.003C165.984 277.424 166.765 278.478 170.363 278.434C182.719 278.28 195.076 278.302 207.632 278.325H207.636ZM280.767 198.312L280.767 198.311C280.88 197.582 280.97 197.005 281.012 196.425C281.416 190.862 283.038 189.745 288.727 190.874C289.931 191.113 290.388 191.486 290.497 192.705C291.384 202.606 288.452 213.011 277.256 216.381C277.625 214.513 278.088 212.68 278.551 210.843L278.551 210.842C279.487 207.131 280.428 203.404 280.611 199.339C280.666 198.961 280.719 198.623 280.767 198.312ZM204.982 220.816C204.756 220.815 204.518 220.814 204.267 220.813C203.434 220.817 202.701 220.821 202.022 220.825C201.245 220.829 200.538 220.833 199.83 220.835C196.743 220.844 194.508 222.215 194.509 225.412C194.51 228.511 196.548 230.141 199.708 230.157C200.768 230.163 201.829 230.16 202.889 230.157C204.48 230.154 206.071 230.15 207.661 230.173C210.748 230.217 212.994 228.913 213.165 225.743C213.357 222.203 210.986 220.856 207.709 220.829C206.886 220.822 206.064 220.819 204.982 220.816Z" fill="#040404"/>
<path fill-rule="evenodd" clip-rule="evenodd" d="M206.201 357.234C194.445 354.229 183.408 358.751 175.916 369.864C169.837 381.946 171.458 394.153 180.039 402.806C188.04 410.874 200.666 413.095 210.868 408.229C221.766 403.031 227.502 392.59 226.318 380.107C225.325 369.641 216.794 359.94 206.201 357.234ZM207.549 392.613C211.668 388.921 212.548 384.183 210.027 377.783C206.627 372.826 202.431 370.363 196.695 371.696C191.725 372.851 187.768 377.316 187.254 382.021C186.666 387.397 189.261 392.119 194.19 394.643C198.529 396.864 203.678 396.081 207.549 392.613Z" fill="#040404"/>
</svg>
