<svg width="396" height="512" viewBox="0 0 396 512" fill="none" xmlns="http://www.w3.org/2000/svg">
<path d="M15.1177 318.094C15.1177 360.259 15.3607 401.925 14.9516 443.585C14.8457 454.375 20.8374 463.604 34.9158 463.351C67.0652 462.772 99.2322 463.168 131.111 463.168C133.596 459.407 135.922 455.886 138.712 451.663C136.857 451.476 135.512 451.289 134.162 451.211C124.536 450.656 117.345 443.396 117.071 433.76C116.928 428.764 117.009 423.761 117.038 418.762C117.102 407.817 123.131 400.974 133.936 399.511C135.178 399.343 136.407 399.091 138.571 398.719C137.246 396.979 136.443 395.877 135.591 394.813C129.52 387.231 129.704 377.861 136.301 370.718C140.029 366.681 143.941 362.798 147.959 359.048C154.884 352.584 164.025 352.21 171.653 357.873C175.575 360.784 176.445 360.442 177.027 355.758C178.152 346.716 184.864 340.327 194.05 339.886C199.371 339.63 204.715 339.671 210.044 339.791C220.402 340.025 226.801 345.591 228.623 355.745C229.479 360.519 230.073 360.749 233.977 357.819C241.491 352.18 250.796 352.622 257.674 359.098C261.434 362.638 265.059 366.326 268.651 370.039C275.958 377.594 276.261 386.911 269.596 395.221C268.841 396.163 268.278 397.258 267.332 398.743C268.994 399.081 269.906 399.331 270.835 399.445C282.641 400.895 288.502 407.452 288.632 419.435C288.676 423.434 288.675 427.435 288.63 431.434C288.492 443.816 282.289 450.306 269.781 451.241C269.009 451.299 268.254 451.591 267.288 451.823C269.509 455.585 271.448 459.136 273.707 462.47C274.154 463.13 275.83 463.14 276.94 463.141C305.938 463.171 334.937 463.232 363.934 463.116C373.526 463.077 379.947 456.015 379.966 445.824C380.015 419.325 379.982 392.827 379.986 366.328C379.986 364.829 379.873 363.31 380.067 361.834C380.587 357.859 382.925 355.452 386.908 355.132C391.194 354.787 393.821 357.148 394.866 361.163C395.233 362.577 395.047 364.145 395.047 365.642C395.055 392.14 395.071 418.639 395.047 445.137C395.029 465.213 382.087 478.21 361.914 478.261C333.083 478.334 304.251 478.206 275.421 478.413C272.984 478.431 270.204 479.877 268.213 481.455C264.969 484.025 262.259 487.264 259.301 490.197C250.513 498.908 241.312 499.218 231.925 491.154C231.339 490.651 230.649 490.268 229.309 489.353C229.073 491.337 228.902 492.689 228.752 494.043C227.61 504.384 220.448 510.953 210.092 511.086C205.426 511.146 200.759 511.124 196.093 511.091C184.576 511.009 177.496 504.156 176.95 492.612C176.913 491.823 176.788 491.038 176.597 489.262C174.943 490.445 173.79 491.149 172.777 492.015C164.844 498.793 155.171 498.574 147.576 491.409C147.333 491.181 147.056 490.973 146.87 490.703C139.435 479.978 129.337 477.47 116.481 477.96C89.0223 479.006 61.4962 478.306 33.9979 478.271C12.7987 478.245 0.0512088 465.529 0.0504228 444.459C0.0452888 307.134 0.0748527 169.808 7.74845e-06 32.4834C-0.00646925 20.5869 4.04716 10.785 14.1458 4.45323C18.1334 1.95302 23.392 0.281436 28.0771 0.269396C120.904 0.0308624 213.732 0.152817 306.56 6.44672e-05C316.195 -0.0157905 324.394 2.89196 330.789 9.73804C348.19 28.3642 365.385 47.1862 382.419 66.1478C390.615 75.2707 394.415 86.3507 394.792 98.5871C394.93 103.084 395.04 107.583 395.041 112.082C395.056 182.911 395.054 253.74 395.045 324.569C395.045 326.065 395.195 327.632 394.815 329.042C393.786 332.856 391.137 335.104 387.178 334.904C383.273 334.707 380.708 332.405 380.094 328.417C379.843 326.786 379.986 325.091 379.986 323.425C379.983 255.262 379.983 187.1 379.983 118.937C379.983 117.135 379.983 115.332 379.983 112.973C378.238 112.973 376.802 112.973 375.367 112.973C358.368 112.973 341.369 112.988 324.37 112.969C303.204 112.945 290.256 99.9021 290.255 78.6026C290.254 59.1038 290.284 39.6049 290.3 20.1061C290.301 18.3015 290.3 16.497 290.3 14.1744C288.185 14.1744 286.402 14.1744 284.618 14.1744C201.29 14.1744 117.962 14.1738 34.6332 14.1751C21.1035 14.1753 15.1193 20.133 15.119 33.6162C15.1166 128.276 15.1177 222.935 15.1177 318.094ZM159.123 369.421C155.442 373.042 151.789 376.692 148.067 380.271C146.143 382.121 145.71 384.122 147.954 385.746C155.471 391.185 156.051 397.641 151.284 405.145C150.679 406.098 150.464 407.316 150.148 408.433C148.925 412.749 145.927 414.475 141.615 414.674C132.092 415.114 132.094 415.171 132.094 424.529C132.094 424.863 132.094 425.196 132.094 425.529C132.094 435.773 132.118 435.49 142.296 436.364C144.975 436.594 149.039 438.651 149.718 440.756C151.599 446.586 157.863 451.666 153.83 458.806C153.352 459.653 152.531 460.312 151.835 461.027C150.674 462.221 149.536 463.447 148.297 464.557C145.911 466.694 145.986 468.654 148.316 470.844C151.351 473.695 154.321 476.629 157.142 479.69C159.483 482.231 161.729 482.418 163.753 479.656C169.009 472.487 175.22 471.289 182.64 476.205C183.316 476.652 184.159 476.881 184.954 477.108C189.969 478.541 192.25 481.722 192.079 487.05C191.781 496.358 191.36 496.103 200.946 496.019C201.612 496.014 202.279 496.019 202.946 496.019C213.151 496.019 213.151 496.019 213.667 485.765C214.032 478.508 229.564 470.313 235.87 474.067C236.577 474.488 237.215 475.044 237.83 475.598C245.549 482.555 245.547 482.558 252.895 475.199C260.048 468.037 260.078 468.009 253.161 460.48C250.699 457.799 249.108 454.665 251.155 451.461C254.464 446.281 253.49 438.081 261.613 436.245C262.092 436.137 262.609 436.198 263.108 436.173C273.437 435.659 273.437 435.658 273.437 425.148C273.437 424.981 273.437 424.814 273.437 424.648C273.436 415.156 273.436 415.156 264.064 414.649C256.495 414.24 248.143 398.035 252.203 391.629C252.379 391.351 252.615 391.111 252.809 390.844C254.875 388 258.8 384.944 258.509 382.364C258.18 379.448 254.067 376.956 251.594 374.284C251.255 373.918 250.889 373.576 250.536 373.222C245.227 367.898 245.101 367.776 239.74 373.324C236.044 377.15 232.243 377.868 227.7 375.137C226.425 374.37 225.083 373.541 223.663 373.215C216.197 371.501 212.473 367.296 213.607 359.314C214.041 356.254 212.444 354.752 209.182 354.874C204.855 355.035 200.516 354.977 196.184 354.892C193.257 354.835 191.607 356.045 192.061 359.039C193.305 367.23 189.507 371.577 181.769 373.283C180.191 373.631 178.726 374.613 177.288 375.44C173.002 377.906 169.473 376.919 166.064 373.56C164.274 371.796 161.915 370.61 159.123 369.421ZM353.907 56.7374C343.525 45.464 333.138 34.1951 322.763 22.9151C318.23 17.9867 313.08 14.3841 305.726 14.7948C305.629 16.0314 305.466 17.1603 305.464 18.2895C305.425 38.7816 305.358 59.2739 305.401 79.766C305.426 91.4693 311.954 97.8203 323.825 97.8423C340.819 97.8738 357.812 97.8559 374.806 97.8404C376.247 97.8391 377.687 97.6972 379.344 97.6092C379.361 90.1497 377.147 83.7495 372.744 78.351C366.855 71.1323 360.528 64.2718 353.907 56.7374Z" fill="#020202"/>
<path d="M163.05 281.329C215.506 281.329 267.462 281.327 319.418 281.341C321.241 281.341 323.122 281.253 324.875 281.649C328.759 282.528 331.029 285.186 330.87 289.135C330.703 293.267 328.311 295.896 324.018 296.355C322.534 296.513 321.024 296.443 319.526 296.443C238.428 296.446 157.33 296.447 76.2326 296.44C74.5702 296.439 72.8785 296.52 71.2513 296.252C67.4867 295.634 65.3595 293.23 65.0772 289.493C64.7936 285.738 66.571 282.993 70.2138 281.924C72.0812 281.376 74.147 281.354 76.1235 281.352C104.932 281.319 133.741 281.329 163.05 281.329Z" fill="#184D98"/>
<path d="M237.051 251.022C214.064 251.022 191.578 251.028 169.091 251.01C167.434 251.009 165.699 251.124 164.137 250.692C160.315 249.633 158.135 246.883 158.422 242.954C158.702 239.107 160.949 236.498 165.036 236.03C166.519 235.861 168.03 235.911 169.528 235.911C219.665 235.906 269.802 235.906 319.939 235.91C321.271 235.91 322.611 235.87 323.933 235.997C328.243 236.413 330.666 239.025 330.86 243.145C331.057 247.346 328.552 249.971 324.484 250.864C323.048 251.179 321.499 251.016 320.002 251.017C292.518 251.024 265.035 251.022 237.051 251.022Z" fill="#030303"/>
<path d="M231.051 190.212C261.032 190.212 290.514 190.2 319.995 190.239C321.965 190.242 324.036 190.313 325.88 190.907C329.489 192.071 331.258 194.92 330.839 198.613C330.426 202.244 328.263 204.704 324.43 205.2C322.951 205.391 321.438 205.347 319.94 205.347C271.471 205.354 223.001 205.354 174.532 205.347C173.034 205.347 171.518 205.4 170.043 205.196C166.488 204.706 164.341 202.592 163.813 199.058C163.257 195.33 164.68 192.41 168.235 191.056C170.032 190.371 172.126 190.252 174.086 190.246C192.908 190.19 211.729 190.212 231.051 190.212Z" fill="#040404"/>
<path d="M306.051 144.836C312.047 144.84 317.546 144.74 323.039 144.882C327.677 145.001 330.851 148.06 330.949 152.153C331.045 156.213 327.937 159.445 323.387 159.916C322.068 160.052 320.725 159.975 319.392 159.975C271.257 159.977 223.121 159.979 174.985 159.965C173.16 159.964 171.251 160.1 169.527 159.633C165.5 158.543 163.309 155.779 163.761 151.509C164.184 147.509 166.587 145.239 170.64 144.919C172.297 144.788 173.969 144.839 175.634 144.839C218.939 144.835 262.245 144.836 306.051 144.836Z" fill="#184D98"/>
<path d="M114.05 98.2214C99.0758 98.2212 84.6013 98.2456 70.1268 98.2089C64.137 98.1937 60.9791 95.5914 60.9312 90.8165C60.883 86.0192 64.1253 83.1524 69.9371 83.1457C100.716 83.1101 131.495 83.1138 162.275 83.1416C168.011 83.1468 171.502 86.0458 171.559 90.6277C171.618 95.3155 168.258 98.1928 162.466 98.2072C146.494 98.2469 130.522 98.2212 114.05 98.2214Z" fill="#184D98"/>
<path d="M110.038 135.232C109.756 129.527 111.113 127.885 116.118 127.416C126.066 126.484 132.776 132.186 133.431 142.179C133.616 145.001 133.898 147.843 133.737 150.653C133.333 157.697 135.183 163.118 142.051 166.665C146.613 169.021 146.418 174.016 141.799 176.52C135.726 179.813 133.469 184.556 133.787 191.207C133.977 195.176 133.572 199.186 133.255 203.164C132.358 214.391 119.566 217.327 112.957 214.83C111.465 214.267 109.804 211.482 109.969 209.902C110.16 208.076 112.119 205.155 113.598 204.966C119.783 204.176 120.444 200.248 120.278 195.365C120.21 193.374 120.329 191.372 120.462 189.381C121.13 179.355 121.869 177.865 129.422 171.291C122.892 167.802 120.773 161.958 120.619 155.047C120.546 151.723 120.126 148.402 120.156 145.082C120.189 141.393 119.014 139.158 115.002 138.499C113.263 138.213 111.742 136.599 110.038 135.232Z" fill="#184D98"/>
<path d="M78.5078 171.852C84.5733 175.416 86.7307 180.77 87.0211 187.112C87.166 190.273 87.1236 193.443 87.2409 196.607C87.3919 200.678 88.06 204.179 93.3522 204.605C96.6424 204.871 98.7646 207.498 97.7739 210.55C97.1275 212.541 94.5802 214.848 92.5167 215.287C82.395 217.444 74.3756 210.75 74.0864 200.411C74.0025 197.413 73.8709 194.41 73.9523 191.414C74.1285 184.923 72.2044 179.886 65.965 176.63C61.2829 174.186 61.1818 168.751 65.8629 166.418C72.6874 163.017 74.1682 157.508 73.9969 150.762C73.9124 147.434 73.9159 144.083 74.1916 140.769C74.9924 131.141 85.3369 124.535 94.3112 128.177C95.9654 128.849 97.7997 131.592 97.7253 133.3C97.6507 135.011 95.421 137.901 93.9106 138.054C87.8249 138.671 87.3962 142.703 87.2621 147.247C87.2031 149.246 87.0623 151.246 87.0966 153.244C87.2273 160.861 85.0692 167.351 78.5078 171.852Z" fill="#184D98"/>
<path d="M132.183 250.832C112.453 250.956 93.1438 251.024 73.8346 250.999C68.4134 250.992 65.1246 248.09 65.0258 243.582C64.9225 238.868 68.2337 235.942 74.0198 235.926C92.4978 235.877 110.976 235.939 129.454 235.889C133.792 235.877 137.065 237.41 137.981 241.854C138.887 246.248 136.759 249.206 132.183 250.832Z" fill="#030303"/>
<path d="M98.5217 51.487C105.05 52.3217 107.798 54.9869 107.436 59.7061C107.092 64.1787 103.96 66.6427 98.234 66.6839C88.7596 66.7522 79.2836 66.7723 69.8097 66.6763C63.9241 66.6167 60.8138 63.7838 60.9104 58.9225C61.0021 54.3057 64.051 51.5809 69.6575 51.5169C79.1312 51.4088 88.607 51.4863 98.5217 51.487Z" fill="#0D0D0D"/>
<path d="M170.429 64.575C167.963 65.4642 165.784 66.5698 163.583 66.6169C154.261 66.8166 144.931 66.7517 135.604 66.6832C129.874 66.6412 126.332 63.7015 126.274 59.1752C126.217 54.6448 129.778 51.5578 135.445 51.5087C144.938 51.4265 154.434 51.3727 163.925 51.5227C172.025 51.6507 174.979 57.3738 170.429 64.575Z" fill="#0D0D0D"/>
<path d="M225.508 395.593C238.453 406.312 243.129 419.798 238.78 435.48C234.546 450.751 223.837 459.791 208.048 462.369C188.955 465.487 169.817 452.12 166.117 433.189C162.212 413.206 174.248 393.832 193.54 389.151C205.034 386.361 215.605 388.515 225.508 395.593ZM213.327 445.106C222.856 439.076 227.02 429.831 224.56 420.166C222.104 410.521 213.852 403.605 204.215 403.116C194.845 402.641 186.264 407.762 182.441 416.109C178.629 424.432 180.422 434.519 186.878 441.07C193.577 447.868 202.901 449.443 213.327 445.106Z" fill="#184D98"/>
<mask id="mask0_838_619" style="mask-type:alpha" maskUnits="userSpaceOnUse" x="0" y="0" width="396" height="512">
<path d="M15.1177 318.094C15.1177 360.259 15.3607 401.925 14.9516 443.585C14.8457 454.375 20.8374 463.604 34.9158 463.351C67.0652 462.772 99.2322 463.168 131.111 463.168C133.596 459.407 135.922 455.886 138.712 451.663C136.857 451.476 135.512 451.289 134.162 451.211C124.536 450.656 117.345 443.396 117.071 433.76C116.928 428.764 117.009 423.761 117.038 418.762C117.102 407.817 123.131 400.974 133.936 399.511C135.178 399.343 136.407 399.091 138.571 398.719C137.246 396.979 136.443 395.877 135.591 394.813C129.52 387.231 129.704 377.861 136.301 370.718C140.029 366.681 143.941 362.798 147.959 359.048C154.884 352.584 164.025 352.21 171.653 357.873C175.575 360.784 176.445 360.442 177.027 355.758C178.152 346.716 184.864 340.327 194.05 339.886C199.371 339.63 204.715 339.671 210.044 339.791C220.402 340.025 226.801 345.591 228.623 355.745C229.479 360.519 230.073 360.749 233.977 357.819C241.491 352.18 250.796 352.622 257.674 359.098C261.434 362.638 265.059 366.326 268.651 370.039C275.958 377.594 276.261 386.911 269.596 395.221C268.841 396.163 268.278 397.258 267.332 398.743C268.994 399.081 269.906 399.331 270.835 399.445C282.641 400.895 288.502 407.452 288.632 419.435C288.676 423.434 288.675 427.435 288.63 431.434C288.492 443.816 282.289 450.306 269.781 451.241C269.009 451.299 268.254 451.591 267.288 451.823C269.509 455.585 271.448 459.136 273.707 462.47C274.154 463.13 275.83 463.14 276.94 463.141C305.938 463.171 334.937 463.232 363.934 463.116C373.526 463.077 379.947 456.015 379.966 445.824C380.015 419.325 379.982 392.827 379.986 366.328C379.986 364.829 379.873 363.31 380.067 361.834C380.587 357.859 382.925 355.452 386.908 355.132C391.194 354.787 393.821 357.148 394.866 361.163C395.233 362.577 395.047 364.145 395.047 365.642C395.055 392.14 395.071 418.639 395.047 445.137C395.029 465.213 382.087 478.21 361.914 478.261C333.083 478.334 304.251 478.206 275.421 478.413C272.984 478.431 270.204 479.877 268.213 481.455C264.969 484.025 262.259 487.264 259.301 490.197C250.513 498.908 241.312 499.218 231.925 491.154C231.339 490.651 230.649 490.268 229.309 489.353C229.073 491.337 228.902 492.689 228.752 494.043C227.61 504.384 220.448 510.953 210.092 511.086C205.426 511.146 200.759 511.124 196.093 511.091C184.576 511.009 177.496 504.156 176.95 492.612C176.913 491.823 176.788 491.038 176.597 489.262C174.943 490.445 173.79 491.149 172.777 492.015C164.844 498.793 155.171 498.574 147.576 491.409C147.333 491.181 147.056 490.973 146.87 490.703C139.435 479.978 129.337 477.47 116.481 477.96C89.0223 479.006 61.4962 478.306 33.9979 478.271C12.7987 478.245 0.0512088 465.529 0.0504228 444.459C0.0452888 307.134 0.0748527 169.808 7.74845e-06 32.4834C-0.00646925 20.5869 4.04716 10.785 14.1458 4.45323C18.1334 1.95302 23.392 0.281436 28.0771 0.269396C120.904 0.0308624 213.732 0.152817 306.56 6.44672e-05C316.195 -0.0157905 324.394 2.89196 330.789 9.73804C348.19 28.3642 365.385 47.1862 382.419 66.1478C390.615 75.2707 394.415 86.3507 394.792 98.5871C394.93 103.084 395.04 107.583 395.041 112.082C395.056 182.911 395.054 253.74 395.045 324.569C395.045 326.065 395.195 327.632 394.815 329.042C393.786 332.856 391.137 335.104 387.178 334.904C383.273 334.707 380.708 332.405 380.094 328.417C379.843 326.786 379.986 325.091 379.986 323.425C379.983 255.262 379.983 187.1 379.983 118.937C379.983 117.135 379.983 115.332 379.983 112.973C378.238 112.973 376.802 112.973 375.367 112.973C358.368 112.973 341.369 112.988 324.37 112.969C303.204 112.945 290.256 99.9021 290.255 78.6026C290.254 59.1038 290.284 39.6049 290.3 20.1061C290.301 18.3015 290.3 16.497 290.3 14.1744C288.185 14.1744 286.402 14.1744 284.618 14.1744C201.29 14.1744 117.962 14.1738 34.6332 14.1751C21.1035 14.1753 15.1193 20.133 15.119 33.6162C15.1166 128.276 15.1177 222.935 15.1177 318.094ZM159.123 369.421C155.442 373.042 151.789 376.692 148.067 380.271C146.143 382.121 145.71 384.122 147.954 385.746C155.471 391.185 156.051 397.641 151.284 405.145C150.679 406.098 150.464 407.316 150.148 408.433C148.925 412.749 145.927 414.475 141.615 414.674C132.092 415.114 132.094 415.171 132.094 424.529C132.094 424.863 132.094 425.196 132.094 425.529C132.094 435.773 132.118 435.49 142.296 436.364C144.975 436.594 149.039 438.651 149.718 440.756C151.599 446.586 157.863 451.666 153.83 458.806C153.352 459.653 152.531 460.312 151.835 461.027C150.674 462.221 149.536 463.447 148.297 464.557C145.911 466.694 145.986 468.654 148.316 470.844C151.351 473.695 154.321 476.629 157.142 479.69C159.483 482.231 161.729 482.418 163.753 479.656C169.009 472.487 175.22 471.289 182.64 476.205C183.316 476.652 184.159 476.881 184.954 477.108C189.969 478.541 192.25 481.722 192.079 487.05C191.781 496.358 191.36 496.103 200.946 496.019C201.612 496.014 202.279 496.019 202.946 496.019C213.151 496.019 213.151 496.019 213.667 485.765C214.032 478.508 229.564 470.313 235.87 474.067C236.577 474.488 237.215 475.044 237.83 475.598C245.549 482.555 245.547 482.558 252.895 475.199C260.048 468.037 260.078 468.009 253.161 460.48C250.699 457.799 249.108 454.665 251.155 451.461C254.464 446.281 253.49 438.081 261.613 436.245C262.092 436.137 262.609 436.198 263.108 436.173C273.437 435.659 273.437 435.658 273.437 425.148C273.437 424.981 273.437 424.814 273.437 424.648C273.436 415.156 273.436 415.156 264.064 414.649C256.495 414.24 248.143 398.035 252.203 391.629C252.379 391.351 252.615 391.111 252.809 390.844C254.875 388 258.8 384.944 258.509 382.364C258.18 379.448 254.067 376.956 251.594 374.284C251.255 373.918 250.889 373.576 250.536 373.222C245.227 367.898 245.101 367.776 239.74 373.324C236.044 377.15 232.243 377.868 227.7 375.137C226.425 374.37 225.083 373.541 223.663 373.215C216.197 371.501 212.473 367.296 213.607 359.314C214.041 356.254 212.444 354.752 209.182 354.874C204.855 355.035 200.516 354.977 196.184 354.892C193.257 354.835 191.607 356.045 192.061 359.039C193.305 367.23 189.507 371.577 181.769 373.283C180.191 373.631 178.726 374.613 177.288 375.44C173.002 377.906 169.473 376.919 166.064 373.56C164.274 371.796 161.915 370.61 159.123 369.421ZM353.907 56.7374C343.525 45.464 333.138 34.1951 322.763 22.9151C318.23 17.9867 313.08 14.3841 305.726 14.7948C305.629 16.0314 305.466 17.1603 305.464 18.2895C305.425 38.7816 305.358 59.2739 305.401 79.766C305.426 91.4693 311.954 97.8203 323.825 97.8423C340.819 97.8738 357.812 97.8559 374.806 97.8404C376.247 97.8391 377.687 97.6972 379.344 97.6092C379.361 90.1497 377.147 83.7495 372.744 78.351C366.855 71.1323 360.528 64.2718 353.907 56.7374Z" fill="#020202"/>
</mask>
<g mask="url(#mask0_838_619)">
<circle cx="202.551" cy="425.594" r="90.5" fill="#184D98"/>
</g>
</svg>
