<svg width="188" height="248" viewBox="0 0 188 248" fill="none" xmlns="http://www.w3.org/2000/svg">
<path d="M88.8003 2.86181C88.6844 2.38225 88.4747 1.93036 88.1833 1.53219C87.892 1.13402 87.5247 0.797436 87.1027 0.541819C86.6807 0.286201 86.2123 0.116611 85.7245 0.0428107C85.2367 -0.0309892 84.739 -0.0075427 84.2603 0.111811C65.0203 3.56181 48.8303 20.9818 46.6403 40.4318C45.9303 46.8218 46.3703 53.2118 46.2103 59.5918C46.235 60.1621 46.1879 60.7332 46.0703 61.2918C48.5303 58.8318 50.4203 57.0918 53.5303 56.0818C53.3216 55.7519 53.2399 55.3575 53.3003 54.9718C53.4003 51.4218 53.1903 47.8518 53.4403 44.3218C53.7296 38.7108 55.2054 33.2249 57.7703 28.2261C60.3352 23.2272 63.931 18.8291 68.3203 15.3218C73.3557 11.2321 79.2986 8.40984 85.6503 7.09182C88.0303 6.55182 89.2003 4.77181 88.8003 2.86181Z" fill="#184D98"/>
<path d="M141.131 57.7719C141.032 56.7485 140.998 55.7197 141.031 54.6919C141.111 52.1719 141.031 49.6919 141.031 47.1119C141.127 41.1076 140.036 35.1435 137.821 29.5619C131.951 15.0519 121.451 5.56193 106.311 0.941928C105.061 0.641928 104.001 0.321926 102.921 0.111926C101.991 -0.124741 101.006 0.0171994 100.181 0.506564C99.3559 0.995929 98.7589 1.79271 98.5209 2.72193C98.2927 3.61294 98.4265 4.55806 98.8931 5.3507C99.3597 6.14333 100.121 6.71902 101.011 6.95192C101.751 7.21192 102.531 7.36193 103.291 7.55193C112.099 9.70792 119.912 14.7925 125.451 21.9719C133.381 31.9719 134.651 43.5619 133.711 55.8719C135.942 57.2247 138.524 57.8859 141.131 57.7719Z" fill="#184D98"/>
<path fill-rule="evenodd" clip-rule="evenodd" d="M183.66 203.552C183.221 203.426 182.84 203.145 182.592 202.761C182.344 202.376 182.244 201.915 182.311 201.462C182.36 197.752 182.391 194.042 182.311 190.332C182.24 187.552 180.18 185.932 177.789 186.662C175.789 187.272 175.24 188.882 175.219 190.732V200.442C175.219 200.932 175.481 201.562 174.789 201.882C173.459 202.492 169.141 200.882 168.459 199.532C167.922 198.455 167.399 197.368 166.875 196.282C165.723 193.886 164.57 191.49 163.27 189.192C160.891 184.962 155.709 184.902 153.02 188.922C152.721 189.362 152.66 190.062 151.879 190.202C151.879 186.472 151.94 182.842 151.879 179.202C151.811 176.132 149.26 174.362 146.799 175.582C145.17 176.402 144.799 177.822 144.799 179.532V199.662C144.799 201.192 144.36 201.662 142.86 201.812C141.158 201.974 139.473 202.245 137.789 202.515C136.67 202.695 135.551 202.874 134.43 203.022C131.619 203.392 129.84 204.622 128.99 207.252C128.141 209.882 129.25 211.992 131.11 213.822C131.949 214.647 132.779 215.487 133.654 216.373L134.811 217.542H117.311C118.969 215.882 120.43 214.542 121.719 213.102C125.07 209.312 123.33 204.102 118.391 203.152C116.385 202.726 114.354 202.429 112.311 202.262C110.891 202.172 110.44 201.512 110.24 200.262C108.641 190.542 107.17 180.792 105.24 171.132C104.899 169.741 104.897 168.288 105.235 166.896C105.572 165.503 106.238 164.212 107.18 163.132C107.779 162.392 108.049 162.132 108.981 162.752C114.039 165.842 117.391 164.832 120.039 159.542C122.383 154.84 124.746 150.142 127.086 145.437L128.701 142.178L130.76 137.992C131.35 136.792 131.811 136.422 133.17 136.992C136.994 138.512 140.826 140.001 144.66 141.49C146.791 142.318 148.922 143.146 151.051 143.98C153.588 144.973 156.125 145.974 158.66 146.992C162.463 148.567 165.844 151.013 168.529 154.132C173.27 159.382 175.19 165.602 175.17 172.572C175.17 175.422 176.539 176.962 178.731 176.972C180.92 176.982 182.231 175.422 182.289 172.622C182.512 165.592 180.528 158.668 176.615 152.822C172.705 146.976 167.063 142.5 160.481 140.022C148.481 135.355 136.449 130.689 124.391 126.022C123.58 125.707 122.694 125.449 121.805 125.19C119.643 124.56 117.475 123.928 116.391 122.482C115.393 121.151 115.572 119.042 115.758 116.879L115.826 116.047C115.85 115.725 115.871 115.404 115.887 115.086C115.912 114.538 115.916 113.999 115.879 113.482C115.822 112.868 115.93 112.251 116.19 111.692C116.303 111.448 116.444 111.22 116.608 111.01C116.82 110.739 117.074 110.5 117.36 110.302C123.612 105.121 127.795 97.8677 129.151 89.8621C129.459 88.012 130.369 87.5821 132 87.262C142.51 85.262 148.25 73.9219 143.199 64.522C142.065 62.4344 141.363 60.138 141.141 57.772C138.539 57.8819 135.965 57.221 133.74 55.8721L133.737 55.9656L133.74 56.1622C133.602 56.0704 133.449 56.0062 133.289 55.9612L133.115 55.9205L132.928 55.8904L132.668 55.8667C132.485 55.8555 132.297 55.8543 132.11 55.8531C131.121 55.8467 130.162 55.8404 129.949 54.4021C129.629 52.615 128.754 50.9744 127.449 49.712C124.719 46.712 122 43.782 119.27 40.8321C115.44 36.6919 112.901 36.292 108.1 39.1919C103.266 42.1475 98.133 44.5875 92.7892 46.472C83.8322 49.6021 74.3576 50.9805 64.8791 50.532C62.1193 50.4021 59.7092 51.1622 58.4904 53.6421C58.3283 53.9983 58.1193 54.3291 57.8693 54.6265C57.6349 54.9075 57.3654 55.1585 57.0627 55.3726C56.6955 55.6343 56.2892 55.8355 55.8615 55.9703C55.6916 56.024 55.5178 56.0672 55.342 56.0997C55.217 56.1229 55.0881 56.1404 54.9592 56.1521C54.2404 56.3121 53.799 56.3521 53.5607 56.0921C50.4494 57.0921 48.5607 58.8421 46.0998 61.302C46.008 61.67 45.8342 62.0118 45.59 62.302C38.5099 70.8121 43.2189 85.3821 55.9299 87.4319C56.2053 87.4346 56.4748 87.4895 56.7267 87.5916L56.9006 87.6707L57.0529 87.7571C57.1408 87.8121 57.2248 87.8736 57.3049 87.9415L57.4514 88.0748C57.6721 88.2979 57.84 88.564 57.9474 88.8536C57.9924 88.9734 58.0256 89.0972 58.049 89.2234C58.0705 89.3475 58.0803 89.4742 58.0803 89.6021C59.1994 96.6021 61.9103 103.082 67.2502 107.602C71.6506 111.282 72.7092 115.272 72.2502 120.472C72.0998 122.252 71.6096 123.042 69.9904 123.662L66.6877 124.922L59.4299 127.671L59.1252 127.785C48.4006 131.838 37.6721 135.892 27.1096 140.332C14.2307 145.652 6.58026 155.492 5.95917 169.772C5.66815 176.833 5.70721 183.904 5.74628 190.974C5.75604 192.511 5.76581 194.048 5.76971 195.585L5.77362 199.085L5.76971 201.032C5.76971 202.032 5.98065 202.872 4.61932 203.472C0.0490115 205.472 -0.679504 209.992 2.86932 213.592L3.11542 213.843L3.19745 213.925L3.85956 214.594C4.64471 215.388 5.43182 216.181 6.2287 216.966C7.57245 218.291 8.93768 219.593 10.3498 220.842C10.7189 221.136 11.0256 221.497 11.256 221.903C11.383 222.129 11.4885 222.369 11.5666 222.619C11.7853 223.319 11.7892 224.069 11.5803 224.772C11.0392 227.452 10.5764 230.145 10.1135 232.841L9.77948 234.772C9.34003 237.362 9.77948 239.692 12.0392 241.322C14.299 242.952 16.5998 242.712 18.9396 241.462L20.1682 240.808L21.1721 240.28L22.4885 239.592C24.4455 238.572 26.4025 237.552 28.3205 236.462C28.8361 236.12 29.4416 235.938 30.0607 235.938C30.6779 235.938 31.2834 236.12 31.799 236.462C32.9533 237.108 34.1193 237.734 35.2892 238.352L37.2619 239.387L39.1174 240.36C39.8068 240.724 40.4943 241.09 41.1799 241.462C43.5295 242.722 45.8791 242.902 48.0705 241.242C50.2599 239.582 50.7697 237.312 50.2502 234.682L50.1506 234.153L49.9767 233.212C49.8693 232.607 49.7658 231.99 49.6623 231.367L49.6291 231.175C49.4631 230.181 49.2932 229.174 49.1115 228.177C49.0217 227.683 48.9299 227.192 48.8322 226.707L48.7502 226.312C48.5002 225.102 48.7502 224.812 49.9689 224.822C57.9689 224.862 65.9435 224.862 73.8908 224.822C75.049 224.822 75.5803 224.942 75.2599 226.372C74.9826 227.599 74.7599 228.837 74.5529 230.078L74.3224 231.494L74.2814 231.74L74.1642 232.471C74.051 233.155 73.9357 233.839 73.8107 234.522C73.3107 237.242 73.7307 239.592 76.0392 241.292C78.3498 242.992 80.59 242.692 82.9299 241.432C84.1135 240.794 85.3068 240.172 86.5002 239.551C88.4494 238.534 90.4006 237.518 92.3107 236.432C92.4728 236.325 92.6428 236.233 92.8205 236.158C93.2072 235.993 93.6252 235.908 94.049 235.908C94.6682 235.908 95.2736 236.09 95.7892 236.432C97.4396 237.362 99.1291 238.246 100.82 239.128L101.09 239.268C102.385 239.943 103.68 240.618 104.959 241.312C107.369 242.602 109.76 242.922 112.061 241.192C114.36 239.462 114.719 237.062 114.219 234.392C113.719 231.722 113.36 228.942 112.779 226.242C112.52 225.012 112.86 224.772 114 224.772H138.16C138.807 224.772 139.139 224.892 139.283 225.138C139.436 225.396 139.383 225.791 139.27 226.332C138.731 229.032 138.391 231.782 137.84 234.482C137.289 237.182 137.76 239.542 140.039 241.242C142.32 242.942 144.59 242.642 146.93 241.382C148.197 240.702 149.473 240.035 150.748 239.368C152.682 238.357 154.615 237.346 156.52 236.292C156.6 236.24 156.684 236.192 156.768 236.149L156.949 236.064L157.037 236.028C157.281 235.933 157.537 235.873 157.799 235.85C157.881 235.843 157.965 235.839 158.049 235.839C158.594 235.839 159.125 235.996 159.58 236.292C160.559 236.84 161.551 237.37 162.549 237.894L164.428 238.873L166.389 239.895C167.18 240.311 167.969 240.731 168.75 241.162C171.219 242.532 173.651 242.962 176.061 241.162C178.469 239.362 178.67 236.852 178.17 234.162C177.92 232.795 177.69 231.423 177.459 230.052C177.129 228.082 176.799 226.113 176.41 224.162C176.326 223.854 176.293 223.535 176.311 223.22C176.326 222.964 176.373 222.71 176.453 222.465C176.629 221.915 176.963 221.428 177.41 221.062C180.17 218.482 182.93 215.872 185.539 213.122C188.76 209.882 187.85 205.402 183.66 203.552ZM45.2795 201.772C43.4787 201.872 43.3596 200.942 43.3693 199.662V179.532C43.3693 177.722 42.8791 176.242 41.1193 175.532C38.7189 174.532 36.3088 176.292 36.2502 179.242C36.1701 182.872 36.2502 186.502 36.2502 190.242C36.0764 190.21 35.9357 190.15 35.8224 190.072C35.7209 190.001 35.6389 189.916 35.5705 189.821C35.5099 189.739 35.4592 189.649 35.4142 189.558L35.3185 189.359C35.256 189.225 35.1955 189.095 35.1193 188.982C32.4396 184.982 27.2385 184.982 24.8693 189.212C23.881 190.971 22.9748 192.78 22.0861 194.601L21.2502 196.325C20.7307 197.4 20.2111 198.475 19.6799 199.542C18.9885 200.922 14.799 202.492 13.3693 201.932C12.8889 201.746 12.8986 201.386 12.9084 201.023V201.002C12.9982 197.013 12.9064 193.016 12.8146 189.02C12.6408 181.484 12.467 173.951 13.5197 166.482C14.8185 157.092 20.799 150.682 29.34 147.012C32.5783 145.615 35.8557 144.305 39.1486 143.029L41.799 142.009L45.4318 140.626L45.4494 140.62L45.4787 140.608C48.5959 139.424 51.7131 138.24 54.8088 137.012C55.3107 136.812 55.6935 136.722 56.008 136.756C56.1096 136.767 56.2033 136.791 56.2932 136.829C56.6584 136.983 56.9338 137.366 57.2385 138.012C58.6174 140.836 60.0139 143.653 61.4201 146.466L64.2717 152.153L67.4494 158.492C70.8596 165.322 73.5588 166.122 79.9201 162.342C83.0803 165.062 83.4084 168.342 82.6291 172.342C81.1193 180.053 79.8693 187.828 78.6213 195.595L77.8986 200.062C77.7873 200.743 77.6135 201.256 77.3205 201.626C77.0978 201.907 76.8068 202.105 76.4221 202.231C76.1232 202.329 75.7697 202.385 75.3498 202.402C73.4592 202.533 71.5842 202.814 69.7385 203.242C64.7385 204.242 63.0099 209.372 66.34 213.152C67.2482 214.182 68.2658 215.114 69.4064 216.158L70.2033 216.892C70.4885 217.155 70.7814 217.428 71.0803 217.712H53.2892L57.2892 213.712C59.0685 211.912 60.049 209.862 59.1896 207.302C58.8381 206.162 58.1506 205.155 57.215 204.416C56.2775 203.677 55.1389 203.239 53.9494 203.162C51.0998 202.682 48.299 202.222 45.2795 201.772ZM122.569 55.1023L122.656 55.3179L122.678 55.3843L122.733 55.5672C122.768 55.7041 122.793 55.8436 122.807 55.9844C122.815 56.0665 122.82 56.1492 122.82 56.232C122.727 60.2483 122.76 64.2647 122.793 68.294V68.3584C122.846 74.6714 122.899 81.0159 122.461 87.4419C119.27 103.132 107.612 112.342 91.9103 111.782C77.4611 111.242 65.1603 99.1919 64.6916 84.7818C64.5256 79.5799 64.5392 74.4004 64.5529 69.2249C64.5588 67.521 64.5627 65.8177 64.5607 64.1141C64.5588 62.4871 64.551 60.8599 64.5314 59.232C64.5236 58.9688 64.5529 58.7061 64.6213 58.452C64.8303 57.6719 65.4299 57.6719 66.3615 57.6719C80.2736 58.0364 94.0471 54.8201 106.362 48.3318C108.1 47.4119 109.83 46.472 111.481 45.4119C112.481 44.7618 113.131 44.6519 114.02 45.6519C116.012 47.9087 118.072 50.1053 120.125 52.2977L121.881 54.1719C122.172 54.4305 122.406 54.7474 122.569 55.1023ZM21.0412 208.002C22.0236 207.737 22.9318 207.244 23.6896 206.563C24.4474 205.882 25.0334 205.032 25.4006 204.082L25.9377 202.977L26.6603 201.514L27.5842 199.661L28.6603 197.504L29.1115 196.595C29.4162 195.979 29.7228 195.352 30.0314 194.712C30.5041 195.646 30.9748 196.55 31.4396 197.436L31.5392 197.631C31.9943 198.505 32.4416 199.362 32.8732 200.212C33.5217 201.485 34.1369 202.743 34.7014 204.022C35.0392 204.862 35.5373 205.624 36.1623 206.269L36.3361 206.443L36.4904 206.588C36.6994 206.777 36.9201 206.953 37.1525 207.117C38.2502 207.892 39.549 208.335 40.8908 208.392C43.1467 208.661 45.3967 208.999 47.6408 209.337L50.4299 209.752C48.09 212.222 45.9103 214.692 43.5412 216.952C43.4377 217.041 43.3361 217.132 43.2385 217.226C43.1252 217.336 43.0158 217.45 42.9084 217.567C42.715 217.78 42.5334 218.004 42.3654 218.237C42.2053 218.46 42.0588 218.69 41.924 218.929C41.8185 219.118 41.7209 219.313 41.631 219.511C41.508 219.784 41.4006 220.066 41.3107 220.355C41.1076 221.015 40.9982 221.698 40.9846 222.382C40.9787 222.639 40.9865 222.896 41.008 223.152C41.0451 223.579 41.1193 224.004 41.2307 224.422C41.4826 225.606 41.7014 226.798 41.9084 228.014C42.2482 230.023 42.5568 232.096 42.9299 234.302C39.7404 232.642 36.7814 231.222 33.9299 229.592C32.7697 228.838 31.4142 228.437 30.0314 228.437C29.5998 228.437 29.1701 228.476 28.7482 228.552C28.4982 228.598 28.2502 228.657 28.006 228.729C27.3459 228.923 26.7131 229.213 26.131 229.592C23.3498 231.202 20.4514 232.592 17.131 234.302L17.4846 232.152L17.7189 230.691L17.7248 230.652C17.9357 229.338 18.1408 228.059 18.3576 226.798C18.5295 225.804 18.7072 224.821 18.9006 223.842C19.1623 222.686 19.1154 221.481 18.7639 220.349C18.6096 219.855 18.4006 219.382 18.1408 218.939C18.0803 218.834 18.0158 218.731 17.9474 218.63L17.7541 218.349L17.6232 218.174L17.4748 217.993C17.3752 217.875 17.2717 217.759 17.1623 217.647L17.049 217.534L16.9006 217.392C15.6193 216.058 14.3674 214.699 13.1291 213.335L9.90057 209.762L21.0412 208.002ZM146.834 233.48L146.92 233.432L148.145 232.803L149.346 232.198C149.953 231.894 150.551 231.595 151.141 231.291C151.973 230.863 152.785 230.428 153.58 229.962C154.328 229.437 155.154 229.05 156.026 228.811C156.701 228.625 157.403 228.53 158.112 228.53C159.733 228.53 161.315 229.03 162.641 229.962C163.242 230.329 163.856 230.679 164.481 231.021C165.166 231.395 165.865 231.758 166.58 232.121C167.979 232.832 169.434 233.543 170.951 234.332C170.768 233.22 170.608 232.151 170.453 231.113L170.178 229.301L169.973 228.021C169.778 226.851 169.561 225.711 169.291 224.582C168.522 221.342 169.541 218.962 171.83 216.752L172.459 216.135C172.754 215.84 173.045 215.542 173.334 215.241C173.699 214.86 174.061 214.475 174.418 214.087L175.692 212.687C176.572 211.708 177.449 210.722 178.35 209.752L175.799 209.38C173.531 209.046 171.213 208.705 168.891 208.422C167.549 208.346 166.254 207.893 165.158 207.114C164.807 206.865 164.481 206.586 164.182 206.28C164.041 206.136 163.906 205.986 163.778 205.831C163.678 205.709 163.582 205.584 163.49 205.456L163.381 205.3L163.262 205.12C163.041 204.773 162.85 204.406 162.692 204.022L162.418 203.418L161.99 202.502L161.529 201.543L160.949 200.369C160.506 199.484 160.051 198.591 159.582 197.675C159.096 196.722 158.598 195.746 158.09 194.732C157.637 195.644 157.194 196.525 156.76 197.385C155.654 199.578 154.619 201.634 153.67 203.732C153.117 205.085 152.186 206.25 150.987 207.086C149.787 207.921 148.371 208.392 146.91 208.442C144.711 208.669 142.531 209.017 140.401 209.357C139.528 209.496 138.664 209.634 137.811 209.762L139.289 211.377C140.317 212.5 141.332 213.612 142.363 214.702C143.166 215.551 143.979 216.387 144.811 217.202L144.969 217.349L145.16 217.54L145.264 217.65C145.352 217.745 145.438 217.843 145.52 217.943C145.633 218.081 145.742 218.223 145.846 218.369L145.959 218.535L146.061 218.691C146.383 219.205 146.639 219.76 146.822 220.344C147.08 221.169 147.184 222.03 147.133 222.886C147.117 223.16 147.084 223.434 147.037 223.705C147.016 223.828 146.99 223.95 146.961 224.072C146.729 225.278 146.526 226.489 146.322 227.7L146.121 228.893L145.873 230.309C145.731 231.098 145.578 231.887 145.41 232.672C145.332 233.033 145.299 233.307 145.305 233.509C145.315 233.891 145.461 234.015 145.703 233.989C145.977 233.959 146.373 233.737 146.834 233.48ZM81.4748 234.161L81.3635 234.221L81.1896 234.312C81.799 230.662 82.2502 227.312 82.9299 224.112C83.2326 222.884 83.1974 221.597 82.8322 220.387C82.467 219.177 81.7814 218.087 80.8498 217.232C78.4689 214.842 76.2307 212.312 73.8498 209.752C74.6974 209.625 75.5607 209.486 76.4338 209.345C78.5217 209.008 80.6779 208.66 82.8498 208.442C84.3127 208.389 85.7287 207.915 86.9279 207.076C88.1271 206.236 89.0588 205.068 89.6096 203.712C90.9201 200.802 92.4103 197.972 94.0295 194.712C94.5099 195.683 94.9826 196.613 95.4416 197.518C96.4826 199.569 97.4592 201.492 98.3205 203.462C98.8693 204.901 99.8322 206.145 101.09 207.035C102.346 207.926 103.84 208.422 105.379 208.462C108.379 208.722 111.379 209.322 114.25 209.752C113.528 210.528 112.819 211.306 112.112 212.081C110.578 213.764 109.061 215.43 107.459 217.012C106.444 217.892 105.694 219.037 105.293 220.319C104.893 221.602 104.856 222.971 105.19 224.272C105.42 225.31 105.619 226.355 105.805 227.422C106.01 228.594 106.197 229.792 106.391 231.033L106.42 231.232L106.633 232.568L106.91 234.272C104.506 233.175 102.17 231.939 99.9103 230.572C95.9103 227.842 92.049 227.782 88.1193 230.622C87.2814 231.164 86.4064 231.645 85.5002 232.062C84.1857 232.734 83.008 233.353 81.5158 234.14L81.4748 234.161ZM100.858 133.665L106.58 126.612C109.014 124.508 108.914 121.996 108.811 119.409L108.783 118.729L108.768 117.986L108.77 117.506C108.772 117.344 108.778 117.181 108.787 117.018C108.807 116.645 108.842 116.273 108.901 115.902C105.123 117.544 101.104 118.557 97.0002 118.902C91.5764 119.338 86.1213 118.612 81.0002 116.772L80.756 116.668C80.2111 116.431 79.4709 116.109 79.4709 116.772C79.4748 117.062 79.465 117.356 79.4455 117.653C79.4123 118.147 79.3557 118.648 79.299 119.15C79.0764 121.117 78.8498 123.104 80.1193 124.772C84.2795 130.192 88.7307 135.402 92.9807 140.772C93.9103 141.942 94.3693 141.712 95.1994 140.712C97.0685 138.357 98.9533 136.017 100.858 133.665ZM120.797 142.103C118.59 146.51 116.418 150.846 114.301 155.212C113.631 156.602 113.211 157.132 111.692 155.962C108 153.142 104.17 150.492 100.33 147.862C99.3303 147.192 99.3303 146.862 100.061 145.932C102.166 143.365 104.266 140.791 106.356 138.207L108.004 136.165L109.83 133.888C110.74 132.751 111.649 131.612 112.551 130.472C112.801 130.084 113.194 129.809 113.645 129.707C113.85 129.66 114.059 129.65 114.264 129.677C114.508 129.708 114.746 129.791 114.961 129.922C117.74 131.042 120.51 132.172 123.33 133.142C124.801 133.642 124.92 134.252 124.131 135.452C123.58 136.232 123.291 137.132 122.781 138.132L120.797 142.103ZM87.1115 148.362C88.7912 147.272 88.7404 146.442 87.3205 145.122C83.3908 140.272 79.5803 135.582 75.7814 130.812C75.6467 130.562 75.4631 130.342 75.2424 130.166C75.0197 129.99 74.7639 129.862 74.4904 129.789C74.3947 129.763 74.299 129.744 74.2014 129.733L74.0099 129.719L73.84 129.722L73.6506 129.741C73.3693 129.783 73.1017 129.882 72.8615 130.032L71.84 130.456C71.381 130.644 70.9182 130.829 70.4553 131.011L68.9318 131.601L67.9943 131.954L66.2971 132.582L64.7111 133.162C63.5314 133.582 63.1818 134.012 63.8303 135.282C67.2834 141.995 70.6584 148.752 73.9514 155.552C74.6916 157.072 75.2111 156.802 76.3107 155.992C79.8615 153.362 83.4201 150.762 87.1115 148.362ZM88.5998 179.299L89.0021 176.807L89.8596 171.442C89.9182 171.071 90.006 170.778 90.133 170.547C90.4396 169.994 90.9709 169.806 91.8596 169.792L91.9807 169.79C97.8596 169.692 97.8654 169.691 98.8596 175.542L99.592 179.822L100.389 184.508C100.879 187.399 101.369 190.338 101.86 193.412C101.004 192.676 100.365 191.717 100.02 190.642C98.8205 188.082 97.2502 186.072 94.09 186.042C90.9299 186.012 89.2111 188.122 87.9709 190.732C87.5705 191.605 87.0744 192.43 86.4904 193.192C86.9943 189.536 87.5549 185.881 88.1349 182.225L88.5998 179.299ZM57.4103 79.292V71.982L57.4045 67.9039L57.4006 64.242C57.4103 63.4319 57.381 62.8821 56.2599 63.1121C54.3576 63.6397 52.6701 64.7557 51.4396 66.3003C50.2092 67.845 49.4982 69.7393 49.4103 71.712C49.4396 73.6856 50.1193 75.5945 51.34 77.1448C52.5607 78.6951 54.258 79.8011 56.1701 80.292C57.1701 80.462 57.4103 80.292 57.4103 79.292ZM96.7795 162.662H90.4201C89.9963 162.69 89.5724 162.598 89.1974 162.396C88.9924 162.286 88.8068 162.145 88.6447 161.979C88.5119 161.842 88.3967 161.689 88.301 161.522L88.2267 161.417C85.801 157.962 85.7971 157.956 89.4299 155.382C91.7482 153.736 92.9025 152.916 94.0529 152.922C95.1974 152.927 96.3381 153.747 98.6096 155.382L98.7443 155.478L98.926 155.61L98.9904 155.662C99.1701 155.815 99.383 155.957 99.6096 156.093C99.8029 156.209 100.006 156.321 100.209 156.432C101.082 156.912 101.928 157.376 101.801 158.102C101.551 159.592 100.19 160.922 99.2209 162.252C98.8517 162.756 98.3068 162.717 97.6877 162.673C97.3986 162.652 97.092 162.63 96.7795 162.662ZM135.733 65.7171C136.766 66.9217 137.445 68.3865 137.701 69.952C138.342 73.772 137.031 76.772 133.721 79.0721C132.57 79.8086 131.268 80.2737 129.91 80.4319V74.8619C129.91 71.3919 130.041 67.9119 129.91 64.452C129.858 64.0152 129.938 63.5721 130.141 63.1819C130.451 62.722 131.051 62.802 131.852 63.1219C132.584 63.3614 133.278 63.6963 133.914 64.1155C134.59 64.5594 135.203 65.0977 135.733 65.7171Z" fill="#040404"/>
</svg>
