<svg width="470" height="523" viewBox="0 0 470 523" fill="none" xmlns="http://www.w3.org/2000/svg">
<path fill-rule="evenodd" clip-rule="evenodd" d="M323.539 421.149C278.215 400.277 270.736 340.005 309.883 308.575C340.668 285.871 379.861 291.108 403.492 320.8C408.973 327.686 412.076 335.702 415.033 343.853C416.715 348.491 420.387 350.201 424.463 348.867C428.445 347.562 430.342 343.875 429.045 339.177C427.678 334.221 426.125 329.289 423.512 324.804C421.617 321.556 420.994 318.158 420.998 314.368C421.01 303.121 421.016 291.874 421.018 280.627L421.016 251.61L421.012 234.92C420.996 183.409 420.982 131.898 421.238 80.3879C421.318 64.3328 410.896 56.3963 397.664 56.6296C380.137 56.9386 362.604 56.8994 345.07 56.8602H345.053C334.26 56.836 323.467 56.8118 312.674 56.8689C309.418 56.8861 307.727 55.8429 306.008 53.1352C287.271 23.6062 260.529 5.29232 225.943 1.05404C178.633 -4.74357 141.498 13.4788 115.076 53.1701C113.287 55.857 111.611 56.8801 108.383 56.8641C85.6172 56.7509 62.8496 56.7638 40.084 56.7767L23.3906 56.7844C7.66406 56.7882 0.00195312 64.3698 0.00195312 79.9442L0 239.022V359.921C0.00195312 375.689 7.49414 383.279 23.1582 383.305C31.8457 383.319 40.5332 383.322 49.2207 383.321L64.3848 383.317L82.1523 383.313L115.75 383.315C166.381 383.319 217.01 383.323 267.639 383.24C271.293 383.234 273.373 383.936 274.375 387.856C275.65 392.839 277.975 397.519 280.885 401.795C282.691 404.449 282.582 406.574 280.934 409.39C274.07 421.12 267.299 432.902 260.527 444.684L254.291 455.529C252.287 459.009 250.281 462.488 248.27 465.964C245.979 469.926 244.686 473.908 247.193 478.172C249.869 482.717 254.186 483.322 258.945 482.775C261.592 482.472 264.242 482.193 266.891 481.915L266.955 481.908C271.902 481.389 276.85 480.87 281.775 480.187C284.248 479.844 285.303 480.457 286.244 482.708C287.91 486.695 289.678 490.639 291.445 494.584L291.451 494.6L291.592 494.915C292.83 497.68 294.068 500.445 295.27 503.226C297.223 507.749 299.801 511.491 305.277 511.685C310.51 511.869 313.277 508.478 315.625 504.358C324.209 489.289 332.85 474.251 341.49 459.212L341.514 459.17L347.119 449.413C347.447 448.84 347.783 448.271 348.129 447.694C348.559 446.976 349.004 446.247 349.469 445.483L350.73 443.404L351.607 444.772C352.104 445.542 352.51 446.171 352.883 446.819L357.025 454.036C366.738 470.947 376.449 487.858 386.125 504.789C388.4 508.77 391.258 511.87 396.227 511.678C401.418 511.478 404.105 508.073 405.998 503.649C406.385 502.745 406.777 501.843 407.172 500.942L407.846 499.408L408.516 497.899L409.871 494.863C411.617 490.963 413.363 487.063 414.992 483.114C416.084 480.465 417.396 479.863 420.254 480.262C426.729 481.166 433.244 481.79 439.756 482.414L444.588 482.881C448.328 483.249 451.539 482.078 453.777 478.958C456.82 474.713 455.859 470.59 453.42 466.374L450.85 461.921L448.812 458.389L444.893 451.568L440.943 444.691C434.34 433.18 427.734 421.669 421.025 410.22C419.109 406.952 418.812 404.583 420.992 401.275C425.412 394.568 428.139 387.023 429.889 379.197C430.928 374.553 428.635 370.756 424.682 369.766C420.561 368.733 417.111 370.802 415.484 375.366C415.131 376.356 414.852 377.373 414.574 378.39L414.289 379.423L414.078 380.144C402.75 417.748 359.061 437.507 323.539 421.149ZM313.877 235.277C337.738 231.144 358.213 220.608 375.346 202.936C395.693 181.384 405.795 156.054 406.025 126.808C406.066 121.677 406.082 116.547 406.086 111.416C406.09 106.045 406.078 100.673 406.066 95.3011L406.051 87.5693L406.045 82.817C406.043 75.7368 404.996 74.6607 398.037 74.6578L390.977 74.6591L378.057 74.6754C360.557 74.7021 343.055 74.7288 325.555 74.5202C320.873 74.4644 319.463 75.675 319.051 80.2972C317.963 92.456 308.004 102.924 295.906 103.274C279.859 103.738 263.799 103.681 247.736 103.624C241.135 103.601 234.533 103.578 227.932 103.59L227.688 103.586C227.58 103.581 227.473 103.573 227.365 103.56L227.182 103.535L226.939 103.486C223.326 102.624 221.023 100.524 220.791 96.6627C220.545 92.5709 222.646 90.0169 226.461 88.9812C228.029 88.5549 229.762 88.6396 231.42 88.6379L242.328 88.6312L256.924 88.6306C268.252 88.6315 279.58 88.6324 290.908 88.611C297.428 88.5987 302.061 85.7965 303.775 81.0446C305.686 75.7536 304.945 74.6552 299.438 74.6551L121.975 74.6539C121.713 74.6539 121.449 74.6622 121.186 74.6705C120.611 74.6886 120.039 74.7066 119.477 74.639C116.906 74.3299 116.48 75.462 116.744 77.8358C117.488 84.5124 122.182 88.5716 129.939 88.6029C141.699 88.6503 153.459 88.6416 165.219 88.6328H165.295L180.93 88.6259C182.094 88.6262 183.258 88.6124 184.422 88.5986C185.883 88.5811 187.344 88.5638 188.805 88.5742C190.18 88.5839 191.553 88.6184 192.924 88.7005C197.555 88.9783 200.564 92.2524 200.426 96.3951C200.295 100.383 197.361 103.228 192.945 103.598C192.211 103.66 191.469 103.651 190.727 103.643L189.947 103.636L172.76 103.642C158.66 103.649 144.561 103.656 130.461 103.628C113.846 103.595 103.688 94.6074 101.787 78.0908C101.471 75.3418 100.607 74.5089 97.8594 74.5887C91.0332 74.7871 84.1973 74.6539 77.3652 74.6539L62.8398 74.6575C49.1855 74.6627 35.5312 74.6677 21.877 74.6323C18.0781 74.6225 15.002 75.6275 15.0703 79.9984C15.1777 86.7508 15.0723 93.5085 14.9648 100.266C14.7539 113.67 14.543 127.073 15.9941 140.433C21.1621 188.021 59.8457 228.076 107.195 235.293C110.201 235.751 110.543 234.709 110.473 232.232C110.371 228.574 110.312 224.884 110.666 221.25C111.404 213.664 116.631 208.818 124.211 208.623C130.205 208.469 136.209 208.472 142.205 208.621C150.303 208.822 155.764 214.444 155.992 222.645L156.047 224.298C156.139 226.919 156.23 229.552 155.938 232.134C155.508 235.918 156.809 236.758 160.527 236.738C179.1 236.635 197.674 236.634 216.248 236.634C228.168 236.633 240.088 236.633 252.008 236.605C252.293 236.605 252.584 236.612 252.879 236.627C253.156 236.64 253.439 236.659 253.727 236.682C254.252 236.725 254.787 236.782 255.328 236.842L255.928 236.91C259.27 237.291 262.648 237.677 264.385 235.714C265.834 234.076 265.553 230.904 265.271 227.733L265.266 227.675C265.145 226.293 265.023 224.913 265.049 223.662L265.053 223.147L265.059 222.619C265.061 222.467 265.066 222.314 265.076 222.162C265.543 214.291 271.02 208.824 278.885 208.618C284.547 208.469 290.217 208.526 295.881 208.592C304.76 208.697 310.176 213.841 310.67 222.711C310.854 226.034 310.854 229.383 310.672 232.705C310.527 235.331 311.48 235.692 313.877 235.277ZM406.051 288.589V303.78C396.586 295.615 386.723 289.816 375.572 286.154C325.963 269.863 272.797 305.837 269.791 357.852L269.693 359.661C269.662 360.309 269.637 360.958 269.617 361.608C269.59 362.524 269.576 363.439 269.584 364.353C269.596 365.512 269.641 366.667 269.736 367.816C269.971 370.616 268.889 371.409 266.379 371.157C266.014 371.121 265.645 371.114 265.275 371.118L264.672 371.131L264.408 371.138L263.881 371.145L24.4746 371.144C15.666 371.144 15.0078 370.497 15.0078 361.899V192.465V186.143C22.0781 198.178 29.4629 208.069 38.498 216.691C56.8105 234.169 78.3398 245.237 103.289 249.582L103.623 249.64C110.428 250.824 110.713 250.873 110.373 258.058C109.664 273.068 112.629 281.097 132.135 279.776C134.039 279.647 135.955 279.675 137.871 279.703C139.457 279.727 141.045 279.751 142.627 279.685C150.281 279.366 155.633 273.998 155.965 266.305L156.012 265.281V265.234C156.146 262.256 156.283 259.251 155.926 256.32C155.418 252.127 157.238 251.564 160.898 251.578C194.053 251.709 227.207 251.739 260.359 251.547C264.455 251.523 265.449 252.782 265.113 256.525C264.818 259.83 264.916 263.193 265.115 266.513C265.576 274.184 270.996 279.48 278.691 279.684C284.852 279.847 291.023 279.849 297.182 279.676C304.334 279.475 309.484 274.946 310.35 267.823C310.869 263.55 310.838 259.173 310.639 254.861C310.498 251.784 311.396 250.589 314.572 250.126C330.861 247.751 346.086 242.342 360.223 233.798C377.646 223.268 391.744 209.448 402.396 192.102L402.766 191.506L403.332 190.618C404.025 189.541 404.857 188.284 406.051 186.435V288.589ZM290.27 59.2619C280.199 45.1569 267.92 34.5224 252.369 27.1694C200.895 3.1722 149.209 29.0422 131.67 59.2619H290.27ZM370.443 450.143L370.42 450.1C368.494 446.709 367.555 445.054 368.004 443.985C368.434 442.965 370.127 442.477 373.439 441.524L373.67 441.458C385.52 438.046 396.068 432.206 405.064 423.771C407.709 421.291 408.812 421.437 410.621 424.693L411.803 426.812L412.74 428.49C414.881 432.309 417.041 436.116 419.213 439.918C422.004 444.801 424.811 449.674 427.617 454.547C429.863 458.444 432.109 462.341 434.346 466.244C434.473 466.463 434.596 466.685 434.721 466.915L435.076 467.584L435.436 468.273L436.254 469.834L430.471 469.18L424.742 468.531C422.77 468.305 420.824 468.077 418.881 467.842C409.238 466.671 406.656 468.118 402.664 477.032C400.357 482.182 398.043 487.328 395.312 493.411L395.066 492.983L383.363 472.594C379.064 465.111 374.783 457.668 370.443 450.143ZM331.932 448.636C334.902 443.469 334.898 443.466 328.939 441.681C316.311 438.218 305.469 432.281 296.229 423.587C293.678 421.186 292.586 421.508 290.951 424.535C286.531 432.72 281.75 440.707 277.125 448.781C274.41 453.52 271.705 458.264 268.99 463.025L265.561 469.037C266.273 469.354 266.559 469.603 266.814 469.577C268.24 469.428 269.666 469.271 271.092 469.112L273.236 468.871C275.553 468.61 277.869 468.348 280.188 468.109C281.686 467.955 283.184 467.809 284.684 467.679C292.529 466.997 294.961 468.514 298.242 475.738C300.826 481.429 303.393 487.128 306.209 493.358L331.932 448.636ZM125.447 235.657C125.469 231.582 125.488 227.686 125.385 223.793C125.32 221.42 126.064 220.757 128.469 220.648L128.701 220.638C134.824 220.36 137.9 220.221 139.447 221.691C141.014 223.179 141.014 226.313 141.014 232.618C141.014 235.017 141.004 237.415 140.994 239.814C140.969 245.889 140.945 251.963 141.078 258.035C141.143 260.94 140.613 261.99 137.354 261.986L136.914 261.985C131.217 261.979 128.348 261.975 126.9 260.539C125.43 259.078 125.43 256.138 125.43 250.21V240.739C125.43 239.007 125.439 237.317 125.447 235.657ZM291.332 261.739C292.697 261.543 294.064 261.347 295.365 261.243C295.668 251.381 295.703 241.9 295.713 232.419C295.725 220.337 295.719 220.338 283.572 220.643L283.322 220.649C280.754 220.713 279.926 221.337 279.984 223.984C280.07 227.965 280.055 231.948 280.039 235.932C280.023 239.934 280.006 243.936 280.094 247.936C280.125 249.336 279.939 250.913 279.754 252.491C279.33 256.082 278.906 259.676 281.039 261.195C283.4 262.876 287.363 262.308 291.332 261.739Z" fill="#030303"/>
<path fill-rule="evenodd" clip-rule="evenodd" d="M318.412 341.718C309.148 343.243 305.828 351.046 311.247 359.377C311.708 359.85 312.134 360.321 312.544 360.775C313.495 361.829 314.364 362.792 315.415 363.478C322.918 368.381 324.404 375.002 321.578 383.146C320.938 384.992 320.83 387.076 320.764 389.06C320.491 397.192 327.792 402.368 335.333 399.145C337.235 398.332 339.086 397.2 340.923 396.075C344.086 394.14 347.208 392.229 350.48 392.019C353.915 391.798 357.087 393.842 360.316 395.922C362.192 397.131 364.088 398.352 366.065 399.148C374.038 402.358 382.878 396.318 380.576 388.266C377.101 376.114 379.081 367 389.742 359.705C393.219 357.325 393.934 353.024 392.461 348.826C390.993 344.643 387.822 342.469 383.572 341.779C382.662 341.631 381.753 341.477 380.843 341.322C377.483 340.753 374.12 340.183 370.735 339.932C368.128 339.739 367.001 338.489 366.001 336.367C365.696 335.718 365.392 335.067 365.088 334.416C363.354 330.698 361.613 326.965 359.433 323.519C355.2 316.828 346.42 316.933 341.999 323.502C340.985 325.009 339.961 326.617 339.443 328.329C336.87 336.845 331.768 341.771 322.349 341.115C321.463 341.054 320.559 341.258 319.655 341.462C319.24 341.556 318.825 341.65 318.412 341.718ZM342.214 378.72C345.992 376.729 349.515 374.871 354.11 376.273C357.54 377.925 360.615 379.388 365.011 381.48L365.015 381.482C360.43 370.292 363.348 362.079 372.524 355.403C360.742 355.84 354.017 350.283 350.732 339.439C347.467 350.573 340.425 355.836 328.738 355.483C338.414 362.148 341.11 370.427 336.576 381.295C338.604 380.624 340.437 379.657 342.214 378.72Z" fill="#184D98"/>
<path d="M424.064 370.739C424.086 370.739 424.105 370.74 424.123 370.742C422.462 387.038 415.427 402.404 404.015 414.352C390.865 428.119 372.914 436.289 353.895 437.161C334.876 438.033 316.252 431.542 301.897 419.036C287.541 406.53 278.558 388.972 276.815 370.013C275.072 351.054 280.703 332.153 292.538 317.239C304.373 302.325 321.501 292.547 340.36 289.937C359.22 287.328 378.359 292.087 393.799 303.226C407.199 312.893 416.917 326.718 421.521 342.439C421.504 342.444 421.485 342.449 421.464 342.453C421.383 342.468 421.232 342.478 420.977 342.31C420.692 342.122 420.405 341.777 420.264 341.327L413.109 343.574L420.264 341.327C415.562 326.356 406.137 313.212 393.285 303.94C378.028 292.933 359.116 288.23 340.481 290.809C321.846 293.388 304.922 303.05 293.228 317.786C281.533 332.522 275.969 351.199 277.691 369.933C279.454 389.108 289.765 405.361 303.577 417.394C318.178 430.113 336.187 434.064 354.348 433.231C372.615 432.393 389.11 426.861 402.427 412.919C413.123 401.722 420.826 387.79 423.002 372.19C423.075 371.673 423.321 371.241 423.591 370.983C423.831 370.753 423.989 370.739 424.064 370.739Z" stroke="#184D98" stroke-width="15"/>
<path d="M290.004 411.239L254.299 471.057C253.087 473.087 254.591 475.656 256.954 475.593L287.133 474.788C288.278 474.758 289.34 475.382 289.871 476.397L303.415 502.29C304.524 504.409 307.546 504.443 308.701 502.348L343.504 439.239" stroke="#184D98" stroke-width="16" stroke-linecap="round"/>
<path d="M359.254 441.071L393.205 501.902C394.358 503.967 397.335 503.948 398.462 501.87L412.854 475.332C413.4 474.325 414.472 473.717 415.616 473.765L444.813 474.982C447.202 475.081 448.742 472.481 447.506 470.434L410.253 408.739" stroke="#184D98" stroke-width="16" stroke-linecap="round"/>
<path d="M108.004 74.2385C107.504 81.7385 110.504 96.6385 126.504 96.2385" stroke="#184D98" stroke-width="16" stroke-linecap="round"/>
<path d="M126.504 96.2385H197.504" stroke="#184D98" stroke-width="16" stroke-linecap="round"/>
<path d="M312.504 73.7385C313.004 81.2385 310.004 96.1385 294.004 95.7385" stroke="#184D98" stroke-width="16" stroke-linecap="round"/>
<path d="M294.004 95.7385H223.004" stroke="#184D98" stroke-width="16" stroke-linecap="round"/>
</svg>
