<svg width="108" height="119" viewBox="0 0 108 119" fill="none" xmlns="http://www.w3.org/2000/svg">
<path fill-rule="evenodd" clip-rule="evenodd" d="M61.3562 0.000299749C58.7201 0.000373357 56.0775 0.000447148 53.4258 0.000447083C50.8709 0.000447344 48.3252 0.000334864 45.7861 0.000222675C39.286 -6.45263e-05 32.8291 -0.00034982 26.3721 0.00126311C23.4212 0.00200032 21.7973 1.35541 21.2224 4.26603C21.1931 4.41402 21.1654 4.56273 21.1377 4.71156C21.0379 5.24767 20.9377 5.78541 20.7644 6.29723C18.1428 14.0406 12.4501 18.0121 4.62972 19.2521C1.49318 19.7494 0.00476337 21.321 0.00394905 24.528C0.00345255 26.4841 0.00447809 28.4402 0.00550362 30.3963C0.00750146 34.207 0.00949929 38.0177 0.0002446 41.8283C-0.0111559 46.5226 0.37563 51.1868 1.23126 55.7957C4.11171 71.3113 11.0533 84.8019 21.6397 96.462C30.2155 105.908 40.5897 112.863 51.964 118.442C53.3389 119.117 54.7319 119.087 56.0964 118.409C64.8851 114.04 73.2387 108.999 80.4731 102.291C98.3917 85.675 107.982 65.3223 107.993 40.6977C107.995 35.318 107.995 29.9382 107.992 24.5585C107.991 21.3034 106.528 19.669 103.265 19.2637C94.8306 18.2163 88.3475 12.3418 86.7511 4.29984C86.1566 1.30532 84.575 0.00146282 81.5243 0.000981797C74.816 -7.60987e-05 68.1077 0.000111222 61.3562 0.000299749ZM54.8352 115.157C62.3259 111.347 69.5629 107.142 76.0191 101.568C80.8173 97.4885 85.0751 93.0095 88.8091 88.039C97.2268 76.8336 102.423 64.3039 104.008 50.3629C104.677 44.4787 104.603 38.5706 104.529 32.6623C104.493 29.8214 104.458 26.9804 104.505 24.1421C104.519 23.3041 104.092 22.8577 103.261 22.7712C101.486 22.5865 99.7458 22.2141 98.0755 21.5937C90.1873 18.6638 84.9442 13.3764 83.3488 4.89837C83.1442 3.81074 82.5986 3.46511 81.5158 3.46768C71.9041 3.49047 62.2923 3.4887 52.6804 3.48693C50.0996 3.48646 47.5188 3.48598 44.938 3.48598C43.3561 3.48598 41.7742 3.48744 40.1923 3.48891C35.6198 3.49314 31.0473 3.49737 26.475 3.46625C25.321 3.4584 24.7423 3.85445 24.6239 5.00608C24.5613 5.61605 24.3991 6.22025 24.2373 6.81491C21.9339 15.2783 14.3321 21.5958 5.08015 22.7449C3.66817 22.9203 3.48913 23.1229 3.48869 24.5912C3.48807 26.6588 3.48878 28.7264 3.4895 30.794C3.49079 34.5711 3.49209 38.3482 3.4853 42.1254C3.47895 45.6541 3.71949 49.1696 4.25083 52.6513C6.84895 69.6761 14.4402 84.1827 26.4435 96.4523C34.2181 104.399 43.4014 110.32 53.3019 115.224C53.8662 115.503 54.3328 115.412 54.8352 115.157Z" fill="#184D98"/>
<path fill-rule="evenodd" clip-rule="evenodd" d="M63.266 104.581C77.122 95.5916 87.6628 83.7678 94.1771 68.3876C96.762 62.0498 98.4669 55.5802 99.2316 48.8565C99.6875 44.8489 99.6689 40.8335 99.6503 36.8182C99.6418 34.9915 99.6334 33.1649 99.6696 31.339C99.7255 28.5164 98.4265 26.6656 95.8544 25.5964C88.834 22.678 83.5284 17.8953 80.1246 11.0562C79.058 8.91324 77.3297 7.84925 74.9162 7.85095C60.9805 7.86077 47.0449 7.86237 33.1093 7.84937C30.6983 7.84712 28.9484 8.87735 27.8826 11.0239C24.4452 17.9467 19.049 22.7412 11.9641 25.6961C9.50753 26.7206 8.30409 28.5179 8.32447 31.1826C8.34026 33.2471 8.3373 35.3117 8.33435 37.3764C8.33248 38.6796 8.33061 39.9827 8.33346 41.2859C8.35831 52.6624 11.0135 63.4106 16.1952 73.5175C24.1135 88.9618 36.1376 100.307 51.3355 108.44C53.1041 109.387 54.8918 109.37 56.6636 108.433C58.9177 107.241 61.1263 105.97 63.266 104.581ZM94.479 28.8016C89.7142 26.8689 85.6004 23.9845 82.0692 20.1327C80.0409 17.8254 78.3396 15.3941 77.0563 12.6861C76.6091 11.7426 75.9208 11.3291 74.8582 11.3305C60.9655 11.3483 47.0728 11.3482 33.1802 11.3305C32.1331 11.3292 31.4238 11.688 30.9525 12.6383C27.1633 20.2777 21.22 25.5992 13.3873 28.8576C12.2835 29.3168 11.783 30.0227 11.8002 31.2452C11.8267 33.1301 11.8241 35.0155 11.8215 36.9009C11.8191 38.6533 11.8167 40.4056 11.8377 42.1576C11.9642 52.7366 14.5377 62.7228 19.3805 72.0996C26.9319 86.7207 38.3391 97.4988 52.7442 105.247C53.6733 105.747 54.4705 105.669 55.3585 105.192C66.7544 99.0704 76.3685 90.9126 83.7406 80.2329C90.8426 69.9447 95.0192 58.5857 95.9783 46.0837C96.2115 43.0424 96.1915 39.998 96.1715 36.9537C96.1592 35.0843 96.1469 33.215 96.1933 31.3465C96.2262 30.0195 95.67 29.2847 94.479 28.8016Z" fill="#040404"/>
<path d="M75.5051 71.3639C67.5528 80.0256 57.8279 83.2396 46.5838 80.1938C35.4837 77.1869 28.7836 69.5687 26.198 58.3628C26.1203 58.0261 26.0822 57.6787 26.048 57.3341C25.9455 56.3011 26.4652 55.5117 27.357 55.3267C28.3353 55.1238 29.1648 55.6347 29.4107 56.6973C29.7484 58.157 30.0299 59.6271 30.5186 61.0504C34.1713 71.6888 44.6287 78.5656 55.9052 77.7324C67.1539 76.9012 76.5134 68.4074 78.4539 57.2694C78.6958 55.8809 79.2484 55.2894 80.2935 55.3C81.4242 55.3116 82.1087 56.1427 81.9334 57.4395C81.5383 60.362 80.5861 63.1174 79.2639 65.7445C78.2567 67.7458 77.0192 69.5994 75.5051 71.3639Z" fill="#184D98"/>
<path d="M64.8477 27.0468C74.056 31.143 79.685 38.0615 81.8163 47.8302C82.1977 49.5784 81.8242 50.5204 80.688 50.7715C79.4511 51.0447 78.7678 50.3686 78.4288 48.5361C76.2036 36.5058 65.0544 27.735 52.8491 28.4132C41.0953 29.0664 31.6568 37.373 29.5663 48.9021C29.532 49.0916 29.4824 49.2789 29.4315 49.4649C29.1403 50.5271 28.3244 51.1056 27.4061 50.904C26.4509 50.6942 25.8986 49.8948 26.0644 48.8062C26.9126 43.2365 29.254 38.3564 33.0405 34.2107C41.1977 25.2794 53.4095 22.5348 64.8477 27.0468Z" fill="#184D98"/>
<path fill-rule="evenodd" clip-rule="evenodd" d="M45.7683 62.6101C45.3454 61.816 45.3978 61.1112 45.788 60.4274C46.4009 59.353 47.2009 59.1649 48.1623 59.9544C49.3671 60.9437 50.5873 61.8655 52.1566 62.2044C52.8785 62.3603 53.1837 62.2338 53.1607 61.3809C53.099 59.0988 53.1177 56.8136 53.1539 54.5304C53.164 53.8976 53.0243 53.5493 52.3613 53.3679C51.7105 53.1898 51.0872 52.8957 50.4713 52.6051L50.3292 52.5382C47.0462 50.9934 45.8101 48.8146 46.2048 45.3075C46.5192 42.5137 48.5894 40.4292 51.8143 39.7796C51.8646 39.7694 51.9143 39.7597 51.9633 39.7501C52.7112 39.604 53.2898 39.4908 53.181 38.4472C53.1241 37.902 53.6405 37.6545 54.139 37.6598C54.715 37.6658 55.3176 37.8933 55.261 38.5573C55.1849 39.4518 55.6229 39.4931 56.2979 39.5567L56.3287 39.5596C57.6353 39.6833 58.9358 39.9162 60.1156 40.5529C61.3314 41.2091 61.6422 42.1015 61.0687 43.2381C60.5422 44.2815 59.8417 44.447 58.5353 43.8365C55.3324 42.3398 55.2934 42.3633 55.2934 45.7918C55.2934 46.1602 55.2957 46.5286 55.298 46.897C55.3036 47.8062 55.3092 48.7154 55.2806 49.6236C55.2635 50.166 55.4106 50.4719 55.9475 50.6393C56.4434 50.7938 56.9191 51.0215 57.3902 51.2468L57.4376 51.2695C61.3003 53.1169 62.8699 56.5812 61.6865 60.686C60.9034 63.4023 59.0209 64.9608 56.3267 65.5679C55.596 65.7325 55.14 65.9047 55.2742 66.7983C55.3842 67.5307 54.8629 67.8396 54.2025 67.8618C53.503 67.8854 53.0687 67.5343 53.153 66.8045C53.2375 66.0726 52.9257 65.9035 52.2546 65.8492C50.3385 65.6942 48.5412 65.151 46.9844 63.9624C46.518 63.6063 46.1259 63.1841 45.7683 62.6101ZM55.0641 60.3631V54.6801C56.9098 54.9626 58.2745 56.5513 58.3118 58.4302C58.3535 60.5331 57.3433 61.734 55.0641 62.1861V60.3631ZM52.795 43.0192C50.8961 43.2591 49.7976 44.5055 49.8392 46.5528C50.1568 48.3507 51.5262 48.9237 52.8931 49.4886C53.3704 49.6859 53.3694 49.3575 53.3685 49.04C53.3684 49.03 53.3684 49.0199 53.3684 49.0099C53.368 48.7252 53.3674 48.4406 53.3669 48.1559C53.3642 46.6289 53.3614 45.1019 53.3724 43.575C53.3755 43.1511 53.3035 42.9549 52.795 43.0192Z" fill="#184D98"/>
</svg>
