<svg width="146" height="146" viewBox="0 0 146 146" fill="none" xmlns="http://www.w3.org/2000/svg">
<path d="M137.985 112.208C137.828 113.756 136.829 114.291 135.576 114.505C129.856 115.48 124.133 116.44 118.411 117.406C116.412 117.743 114.413 118.083 112.414 118.422C110.537 118.74 109.206 117.527 109.542 115.651C110.707 109.155 111.935 102.67 113.141 96.1818C113.382 94.8849 113.589 93.5795 113.888 92.2959C114.357 90.2856 116.183 89.6676 117.792 90.9624C118.342 91.4052 118.848 91.9127 119.322 92.4376C119.796 92.9627 120.205 93.5466 120.528 93.9584C121.599 93.6799 121.827 93.0609 122.126 92.5574C125.812 86.3394 128.221 79.6702 128.926 72.4568C130.704 54.2643 124.634 39.1757 110.613 27.4624C103.227 21.2926 94.5979 17.7376 84.9981 16.6335C80.2792 16.0907 75.5758 16.1256 70.8813 16.8921C67.7427 17.4046 66.2395 16.3241 65.5776 13.1292C65.0897 10.7737 64.5931 8.41994 64.1046 6.06454C63.5233 3.2622 64.7437 1.40244 67.5194 0.939651C73.276 -0.0201263 79.0558 -0.247798 84.8791 0.271109C96.3214 1.29072 106.805 4.99326 116.317 11.4068C125.304 17.466 132.349 25.3157 137.565 34.8098C138.531 36.5688 138.33 38.0008 137.071 38.6576C135.83 39.3051 134.601 38.8499 133.795 37.389C131.435 33.1088 128.699 29.0921 125.426 25.4546C115.69 14.6333 103.64 7.93188 89.3198 5.39967C82.7209 4.23278 76.0761 4.17781 69.4469 5.30971C69.225 5.3476 69.012 5.43761 68.6511 5.54684C69.0705 7.56768 69.4603 9.54375 69.8975 11.5093C70.1021 12.4287 70.8701 12.2869 71.51 12.1829C74.4135 11.7109 77.3372 11.5698 80.2683 11.6745C93.8647 12.1603 105.834 16.7913 115.932 25.959C125.487 34.6333 131.273 45.4406 133.206 58.1699C135.449 72.9452 132.135 86.4988 123.498 98.7178C122.299 100.415 121.011 100.487 119.47 99.0559C118.896 98.5231 118.336 97.9762 117.586 97.2609C116.555 102.738 115.575 107.945 114.543 113.433C120.062 112.499 125.365 111.603 130.668 110.706C130.793 110.495 130.918 110.285 131.043 110.074C130.298 109.506 129.484 109.007 128.822 108.355C127.102 106.663 127.062 105.903 128.522 103.97C133.602 97.2442 137.206 89.8132 139.209 81.6199C141.988 70.2533 141.616 58.9804 138.162 47.8045C138.009 47.3087 137.819 46.8165 137.737 46.3079C137.523 44.9801 138.241 43.8946 139.458 43.6214C140.58 43.3698 141.687 44.014 142.097 45.2384C143.209 48.554 144.086 51.934 144.66 55.384C145.319 59.3496 145.596 63.3428 145.561 67.3691C145.451 79.9772 141.967 91.5745 135.265 102.228C134.837 102.908 134.411 103.59 133.947 104.246C132.502 106.287 132.707 105.771 134.289 107.407C135.143 108.291 136.017 109.156 136.898 110.013C137.495 110.594 137.909 111.257 137.985 112.208Z" fill="#184D98"/>
<path d="M8.31585 57.6195C0.636095 81.1419 4.41114 102.502 20.9962 120.792C35.8753 137.2 54.8966 143.119 77.0199 140.256C76.5411 137.938 76.1946 135.862 75.6568 133.836C75.4101 132.907 74.4519 133.291 73.8024 133.374C71.7385 133.634 69.6761 133.852 67.5922 133.863C41.2331 134.006 19.373 116.946 13.1737 91.3416C12.0358 86.642 11.5802 81.8519 11.7344 77.0119C11.7962 75.0727 12.5992 74.0808 14.0802 74.0935C15.6332 74.1068 16.4476 75.1324 16.3688 77.1717C16.012 86.4125 18.006 95.1252 22.5373 103.164C30.4712 117.24 42.4745 125.716 58.3816 128.59C63.8183 129.572 69.2822 129.503 74.7373 128.633C77.8264 128.141 79.3568 129.199 80.0071 132.277C80.504 134.629 80.9686 136.989 81.4642 139.341C82.0786 142.258 80.928 144.061 78.0468 144.573C72.9047 145.486 67.7106 145.767 62.5112 145.433C53.207 144.835 44.3454 142.473 36.0815 138.126C21.3111 130.354 10.7977 118.706 4.59268 103.19C0.933933 94.0409 -0.463607 84.5099 0.132982 74.729C0.882737 62.437 4.79606 51.1745 11.8331 41.0306C12.1514 40.5719 12.5725 40.1703 12.7189 39.4143C11.4324 38.154 10.0872 36.8343 8.73988 35.5167C7.92099 34.716 7.3337 33.8281 7.75958 32.6192C8.1649 31.4687 9.17528 31.166 10.2231 30.9873C17.8445 29.6874 25.4686 28.4035 33.0907 27.1079C35.1465 26.7584 36.4271 27.9476 36.0475 30.0336C34.6464 37.7334 33.2135 45.4278 31.7359 53.1133C31.3003 55.3791 29.3345 55.9403 27.6058 54.3892C26.5973 53.4844 25.8007 52.3434 24.5334 51.5684C23.4272 52.6982 22.8236 54.0953 22.1193 55.4057C20.2105 58.9569 18.7762 62.698 17.8093 66.6181C17.5127 67.8204 16.836 68.6832 15.4583 68.6582C14.317 68.6376 13.6412 68.0123 13.3119 66.9363C13.1613 66.4442 13.2932 65.9959 13.4051 65.5442C15.0831 58.7669 17.9528 52.5353 22.0314 46.8692C23.3085 45.0949 24.7131 45.0174 26.2949 46.5431C26.7881 47.0188 27.2953 47.4801 28.0352 48.1715C29.0589 42.7343 30.0209 37.6247 31.0569 32.122C25.5304 33.0589 20.2762 33.9497 14.7459 34.8873C15.535 35.7324 16.1126 36.3964 16.7379 37.012C18.4763 38.7234 18.5839 39.5861 17.1122 41.5333C13.4086 46.4338 10.4722 51.7492 8.31585 57.6195Z" fill="#184D98"/>
<path d="M81.5211 113.925C80.7935 115.796 79.4736 116.58 77.6222 116.575C74.3591 116.567 71.0957 116.591 67.8328 116.562C65.4661 116.541 63.941 115.004 63.9132 112.654C63.8918 110.857 63.881 109.059 63.9171 107.263C63.9335 106.448 63.7123 105.954 62.8548 105.701C60.6302 105.043 58.482 104.172 56.4614 103.024C55.8411 102.672 55.432 102.824 54.978 103.29C53.7893 104.508 52.5793 105.706 51.3626 106.897C49.2003 109.013 47.0412 109.025 44.9235 106.925C42.8416 104.86 40.7627 102.792 38.7078 100.701C36.5162 98.4702 36.5332 96.4021 38.7271 94.1741C39.8884 92.9949 41.0418 91.8068 42.2385 90.6644C42.7741 90.153 42.8347 89.7034 42.4791 89.054C41.4102 87.1014 40.5598 85.0487 39.9238 82.9146C39.6536 82.0081 39.1341 81.6289 38.1655 81.661C36.4177 81.7188 34.6659 81.6998 32.9168 81.665C30.5555 81.6179 29.0311 80.0846 29.0144 77.7226C28.9907 74.365 28.9878 71.007 29.0188 67.6495C29.0393 65.4247 30.5521 63.9163 32.7643 63.8777C34.6082 63.8456 36.4537 63.8344 38.2971 63.8765C39.207 63.8973 39.6641 63.5413 39.9128 62.6654C40.5083 60.5688 41.3331 58.5516 42.4068 56.6547C42.8687 55.8388 42.7266 55.3112 42.0675 54.7001C40.8546 53.5756 39.6977 52.3887 38.5489 51.1976C36.5604 49.1358 36.5623 46.989 38.5557 44.9738C40.6839 42.8221 42.8264 40.6843 44.9789 38.5569C47.0323 36.5275 49.223 36.538 51.31 38.5776C52.5275 39.7675 53.7436 40.9602 54.9174 42.1926C55.4276 42.7282 55.8753 42.8024 56.5262 42.4437C58.5187 41.3457 60.613 40.4689 62.8046 39.8561C63.634 39.6242 63.9406 39.179 63.9203 38.3315C63.8771 36.5355 63.895 34.7375 63.9127 32.9406C63.9363 30.5453 65.4162 29.0016 67.7754 28.9793C71.1801 28.9471 74.5857 28.9447 77.9903 28.9802C80.1296 29.0025 81.6338 30.5091 81.686 32.6552C81.7319 34.5458 81.7247 36.4389 81.6885 38.3298C81.6726 39.1624 81.9373 39.6137 82.7928 39.8495C84.9857 40.454 87.0914 41.3173 89.0689 42.4404C89.8161 42.8648 90.2391 42.6819 90.7657 42.1304C91.9737 40.8655 93.2199 39.6358 94.4769 38.4189C96.3773 36.5791 98.5996 36.5571 100.503 38.4103C102.738 40.5877 104.942 42.7995 107.122 45.0324C109.031 46.987 109.012 49.1847 107.101 51.1687C105.888 52.4288 104.651 53.6682 103.384 54.8741C102.846 55.3856 102.772 55.8406 103.131 56.487C104.236 58.4769 105.08 60.5861 105.719 62.765C105.967 63.608 106.397 63.896 107.235 63.8785C109.031 63.841 110.829 63.8515 112.626 63.8764C115.086 63.9105 116.584 65.4155 116.598 67.8826C116.618 71.1456 116.618 74.409 116.598 77.672C116.583 80.128 115.082 81.626 112.608 81.6658C110.811 81.6947 109.014 81.6916 107.217 81.676C106.465 81.6694 105.983 81.907 105.748 82.6933C105.085 84.9167 104.217 87.0652 103.097 89.0992C102.717 89.7882 102.937 90.216 103.433 90.6993C104.72 91.9531 105.996 93.2204 107.233 94.523C108.924 96.3031 109.021 98.445 107.342 100.227C105.073 102.636 102.729 104.979 100.328 107.255C98.5003 108.987 96.338 108.887 94.5163 107.133C93.2221 105.887 91.9479 104.618 90.7057 103.32C90.2004 102.792 89.7808 102.696 89.112 103.066C87.1227 104.167 85.0232 105.043 82.839 105.668C81.9192 105.931 81.6913 106.424 81.6826 107.302C81.6608 109.473 81.8576 111.649 81.5211 113.925ZM52.7479 99.0678C54.1673 97.7821 55.7832 97.4875 57.4513 98.4116C60.0292 99.8396 62.7299 100.917 65.5415 101.783C67.4961 102.385 68.3406 103.691 68.359 105.72C68.3743 107.422 68.4059 109.126 68.348 110.826C68.3139 111.827 68.699 112.154 69.6739 112.129C71.753 112.078 73.8348 112.084 75.9143 112.128C76.8764 112.148 77.2907 111.818 77.2582 110.818C77.2061 109.212 77.2411 107.603 77.2483 105.995C77.2594 103.536 78.1324 102.325 80.4773 101.644C82.9384 100.929 85.2876 99.969 87.5324 98.7288C89.9234 97.4077 91.4396 97.6395 93.3706 99.5854C94.6925 100.918 95.9739 102.29 97.1468 103.512C99.3972 101.31 101.435 99.3168 103.649 97.1503C102.145 95.714 100.623 94.2996 99.1471 92.8395C97.8174 91.5244 97.516 89.914 98.3792 88.2918C99.8065 85.6097 100.95 82.8339 101.856 79.936C102.44 78.067 103.755 77.2344 105.714 77.2135C107.416 77.1953 109.119 77.1741 110.82 77.2206C111.783 77.2469 112.186 76.9128 112.163 75.9119C112.114 73.7854 112.115 71.6562 112.162 69.5297C112.183 68.5821 111.798 68.2917 110.9 68.317C109.294 68.3622 107.685 68.3287 106.077 68.3216C103.597 68.3105 102.369 67.4802 101.692 65.1355C100.968 62.623 99.9553 60.2487 98.7222 57.9495C97.4189 55.5194 97.6834 54.0987 99.6621 52.1224C100.988 50.7978 102.3 49.4587 103.708 48.0352C101.759 46.0975 99.9438 44.3101 98.1509 42.5011C97.6071 41.9523 97.2037 42.108 96.7297 42.5947C95.5424 43.8138 94.3332 45.0121 93.1164 46.202C91.4906 47.7919 89.9217 48.0972 87.9768 47.0269C85.479 45.6522 82.8767 44.5866 80.1382 43.7952C78.1463 43.2196 77.2681 41.8886 77.2503 39.7653C77.2357 38.016 77.2252 36.2663 77.2523 34.5173C77.2644 33.7329 76.9559 33.4119 76.1641 33.4205C73.9895 33.4442 71.8138 33.452 69.6398 33.408C68.6295 33.3876 68.3236 33.8333 68.3515 34.7807C68.3987 36.3869 68.3683 37.9954 68.3614 39.603C68.3513 41.9639 67.4981 43.2061 65.2197 43.8762C62.6223 44.6401 60.1522 45.6634 57.7761 46.9606C55.679 48.1054 54.1326 47.8185 52.399 46.1143C51.219 44.9542 50.0526 43.7803 48.8833 42.6094C48.4875 42.2131 48.0977 41.8926 47.5714 42.433C45.7352 44.3185 43.7512 46.0655 42.0423 48.1952C43.5376 49.6983 44.9816 51.119 46.39 52.5743C47.7669 53.997 48.1 55.6512 47.1715 57.3802C45.7791 59.9732 44.6461 62.6489 43.8141 65.4758C43.2266 67.4718 41.8997 68.3043 39.7519 68.3204C38.0499 68.333 36.3474 68.3461 34.6458 68.3165C33.8178 68.302 33.4366 68.5959 33.4491 69.4678C33.4808 71.6895 33.4756 73.9122 33.4514 76.1341C33.4427 76.9312 33.7836 77.2256 34.5599 77.2135C36.2615 77.1872 37.964 77.2008 39.666 77.2117C42.0498 77.2269 43.2556 78.0687 43.9204 80.3683C44.6726 82.9699 45.702 85.4362 47.0111 87.807C48.1314 89.8362 47.8499 91.4328 46.2392 93.0763C45.114 94.2243 43.9673 95.3511 42.8387 96.4957C42.4374 96.9027 41.9414 97.3553 42.5073 97.9388C44.3357 99.8239 46.1967 101.677 48.3962 103.897C49.8882 102.233 51.2433 100.722 52.7479 99.0678Z" fill="black"/>
<path d="M67.4122 57.722C61.3038 59.9216 56.7337 65.554 56.7931 72.815C56.8649 81.5885 63.4081 87.5744 70.567 88.6064C73.7267 89.0619 76.6732 88.5395 79.5308 87.2569C80.2941 86.9143 81.0689 86.7116 81.866 86.9493C82.7602 87.216 83.2745 87.886 83.3718 88.8208C83.4836 89.8952 82.9487 90.6407 82.0441 91.1244C79.7626 92.3445 77.3001 93.0415 74.7446 93.2535C64.2274 94.1261 55.1621 87.486 52.7269 77.1998C50.0435 65.865 57.9789 54.278 69.4838 52.4796C80.418 50.7704 90.5627 57.8105 92.8452 68.2064C93.9975 73.4549 93.2502 78.4342 90.5803 83.1131C90.041 84.0581 89.2892 84.5958 88.1543 84.4865C87.2584 84.4002 86.6963 83.8918 86.3303 83.1094C85.9148 82.2213 86.2789 81.4449 86.691 80.6889C87.6954 78.8463 88.3502 76.9081 88.656 74.8157C89.979 65.7622 82.8988 57.6577 74.6269 56.9009C72.1762 56.6767 69.8289 56.9005 67.4122 57.722Z" fill="black"/>
</svg>
