<svg width="1034" height="1034" viewBox="0 0 1034 1034" fill="none" xmlns="http://www.w3.org/2000/svg">
<mask id="path-1-inside-1_32_2" fill="white">
<path d="M1009.57 492.93C1015.35 613.183 976.973 731.401 901.666 825.331C826.358 919.261 719.312 982.423 600.679 1002.93C482.046 1023.43 360.011 999.859 257.546 936.653C155.081 873.447 79.2543 774.965 44.3414 659.747C9.42845 544.529 17.8373 420.523 67.9848 311.073C118.132 201.623 206.559 114.28 316.619 65.485C426.679 16.6904 550.779 9.81083 665.558 46.1413C780.337 82.4718 877.876 159.506 939.814 262.743L892.007 291.425C837.067 199.851 750.546 131.52 648.734 99.2935C546.922 67.0673 436.841 73.1697 339.215 116.452C241.589 159.734 163.152 237.21 118.669 334.296C74.187 431.381 66.7281 541.378 97.6968 643.58C128.666 745.781 195.926 833.137 286.815 889.203C377.705 945.268 485.954 966.176 591.184 947.989C696.415 929.802 791.368 873.776 858.168 790.457C924.968 707.139 959.008 602.276 953.878 495.608L1009.57 492.93Z"/>
</mask>
<path d="M1009.57 492.93C1015.35 613.183 976.973 731.401 901.666 825.331C826.358 919.261 719.312 982.423 600.679 1002.93C482.046 1023.43 360.011 999.859 257.546 936.653C155.081 873.447 79.2543 774.965 44.3414 659.747C9.42845 544.529 17.8373 420.523 67.9848 311.073C118.132 201.623 206.559 114.28 316.619 65.485C426.679 16.6904 550.779 9.81083 665.558 46.1413C780.337 82.4718 877.876 159.506 939.814 262.743L892.007 291.425C837.067 199.851 750.546 131.52 648.734 99.2935C546.922 67.0673 436.841 73.1697 339.215 116.452C241.589 159.734 163.152 237.21 118.669 334.296C74.187 431.381 66.7281 541.378 97.6968 643.58C128.666 745.781 195.926 833.137 286.815 889.203C377.705 945.268 485.954 966.176 591.184 947.989C696.415 929.802 791.368 873.776 858.168 790.457C924.968 707.139 959.008 602.276 953.878 495.608L1009.57 492.93Z" stroke="#5C5959" stroke-width="100" mask="url(#path-1-inside-1_32_2)"/>
<circle cx="962.635" cy="376.635" r="70.5" fill="#2B5EAC"/>
<path d="M219.135 658.135L407.135 636.135L812.635 402.635L545.635 491.635L261.135 290.135L392.135 589.135L219.135 658.135Z" fill="#2B5EAC"/>
<path d="M764.135 709.135L496.135 699.135L393.135 775.135L420.135 692.135L841.135 461.135L650.135 623.135L764.135 709.135Z" fill="#5C5959"/>
</svg>
