<svg width="528" height="528" viewBox="0 0 528 528" fill="none" xmlns="http://www.w3.org/2000/svg">
<path d="M369.003 411.006C301.949 475.699 197.503 477.074 129.643 414.403C61.9052 351.845 54.8016 247.429 112.721 176.077C169.723 105.855 283.052 85.1753 364.169 156.681C375.079 145.759 385.97 134.855 397.212 123.599C390.759 117.094 383.021 111.136 375.024 105.525C346.305 85.3768 314.567 72.2719 279.855 67.6268C213.955 58.8079 154.998 75.513 104.128 118.637C65.1406 151.688 40.192 193.611 30.8094 243.781C17.7168 313.79 34.7877 376.395 80.5758 431.063C81.5385 432.212 82.5867 433.294 83.4953 434.484C87.0178 439.096 86.9119 443.389 83.2514 446.456C79.6935 449.438 75.0411 448.892 71.3288 444.852C64.1017 436.987 57.5741 428.563 51.5725 419.726C31.1177 389.608 17.9634 356.536 12.9737 320.522C5.05213 263.347 15.721 209.679 46.5442 160.72C82.3314 103.876 133.565 68.0289 199.23 54.2971C258.981 41.8022 315.694 51.6508 368.641 82.2677C378.031 87.6973 386.881 93.9399 395.427 100.617C396.56 101.503 397.56 102.697 399.931 102.838C399.665 97.3523 399.818 92.0499 399.072 86.877C397.541 76.2583 399.815 67.5944 408.064 59.8635C423.258 45.6256 437.664 30.5484 452.388 15.8097C454.767 13.4279 457.195 11.1777 460.744 10.7155C468.328 9.72811 473.856 14.8172 474.308 23.1294C474.703 30.3915 475.192 37.6485 475.638 44.8809C478.077 45.4077 478.833 43.5749 479.935 42.5201C483.306 39.2947 486.555 35.9432 489.872 32.6625C495.392 27.2043 499.861 26.4836 503.707 30.4029C507.507 34.2747 506.739 38.603 501.196 44.2359C498.04 47.4432 494.786 50.555 491.667 53.7969C490.569 54.9375 489.041 55.8728 488.806 58.2646C495.674 58.7411 502.399 59.3869 509.139 59.6213C515.017 59.8257 520.158 61.0701 522.535 67.1467C524.881 73.1461 522.257 77.629 518.017 81.8207C502.611 97.0541 487.259 112.345 472.066 127.791C466.662 133.285 460.502 135.93 452.812 135.299C445.36 134.688 437.889 134.299 429.529 133.753C435.573 141.666 441.242 148.959 446.278 156.702C465.549 186.329 477.892 218.563 482.377 253.65C491 321.111 474.77 382.029 432.151 435.071C394.441 482.004 345.371 510.715 285.759 520.278C224.385 530.123 167.657 517.247 115.647 483.391C110.211 479.853 105.088 475.817 99.9561 471.837C95.3544 468.268 94.3748 463.428 97.2009 459.69C100.024 455.956 105.054 455.487 109.642 459.095C124.919 471.11 141.361 481.149 159.173 488.921C182.883 499.265 207.592 505.452 233.48 506.829C303.094 510.532 361.919 486.811 409.68 436.385C440.143 404.221 459.045 365.817 465.701 321.919C476.087 253.417 458.674 192.642 413.512 139.956C412.456 138.723 411.612 137.179 410.458 136.845C399.306 147.912 388.382 158.752 377.194 169.854C382.012 175.707 387.194 181.975 391.739 188.729C411.129 217.543 421.175 249.282 421.669 284.026C421.748 289.57 418.858 293.091 414.051 293.27C409.22 293.45 405.836 289.952 405.746 284.078C405.499 267.98 402.85 252.309 397.837 237.027C391.53 217.798 381.624 200.586 368.901 184.893C366 181.316 364.002 181.072 360.71 184.532C352.325 193.343 343.697 201.933 334.913 210.346C332.153 212.989 332.521 214.591 334.701 217.322C350.767 237.443 358.939 260.633 358.861 286.213C358.69 342.516 318.079 386.355 268.394 395.462C210.714 406.035 155.319 371.362 140.295 315.147C123.186 251.136 165.45 186.303 230.752 176.605C262.331 171.915 290.881 179.434 316.136 198.971C319.246 201.377 321.115 201.66 323.984 198.669C332.404 189.893 341.015 181.291 349.796 172.876C352.924 169.878 352.657 168.088 349.44 165.46C324.133 144.788 295.492 132.386 262.816 129.084C188.191 121.542 119.266 168.518 97.0019 238.466C68.1729 329.038 125.549 424.727 218.912 441.8C301.789 456.956 382.006 404.547 401.627 322.428C401.935 321.136 402.235 319.837 402.633 318.57C404.126 313.82 407.694 311.531 411.995 312.518C416.55 313.562 419.114 317.481 418.053 322.412C415.844 332.678 412.783 342.697 408.789 352.423C399.672 374.622 386.518 394.081 369.003 411.006ZM160.94 247.419C140.398 293.596 159.125 347.623 203.657 370.653C249.142 394.177 303.788 378.268 329.991 333.897C353.1 294.763 341.743 246.788 319.759 225.759C309.523 235.987 299.313 246.252 289.014 256.428C286.815 258.601 288.19 260.26 289.265 262.147C294.352 271.081 296.384 280.587 295.455 290.915C293.041 317.738 268.99 337.275 241.775 334.245C215.634 331.334 195.844 305.585 199.853 279.701C205.142 245.558 241.543 227.84 271.825 244.79C274.681 246.389 276.404 246.287 278.668 243.948C285.969 236.408 293.52 229.11 300.867 221.614C303.381 219.048 306.422 216.903 308.141 213.634C266.055 175.898 190.07 185.309 160.94 247.419ZM246.658 318.631C260.735 318.11 271.291 311.87 277.078 298.882C281.27 289.474 280.854 280.032 274.71 269.568C272.412 272.337 270.85 274.5 269.006 276.386C263.884 281.626 258.773 286.89 253.405 291.872C249.763 295.252 245.214 295.089 242.192 292.031C238.922 288.723 238.901 284.234 242.228 280.368C243.42 278.982 244.759 277.719 246.08 276.451C251.928 270.833 257.794 265.234 263.677 259.605C256.559 253.013 240.743 252.502 230.407 259.207C220.286 265.772 213.605 279.673 215.743 290.504C218.976 306.885 228.093 315.407 246.658 318.631ZM450.01 72.5092C452.486 70.043 454.997 67.6105 457.424 65.0975C458.785 63.6893 460.828 62.4472 460.525 60.2159C459.325 51.3795 460.1 42.3692 458.338 33.5327C457.817 33.6798 457.426 33.6705 457.234 33.8615C443.781 47.2393 430.346 60.6345 416.903 74.0228C415.794 75.1275 415.047 76.4285 415.073 77.9957C415.222 86.8963 415.592 95.783 416.901 106.21C428.364 94.5456 438.942 83.7825 450.01 72.5092ZM436.99 108.488C434.457 111.378 431.037 113.532 429.067 117.538C437.412 118.014 445.205 118.361 452.979 118.946C456.431 119.206 459.029 118.092 461.418 115.653C468.515 108.404 475.681 101.221 482.938 94.1333C488.964 88.249 495.158 82.5367 501.974 76.0888C492.951 74.0053 485.24 74.9083 477.759 73.6717C474.107 73.0681 471.445 73.8888 468.843 76.5441C458.482 87.1141 447.956 97.5218 436.99 108.488Z" fill="#184D98"/>
</svg>
