<svg width="528" height="528" viewBox="0 0 528 528" fill="none" xmlns="http://www.w3.org/2000/svg">
<path d="M193 445.891C137.002 445.891 81.5049 445.901 26.0075 445.883C11.6781 445.878 10.6541 444.819 10.6537 430.597C10.6525 386.933 10.6505 343.268 10.6561 299.604C10.6573 290.478 12.5711 288.583 21.8428 288.577C42.8418 288.562 63.8408 288.602 84.8397 288.553C91.6443 288.537 91.6471 288.443 91.6485 281.642C91.6513 267.976 91.4962 254.307 91.7444 240.645C91.8194 236.517 90.5292 234.556 86.6074 232.983C72.5253 227.332 63.9333 214.305 64.2141 199.97C64.511 184.809 73.8236 171.932 88.1148 166.921C105.51 160.821 125.492 170.004 132.147 187.156C139.244 205.446 131.137 225.233 112.909 232.691C108.267 234.59 107.193 237.008 107.26 241.536C107.489 256.842 107.347 272.153 107.347 288.028C110.437 288.222 113.194 288.557 115.949 288.542C145.275 288.378 174.606 289.072 203.93 288.172C205.917 288.111 207.924 288.335 209.907 288.563C215.22 289.174 217.559 291.703 217.436 296.583C217.321 301.115 214.388 304.071 209.324 304.245C203.498 304.445 197.66 304.307 191.827 304.345C191.044 304.35 190.262 304.526 188.657 304.725C194.586 315.144 200.239 325.076 205.889 335.01C209.595 341.526 213.383 347.998 216.977 354.576C221.671 363.167 221.472 371.711 216.576 380.245C207.871 395.417 199.274 410.652 190.672 425.882C190.13 426.842 189.155 427.715 189.51 429.119C190.964 430.195 192.68 429.657 194.266 429.658C234.765 429.694 275.263 429.64 315.76 429.762C319.702 429.774 322.023 428.698 324.041 425.073C333.597 407.896 343.412 390.86 353.345 373.898C356.202 369.02 356.123 364.796 353.274 359.918C343.443 343.088 333.819 326.136 324.317 309.117C322.385 305.655 320.219 304.175 316.102 304.213C293.438 304.421 270.772 304.319 248.106 304.306C246.118 304.305 244.111 304.482 242.185 303.693C238.497 302.182 236.505 299.355 236.992 295.502C237.467 291.747 239.738 289.009 243.842 288.705C247.486 288.435 251.16 288.303 254.808 288.443C257.606 288.55 258.805 287.545 258.803 284.761C258.784 261.762 258.761 238.763 258.855 215.764C258.868 212.322 256.384 211.865 254.135 210.885C239.987 204.723 231.472 191.966 231.691 177.282C231.953 159.704 245.789 144.918 263.893 142.867C280.436 140.993 297.278 153.09 301.214 169.676C305.399 187.306 296.202 204.711 279.155 211.119C276.689 212.046 275.185 213.032 275.195 215.955C275.276 239.287 275.252 262.619 275.285 285.951C275.286 286.583 275.558 287.215 275.693 287.8C277.889 288.811 280.085 288.571 282.216 288.564C320.376 288.444 358.535 288.221 396.695 288.229C400.964 288.23 400.67 285.923 400.668 283.147C400.651 253.149 400.657 223.15 400.657 193.152C400.657 161.82 400.652 130.488 400.662 99.1561C400.664 90.7857 402.813 88.2304 411.194 88.1874C443.025 88.0243 474.858 87.8849 506.687 88.1635C521.699 88.2949 527.348 98.5822 520.325 111.882C517.214 117.774 514.144 123.694 510.837 129.477C509.172 132.389 509.064 134.837 510.804 137.831C514.486 144.164 517.917 150.652 521.23 157.19C526.911 168.401 520.766 178.807 508.16 179.184C500.002 179.428 491.827 179.333 483.664 179.167C477.974 179.051 474.726 176.02 474.632 171.258C474.531 166.132 477.63 163.093 483.704 162.924C490.673 162.729 497.652 162.879 504.917 162.879C504.926 159.49 503.034 157.473 501.878 155.209C499.832 151.204 497.737 147.216 495.469 143.335C491.665 136.824 491.768 130.438 495.434 123.908C498.844 117.835 502.062 111.654 505.31 105.621C503.756 103.707 501.957 104.362 500.402 104.359C474.403 104.315 448.403 104.441 422.406 104.227C417.559 104.188 416.157 105.664 416.242 110.461C416.52 126.122 416.472 141.792 416.267 157.456C416.213 161.634 417.61 163.011 421.711 162.897C429.704 162.674 437.709 162.803 445.708 162.886C450.059 162.932 453.591 164.527 454.982 169.022C456.529 174.021 452.437 178.976 446.296 179.154C438.136 179.391 429.961 179.382 421.801 179.178C417.818 179.079 416.238 180.222 416.258 184.517C416.413 217.348 416.408 250.18 416.273 283.011C416.256 287.264 417.695 288.334 421.82 288.299C437.974 288.161 454.138 287.584 470.287 288.598C478.209 289.095 484.453 292.771 488.382 299.475C499.334 318.158 510.095 336.957 520.639 355.874C524.708 363.175 524.661 371.018 520.535 378.368C510.099 396.961 499.561 415.501 488.824 433.922C484.723 440.958 478.335 444.965 470.028 445.435C455.208 446.272 440.385 446.109 425.569 445.365C421.179 445.145 417.919 441.703 417.971 437.683C418.024 433.609 421.154 430.115 425.587 429.817C430.068 429.516 434.581 429.695 439.08 429.689C448.08 429.678 457.081 429.589 466.079 429.72C470.755 429.788 473.957 427.867 476.24 423.838C486.012 406.592 495.845 389.379 505.716 372.188C507.733 368.676 507.793 365.371 505.761 361.839C495.708 344.367 485.722 326.857 475.718 309.357C473.819 306.035 471.023 304.318 467.148 304.32C425.816 304.339 384.485 304.34 343.154 304.362C342.515 304.362 341.877 304.568 341.256 304.675C340.598 306.7 341.928 307.944 342.719 309.329C350.981 323.795 359.175 338.3 367.571 352.688C373.226 362.377 373.203 371.752 367.484 381.456C359.195 395.519 351.229 409.773 343.167 423.97C342.294 425.507 340.899 426.881 341.106 428.961C342.733 430.235 344.632 429.651 346.378 429.658C360.711 429.715 375.043 429.698 389.376 429.69C393.321 429.688 396.627 430.778 398.274 434.765C400.118 439.23 397.68 444.279 392.933 445.211C390.018 445.783 386.971 445.854 383.983 445.856C320.488 445.893 256.994 445.888 193 445.891ZM68.4997 304.31C56.5072 304.31 44.5104 304.499 32.5246 304.216C27.8319 304.106 26.2161 305.377 26.2415 310.325C26.4357 348.133 26.4406 385.943 26.2337 423.752C26.2061 428.787 27.9616 429.789 32.5596 429.773C76.5312 429.627 120.504 429.626 164.475 429.783C168.596 429.798 170.757 428.303 172.677 424.881C182.129 408.038 191.628 391.216 201.469 374.599C204.664 369.204 204.65 364.664 201.503 359.324C191.869 342.971 182.423 326.504 173.21 309.91C170.897 305.745 168.278 304.156 163.439 304.191C132.127 304.418 100.813 304.309 68.4997 304.31ZM117.492 206.766C120.213 198.441 118.395 191.195 111.685 185.632C105.332 180.364 97.978 179.585 90.6733 183.378C83.3757 187.167 79.939 193.564 80.3422 201.851C80.7482 210.196 87.4426 217.506 96.2859 219.37C104.303 221.059 112.683 216.299 117.492 206.766ZM257.111 194.498C265.512 198.738 274.025 197.841 280.171 192.068C285.765 186.812 287.669 177.528 284.603 170.455C281.312 162.861 274.048 158.598 265.322 159.137C257.688 159.609 251.024 164.841 248.724 172.17C246.12 180.465 248.872 188.22 257.111 194.498Z" fill="#184D98"/>
</svg>
