<svg width="528" height="528" viewBox="0 0 528 528" fill="none" xmlns="http://www.w3.org/2000/svg">
<path d="M482.853 523.372C338.555 523.373 194.735 523.374 50.9159 523.369C48.4171 523.369 45.894 523.51 43.4249 523.221C39.3048 522.738 36.5755 519.354 36.6952 515.277C36.8177 511.107 39.6079 507.991 43.8086 507.732C47.2959 507.517 50.805 507.652 54.3045 507.642C61.782 507.62 61.6651 507.62 61.8403 499.911C62.0103 492.431 61.1024 484.915 62.4306 477.472C64.8555 463.884 74.5239 455.112 88.2313 454.926C108.559 454.649 128.893 454.811 149.224 454.936C152.475 454.955 155.721 455.751 159.649 456.279C159.649 449.652 159.64 443.53 159.65 437.409C159.677 421.213 170.536 410.195 186.842 409.897C192.673 409.791 198.513 409.696 204.338 409.907C207.955 410.039 210.084 408.845 211.677 405.437C221.483 384.464 231.553 363.614 241.397 342.659C244.096 336.914 243.07 330.523 243.515 324.452C244.608 309.518 244.644 294.5 245.923 279.587C246.704 270.486 250.462 261.901 252.782 253.058C254.26 247.428 255.87 241.826 257.639 236.281C259.252 231.223 263.224 228.904 267.48 230.202C272.169 231.632 274.222 235.59 272.81 240.918C270.817 248.439 268.677 255.921 266.315 264.451C277.289 259.909 287.377 255.763 297.425 251.524C298.265 251.17 299.197 250.313 299.487 249.481C303.409 238.216 307.225 226.915 310.806 216.39C309.904 214.502 309.05 214.449 308.234 214.3C304.369 213.596 301.912 211.366 301.27 207.462C300.651 203.694 302.537 201.036 305.594 199.161C316.386 192.539 327.206 185.964 338.023 179.384C350.123 172.023 362.219 164.658 374.337 157.329C382.156 152.601 387.13 145.822 389.291 136.954C389.529 135.975 389.865 135.022 389.034 134.064C386.89 133.798 385.344 135.249 383.649 136.169C354.952 151.743 326.351 167.497 297.53 182.837C291.106 186.256 287.276 191.058 285.24 197.711C283.926 202.007 282.774 206.356 281.345 210.614C279.655 215.649 275.689 218.047 271.515 216.813C266.95 215.463 264.67 211.263 266.105 206.051C268.267 198.199 270.091 190.186 274.241 183.053C275.573 180.765 275.219 179.404 273.456 177.454C265.612 168.773 261.243 158.09 257.264 147.337C255.418 142.349 256.793 137.12 258.972 132.285C263.849 121.462 280.931 113.002 292.536 115.559C300.189 117.244 305.832 121.476 309.349 128.474C313.148 136.031 317.433 143.344 320.267 151.025C322.234 151.513 323.321 150.626 324.465 150.006C341.305 140.871 358.043 131.539 375.038 122.701C379.626 120.316 380.892 117.432 380.858 112.527C380.651 82.6985 380.744 52.8673 380.776 23.0369C380.779 20.8888 380.795 18.6629 381.331 16.6105C382.255 13.072 384.621 10.8183 388.468 10.7248C392.401 10.6293 395.634 12.3208 396.252 16.289C397.045 21.3773 399.953 21.8455 404.246 21.8204C430.409 21.6675 456.573 21.7346 482.738 21.7666C484.889 21.7692 487.118 21.7444 489.176 22.2651C498.467 24.6155 501.382 34.5131 494.612 41.2469C489.541 46.2919 483.991 50.8566 478.656 55.6369C477.061 57.066 475.472 58.5012 473.229 60.5198C478.297 65.0701 483.057 69.3535 487.829 73.6238C489.939 75.5125 492.139 77.3055 494.182 79.2644C497.857 82.7906 499.366 86.9109 497.396 91.9267C495.448 96.8903 491.593 99.1287 486.529 99.2533C479.534 99.4253 472.532 99.3112 465.533 99.3125C444.701 99.3167 423.87 99.2911 403.039 99.3617C401.054 99.3684 398.009 98.2876 397.51 101.186C396.91 104.663 395.376 109.665 398.487 111.576C407.107 116.869 406.123 125.081 405.971 132.815C405.82 140.51 403.449 147.92 399.279 154.536C397.692 157.052 397.096 159.632 397.098 162.556C397.136 202.719 397.173 242.882 397.036 283.044C397.022 287.402 398.342 288.841 402.753 288.745C414.913 288.483 427.117 289.238 439.239 288.508C453.852 287.627 468.341 297.936 468.126 317.547C467.897 338.542 468.046 359.542 468.05 380.54C468.056 420.703 468.07 460.865 468.097 501.028C468.101 507.627 468.139 507.631 474.728 507.649C478.227 507.658 481.728 507.615 485.227 507.667C491.307 507.756 494.796 510.597 494.877 515.454C494.956 520.158 491.327 523.165 485.329 523.359C484.665 523.38 483.999 523.368 482.853 523.372ZM370.337 412.497C370.338 416.161 370.369 419.826 370.334 423.491C370.273 429.763 367.238 433.412 362.24 433.286C357.473 433.165 354.686 429.627 354.669 423.533C354.637 412.37 354.738 401.207 354.62 390.046C354.537 382.233 350.897 378.083 343.666 378.028C323.675 377.878 303.681 377.892 283.69 378.041C276.638 378.093 273.256 381.62 273.244 388.623C273.183 426.608 273.253 464.594 273.152 502.579C273.142 506.506 274.509 507.737 278.402 507.714C302.058 507.574 325.717 507.559 349.373 507.727C353.648 507.758 354.776 506.169 354.717 502.167C354.533 489.675 354.621 477.178 354.669 464.683C354.692 458.638 357.64 455.122 362.488 455.128C367.34 455.133 370.3 458.657 370.323 464.685C370.37 477.013 370.577 489.349 370.227 501.667C370.084 506.664 371.834 507.779 376.504 507.738C399.66 507.53 422.82 507.517 445.975 507.754C450.722 507.802 451.835 506.207 451.827 501.74C451.712 440.264 451.768 378.788 451.756 317.312C451.754 307.852 448.241 304.355 438.823 304.342C420.664 304.319 402.504 304.324 384.344 304.347C373.864 304.36 370.331 307.93 370.328 318.533C370.316 349.522 370.332 380.51 370.337 412.497ZM175.348 479.5C175.348 486.991 175.562 494.491 175.266 501.971C175.096 506.248 176.306 507.781 180.827 507.742C204.298 507.537 227.772 507.543 251.243 507.741C255.719 507.779 256.915 506.271 256.881 501.985C256.709 480.845 256.839 459.702 256.8 438.56C256.783 429.499 253.519 426.242 244.441 426.221C225.629 426.178 206.818 426.196 188.006 426.227C179.058 426.242 175.402 429.93 175.364 439.046C175.311 452.197 175.349 465.349 175.348 479.5ZM348.341 349.675C348.064 351.65 347.79 353.626 347.508 355.601C346.653 361.589 347.918 362.899 354.65 362.393C354.65 360.642 354.65 358.844 354.65 357.047C354.647 342.887 354.578 328.725 354.659 314.565C354.732 301.913 362.718 291.551 375.148 289.217C380.02 288.302 380.852 286.389 380.836 282.059C380.701 247.24 380.776 212.421 380.747 177.602C380.746 176.195 381.298 174.608 379.874 173.223C379.316 173.404 378.649 173.491 378.122 173.811C363.736 182.526 349.376 191.285 334.978 199.979C332.958 201.199 332.016 202.991 331.32 205.104C326.376 220.119 321.49 235.154 316.364 250.106C315.063 253.901 315.829 256.556 318.4 259.549C327.949 270.665 337.331 281.928 346.564 293.308C350.962 298.729 353.894 305.017 353.099 312.192C351.745 324.412 349.973 336.587 348.341 349.675ZM99.5083 471.236C95.8486 471.245 92.1864 471.17 88.5299 471.282C81.9638 471.483 78.4132 474.986 78.2897 481.566C78.1554 488.716 78.3658 495.874 78.1821 503.023C78.094 506.452 79.2775 507.706 82.7811 507.691C106.902 507.585 131.023 507.589 155.143 507.69C158.731 507.705 159.752 506.186 159.679 502.88C159.535 496.395 159.695 489.905 159.632 483.418C159.551 475.013 155.816 471.248 147.416 471.223C131.779 471.175 116.142 471.226 99.5083 471.236ZM461.459 38.1154C441.973 38.1031 422.485 38.2154 403.002 37.9876C398.348 37.9332 396.94 39.5218 397.047 44.0353C397.303 54.8551 397.346 65.6905 397.049 76.5079C396.914 81.4476 398.36 83.1844 403.522 83.1203C425.003 82.8534 446.49 83.0162 467.975 82.9541C469.47 82.9498 471.268 83.6755 472.698 81.7344C468.801 78.2763 464.99 74.827 461.105 71.4619C452.375 63.8983 452.428 57.1586 461.249 49.5268C465.176 46.13 468.996 42.6104 472.865 39.1465C472.69 38.8032 472.515 38.4599 472.341 38.1166C469.039 38.1166 465.738 38.1166 461.459 38.1154ZM278.272 276.874C273.808 278.698 269.364 280.576 264.87 282.323C262.372 283.294 261.409 284.92 261.304 287.632C260.704 303.079 259.975 318.522 259.205 333.962C258.888 340.314 257.538 346.377 254.713 352.208C246.229 369.723 237.989 387.357 229.711 404.972C229.089 406.294 227.441 407.686 229.191 409.36C231.175 409.558 231.74 407.92 232.587 406.799C247.743 386.762 262.839 366.68 278.03 346.67C280.696 343.158 282.741 339.454 283.53 335.098C287.199 314.855 290.882 294.615 294.515 274.365C294.705 273.306 295.101 272.045 293.437 270.839C288.802 272.67 283.887 274.612 278.272 276.874ZM307.213 302.046C308.709 303.094 310.103 304.346 311.719 305.154C318.84 308.714 321.965 314.455 322.475 322.343C323.182 333.271 324.357 344.182 325.79 355.04C326.067 357.131 324.558 361.525 328.659 361.233C331.89 361.003 331.243 357.047 331.569 354.614C333.311 341.618 334.791 328.588 336.491 315.586C337.145 310.584 336.637 306.122 333.156 302.071C326.215 293.994 319.524 285.704 312.698 277.529C312.219 276.956 311.713 276.106 310.392 276.645C309.387 284.856 306.459 292.905 307.213 302.046ZM281.251 161.238C284.596 166.945 287.852 168.79 292.282 167.059C295.044 165.979 297.744 164.594 300.221 162.966C304.21 160.344 305.465 156.612 303.31 152.193C300.623 146.68 297.901 141.173 294.911 135.821C292.351 131.239 288.382 130.088 283.44 132.13C281.607 132.888 279.836 133.822 278.105 134.797C272.748 137.815 271.45 141.796 274.132 147.297C276.311 151.767 278.658 156.155 281.251 161.238ZM308.655 344.729C307.981 337.809 307.267 330.892 306.654 323.966C306.441 321.559 305.681 319.896 302.554 319.82C299.747 334.403 299.215 349.641 287.561 361.116C294.417 361.671 300.372 361.633 306.326 361.688C308.905 361.712 309.949 360.529 309.724 358.019C309.355 353.897 309.024 349.77 308.655 344.729ZM254.547 404.524C253.503 406.282 251.335 407.469 251.688 410.028C253.179 410.775 254.566 411.679 256.289 410.782C257.121 408.827 256.839 406.839 256.72 404.882C256.646 403.669 256.196 402.91 254.547 404.524Z" fill="#184D98"/>
</svg>
