<svg width="528" height="528" viewBox="0 0 528 528" fill="none" xmlns="http://www.w3.org/2000/svg">
<path d="M57.9954 398.04C52.8351 394.332 47.9303 390.88 43.0897 387.339C32.8291 379.835 33.8135 366.365 45.031 360.362C54.6531 355.213 54.6981 355.199 51.6016 344.977C43.5068 318.254 40.1652 290.87 41.8882 263.09C45.6076 203.121 68.0754 151.175 110.087 107.931C114.883 102.995 119.855 102.297 123.478 105.969C126.834 109.371 126.204 114.422 121.539 119.186C94.0118 147.297 75.1685 180.364 65.1222 218.376C57.9087 245.668 55.9205 273.35 59.0906 301.474C61.1539 319.778 65.5149 337.439 71.6934 354.725C74.3276 362.095 73.1685 364.839 66.1509 368.289C62.1434 370.258 58.0983 372.152 52.9036 374.638C70.6405 387.303 87.566 399.389 105.552 412.232C107.708 390.276 109.744 369.55 111.888 347.724C106.932 349.881 102.8 351.736 98.6226 353.484C91.3902 356.51 87.8963 354.939 85.193 347.596C75.2746 320.656 71.0545 292.757 72.9356 264.207C76.8509 204.784 101.584 155.439 146.49 116.287C148.872 114.21 150.694 112.202 150.759 108.832C150.812 106.037 152.82 104.375 155.115 103.172C158.509 101.394 161.81 99.2753 165.409 98.0891C171.785 95.9881 174.23 91.0271 176.155 85.3383C176.82 83.3708 176.673 81.6008 175.426 80.1841C173.896 78.4464 172.313 80.0159 170.969 80.7637C164.268 84.4925 157.876 88.7106 151.631 93.1641C149.196 94.9009 146.647 96.7021 143.388 96.0069C139.971 95.2777 137.784 93.0639 137.023 89.6891C136.185 85.9759 137.924 83.1836 140.828 81.109C148.424 75.6834 156.203 70.5358 164.392 66.0334C167.45 64.3517 170.6 62.9077 171.243 58.763C171.442 57.4804 172.879 56.3045 173.923 55.2523C180.849 48.2733 187.879 41.3978 194.753 34.3699C198.157 30.891 201.868 29.7568 206.503 31.5558C209.603 32.759 212.819 33.6655 215.983 34.7036C226.674 38.2111 232.606 35.7304 237.683 25.5336C246.329 8.1717 244.054 10.8469 261.628 10.6621C268.46 10.5902 275.296 10.7791 282.125 10.6115C286.897 10.4944 290.018 12.4975 291.943 16.7954C293.304 19.833 294.908 22.761 296.399 25.7408C301.363 35.6698 307.22 38.1612 317.774 34.8333C318.409 34.6332 319.059 34.4793 319.685 34.2553C335.446 28.6129 333.868 28.9633 345.082 40.1522C350.037 45.0958 354.873 50.1633 359.945 54.9829C363.404 58.2704 364.118 62.0024 362.726 66.3409C361.303 70.777 359.925 75.2318 358.335 79.6085C357.364 82.2818 357.822 84.5947 358.591 87.285C360.154 92.7571 363.66 95.6601 368.603 98.0953C385.552 106.444 383.422 103.291 383.6 120.826C383.67 127.654 383.757 134.483 383.862 141.311C383.944 146.713 381.776 150.532 376.542 152.559C373.758 153.637 371.155 155.183 368.476 156.529C358.556 161.515 355.873 167.775 359.502 178.316C365.741 196.441 365.149 194.327 352.933 206.161C348.146 210.799 343.355 215.444 338.797 220.303C335.641 223.668 332.103 224.363 327.927 223.006C324.761 221.977 321.466 221.208 318.479 219.794C313.066 217.232 308.08 217.594 302.894 220.466C300.734 221.662 299.112 222.935 298.065 225.175C296.162 229.249 293.916 233.167 292.099 237.276C290.028 241.959 286.533 244.162 281.536 244.168C271.704 244.179 261.871 244.159 252.039 244.146C247.395 244.14 244.175 242.034 242.213 237.775C240.401 233.844 238.228 230.077 236.466 226.125C235.087 223.031 232.8 221.471 229.84 219.886C224.675 217.12 220.143 218.18 215.106 219.93C197.493 226.048 200.666 225.485 188.836 214.097C184.035 209.475 179.458 204.619 174.627 200.031C170.815 196.41 169.664 192.378 171.521 187.391C172.973 183.494 174.044 179.456 175.505 175.563C176.686 172.415 176.276 169.684 175.198 166.473C173.499 161.413 170.326 158.573 165.631 156.499C156.931 152.657 147.098 149.475 149.795 135.889C125.126 158.403 108.204 185.004 98.2169 215.959C85.4301 255.591 85.3608 295.317 97.8164 335.177C101.038 335.514 103.188 333.687 105.575 332.745C118.201 327.761 129.275 336.716 127.774 350.263C125.669 369.264 124.105 388.324 122.278 407.356C121.976 410.501 121.751 413.681 121.086 416.758C118.733 427.654 106.11 432.232 96.5277 425.537C83.6909 416.568 71.0213 407.36 57.9954 398.04ZM343.772 61.5983C342.597 60.4172 341.205 59.3844 340.283 58.0311C333.99 48.795 326.169 46.667 316.208 52.1913C313.314 53.7966 309.898 54.2061 306.512 53.0008C289.487 46.9416 289.482 46.9552 281.158 31.0984C281.003 30.8035 280.805 30.5251 280.692 30.2152C279.649 27.3452 277.738 26.1641 274.576 26.3143C269.589 26.5512 264.58 26.4835 259.586 26.3425C256.783 26.2634 254.517 26.9326 253.69 29.787C250.035 42.3978 240.989 48.9097 228.941 52.4164C225.952 53.2866 222.839 54.5043 220.256 52.9722C207.645 45.492 198.761 50.3125 190.847 60.7473C188.707 63.5695 187.387 65.5724 189.023 69.0408C193.487 78.5065 194.902 88.008 188.539 97.3703C187.818 98.4309 187.583 99.8457 187.227 101.125C186.32 104.389 184.472 107.14 181.221 107.963C167.58 111.418 164.27 120.524 166.147 133.331C166.705 137.14 167.094 139.93 171.108 141.362C180.626 144.758 188.213 150.16 190.171 160.987C190.314 161.777 190.805 162.528 191.231 163.24C193.718 167.399 194.382 171.91 192.041 176.108C186.409 186.21 189.015 193.412 197.674 200.771C202.877 205.192 206.747 206.604 212.881 204.02C216.772 202.381 221.15 199.303 225.23 200.977C235.168 205.054 247.52 206.182 251.039 219.426C252.863 226.292 257.459 227.604 264.348 228.103C275.164 228.887 282.128 226.08 285.196 215.203C286.076 212.085 287.943 209.263 291.321 207.689C308.26 199.792 308.253 199.693 326.151 205.571C328.691 206.405 330.49 206.251 332.356 204.233C335.407 200.934 338.42 197.506 341.934 194.751C346.096 191.49 346.28 188.079 344.529 183.476C342.719 178.716 339.152 173.59 340.973 168.709C344.672 158.794 346.138 146.818 359.076 143.284C366.081 141.37 367.561 136.776 368.044 129.617C368.766 118.914 365.82 112.271 355.305 109.199C352.188 108.289 349.246 106.572 347.618 103.248C339.473 86.6071 339.44 86.6234 345.231 68.3331C345.382 67.8577 345.503 67.3702 345.69 66.9096C346.504 64.9066 345.848 63.3593 343.772 61.5983Z" fill="#184D98"/>
<path d="M227.579 516.586C184.524 499.426 158.788 468.461 151.677 422.955C147.621 396.998 152.327 372.236 165.529 349.308C168.64 343.907 172.519 342.454 176.968 344.843C181.321 347.181 182.389 351.551 179.458 356.878C170.768 372.669 166.287 389.501 166.314 407.544C166.383 453.097 198.951 494.219 243.256 504.64C300.762 518.165 356.884 480.748 366.498 422.472C375.353 368.792 337.239 315.561 283.962 307.48C254.102 302.95 227.118 309.88 203.34 328.714C202.557 329.335 201.82 330.024 200.992 330.578C196.927 333.298 192.504 332.838 189.804 329.452C186.955 325.878 187.247 321.777 191.023 318.321C197.071 312.785 203.862 308.24 211.059 304.329C281.339 266.133 368.368 308.168 382.098 386.947C382.722 390.525 383.091 394.146 383.587 397.81C386.206 397.981 387.268 396.02 388.573 394.698C413.827 369.106 431.183 339.037 439.743 304.02C441.622 296.332 445.234 292.779 450.233 293.901C455.665 295.12 457.375 299.49 455.283 307.822C444.407 351.138 422.051 387.451 388.386 416.764C384.887 419.811 382.136 422.764 381.664 427.785C381.203 432.686 379.634 437.483 378.435 442.848C381.562 442.075 383.52 439.992 385.632 438.381C433.429 401.922 463.29 354.291 473.399 294.934C479.796 257.367 476.601 220.308 464.046 184.19C463.28 181.988 462.474 179.799 461.758 177.581C460.009 172.167 461.553 168.62 466.664 166.184C470.87 164.179 475.08 162.18 479.273 160.147C479.521 160.027 479.636 159.63 480.255 158.693C463.408 146.66 446.543 134.613 428.484 121.714C426.332 143.588 424.291 164.341 422.192 185.674C427.854 184.592 431.695 181.8 435.991 180.174C442.428 177.736 446.149 179.193 448.512 185.689C454.968 203.439 459.024 221.685 460.513 240.577C461.169 248.91 461.255 257.203 461.247 265.521C461.243 269.682 459.601 273.01 455.364 274.432C449.673 276.343 444.899 271.65 445.198 264.559C446.077 243.762 443.331 223.41 437.622 203.428C437.257 202.15 436.79 200.899 436.318 199.655C436.211 199.371 435.888 199.168 435.452 198.699C432.675 198.758 430.321 200.515 427.734 201.457C415.546 205.897 404.665 196.85 406.206 184.016C408.047 168.675 409.201 153.251 410.691 137.866C411.332 131.249 411.809 124.6 412.823 118.037C414.579 106.66 427.301 101.514 437.174 108.279C448.855 116.283 460.3 124.63 471.834 132.845C477.941 137.194 484.059 141.53 490.106 145.96C501.584 154.369 500.333 168.221 487.589 174.315C479.136 178.357 479.289 178.313 482.015 187.588C490.637 216.925 493.994 246.771 491.51 277.363C487.463 327.203 469.525 371.38 438.2 410.124C419.368 433.416 396.846 452.56 370.716 467.322C366.879 469.49 363.762 472.151 361.047 475.707C334.872 509.991 299.983 525.528 257.102 523.115C247.129 522.554 237.374 520.193 227.579 516.586Z" fill="#184D98"/>
<path d="M318.392 420.393C305.195 433.594 292.286 446.583 279.282 459.477C265.387 473.255 246.525 473.151 232.614 459.298C222.234 448.961 211.717 438.753 201.561 428.199C184.041 409.995 191.245 381.807 215.031 375.348C226.149 372.329 236.194 375 244.551 382.867C248.271 386.368 251.302 390.599 255.073 394.097C258.027 392.723 259.133 390.943 260.518 389.573C270.463 379.744 280.027 369.498 290.377 360.12C300.485 350.962 312.403 349.849 324.766 355.458C335.612 360.378 342.811 372.489 342.219 384.6C341.823 392.705 338.826 399.812 333.105 405.647C328.327 410.521 323.464 415.311 318.392 420.393ZM241.346 402.153C239.109 399.919 236.915 397.64 234.628 395.458C227.702 388.853 218.538 388.523 212.315 394.61C206.332 400.462 206.495 410.358 212.999 416.982C223.491 427.668 234.093 438.251 244.789 448.734C251.433 455.246 260.04 455.618 266.675 449.118C285.219 430.953 303.528 412.547 321.786 394.094C326.449 389.382 327.256 381.894 324.391 376.471C319.479 367.171 307.722 365.364 299.91 373.01C287.541 385.115 275.425 397.478 263.136 409.665C258.026 414.733 254.054 414.691 248.896 409.724C246.499 407.416 244.198 405.009 241.346 402.153Z" fill="#184D98"/>
<path d="M221.299 97.4121C245.144 64.0643 291.706 64.5782 313.232 98.1278C335.015 132.076 311.991 178.199 271.991 181.497C243.019 183.886 217.35 164.08 213.021 134.984C211.055 121.778 213.653 109.107 221.299 97.4121ZM229.206 120.604C227.925 125.211 228.342 129.76 229.215 134.417C232.91 154.115 252.077 168.238 271.716 165.556C291.682 162.83 306.941 144.596 305.618 125.046C304.267 105.076 288.952 89.6833 267.92 88.7567C249.141 87.9293 232.967 100.996 229.206 120.604Z" fill="#184D98"/>
</svg>
