<svg width="528" height="528" viewBox="0 0 528 528" fill="none" xmlns="http://www.w3.org/2000/svg">
<path d="M178.75 483.375C120.87 458.936 79.0769 418.459 53.3603 361.496C44.2633 341.345 38.1462 320.334 35.5635 298.346C35.0695 294.141 33.5998 291.878 28.8306 290.809C17.4713 288.263 10.4343 277.962 10.6657 265.872C10.8762 254.874 18.8415 245.088 30.0092 242.852C33.4915 242.155 34.6585 240.618 35.0944 237.389C37.7745 217.532 42.5226 198.199 50.2076 179.646C73.5284 123.346 112.573 81.8683 167.542 55.517C189 45.2303 211.553 38.4548 235.21 35.5168C239.367 35.0006 242.138 33.9611 243.232 28.7288C245.575 17.5308 255.808 10.5309 267.649 10.6548C278.672 10.7701 288.744 18.2363 290.901 29.01C291.834 33.6707 294.101 35.0051 298.07 35.4566C317.366 37.6519 335.962 42.6794 353.915 49.9489C391.245 65.0641 422.866 88.0346 448.262 119.4C452.298 124.385 452.225 129.012 448.262 132.129C444.237 135.296 439.977 134.513 435.756 129.418C421.623 112.356 405.387 97.6464 386.901 85.4427C359.957 67.6556 330.453 56.5029 298.579 51.5426C292.971 50.6698 292.176 51.3366 292.123 57.0263C292.093 60.192 292.418 63.3943 292.045 66.5159C291.482 71.2299 293.583 72.9581 297.99 73.6025C321.825 77.0873 344.224 84.9244 364.889 97.2375C416.925 128.244 448.588 173.677 460.153 233.124C460.311 233.937 460.332 234.779 460.392 235.609C460.713 240.078 462.456 242.681 467.587 241.986C470.697 241.565 473.909 241.925 477.075 241.887C482.664 241.82 483.359 241.174 482.532 235.862C480.433 222.368 477.367 209.115 472.937 196.16C468.663 183.659 463 171.822 456.851 160.176C453.816 154.429 454.659 150.103 459.059 147.676C463.443 145.258 467.756 146.926 470.889 152.554C485.12 178.112 494.661 205.27 498.348 234.362C498.954 239.139 500.162 242.145 505.82 243.499C517.447 246.282 523.975 256.715 523.332 269.292C522.802 279.662 514.549 289.193 503.836 291.156C500.563 291.756 499.423 293.071 498.997 296.199C495.772 319.909 489.834 342.92 479.362 364.494C443.825 437.7 386.094 482.137 306.056 497.402C305.402 497.527 304.754 497.794 304.102 497.795C296.352 497.804 291.695 500.286 289.187 508.929C286.202 519.217 275.708 524.076 264.321 523.299C254.89 522.655 245.649 515.582 243.486 505.843C242.23 500.188 239.221 498.95 234.363 498.322C215.298 495.859 196.861 490.934 178.75 483.375ZM207.547 436.88C216.805 440.199 226.316 442.546 235.968 444.388C239.905 445.14 242.569 444.857 244.557 440.301C248.651 430.919 256.603 425.929 266.709 425.897C276.945 425.865 285.217 430.557 289.396 440.237C291.338 444.734 293.955 445.165 297.944 444.385C354.274 433.37 396.677 402.948 425.016 353.053C434.892 335.666 440.896 316.853 444.564 297.252C445.27 293.479 444.741 291.152 440.432 289.347C430.944 285.373 426.093 277.297 425.947 267.259C425.797 256.97 430.666 248.876 440.341 244.656C444.474 242.853 445.279 240.367 444.508 236.477C442.663 227.172 440.757 217.862 437.428 208.97C412.962 143.614 366.444 103.944 298.179 89.6537C293.909 88.7597 291.27 89.449 289.238 94.0187C285.049 103.438 276.964 108.099 266.895 108.087C257.008 108.076 249.07 103.442 244.974 94.2001C242.872 89.4588 240.14 88.8177 235.652 89.6749C188.004 98.7748 149.771 122.821 121.055 161.869C104.491 184.392 94.2773 209.673 89.4575 237.157C88.9584 240.003 88.3826 242.577 92.5945 244.178C102.628 247.993 107.887 256.07 108.055 266.589C108.223 277.101 103.217 285.205 93.3432 289.515C89.7054 291.103 88.7504 293.322 89.4083 296.893C91.8566 310.182 95.2621 323.216 100.61 335.636C121.609 384.406 157.103 418.007 207.547 436.88ZM467.142 352.718C469.286 347.126 471.608 341.594 473.539 335.929C477.679 323.789 480.409 311.285 482.523 298.652C483.471 292.987 482.718 292.186 477.086 292.12C473.256 292.074 469.421 292.205 465.596 292.058C462.76 291.949 461.418 293.02 460.926 295.904C459.922 301.793 458.743 307.662 457.363 313.475C439.386 389.216 375.562 448.308 298.626 460.302C293.547 461.093 291.235 462.973 291.996 468.296C292.393 471.071 292.049 473.949 292.076 476.78C292.132 482.764 292.906 483.523 298.815 482.497C308.475 480.82 318.124 479.026 327.512 476.13C392.352 456.122 438.838 415.26 467.142 352.718ZM61.0753 337.534C91.3041 417.558 148.303 465.818 232.41 481.869C241.882 483.677 241.904 483.565 241.889 474.128C241.87 461.526 241.801 461.856 229.785 459.342C165.32 445.854 118.757 409.171 89.6671 350.265C81.4403 333.606 76.0184 315.956 73.4993 297.497C72.9534 293.497 71.2787 291.603 66.9959 292.065C63.8673 292.403 60.6704 292.091 57.5039 292.095C51.2582 292.104 50.4544 292.946 51.5043 299.071C53.6977 311.866 56.5741 324.502 61.0753 337.534ZM92.8765 136.358C70.9103 165.712 57.3303 198.579 51.6141 234.752C50.5955 241.198 51.1048 241.86 57.8131 241.906C58.4792 241.91 59.1454 241.908 59.8115 241.908C72.3668 241.922 72.3668 241.922 74.5852 229.826C88.6801 152.971 151.262 89.6945 227.847 74.7893C232.357 73.9115 238.33 75.0018 240.968 71.4591C243.678 67.8189 241.736 62.1161 241.829 57.322C241.946 51.2542 241.13 50.6161 235.212 51.5785C176.884 61.0639 129.492 88.9896 92.8765 136.358ZM73.4774 275.723C76.144 275.719 78.811 275.741 81.4772 275.705C88.1134 275.615 91.764 272.459 91.7781 266.837C91.7915 261.504 88.1882 258.319 81.7428 258.289C66.7433 258.219 51.7432 258.222 36.7438 258.281C30.6676 258.305 26.5574 261.846 26.4521 266.874C26.3448 271.993 30.6652 275.683 36.9857 275.708C48.8186 275.754 60.6519 275.722 73.4774 275.723ZM506.441 263.122C504.712 259.858 501.927 258.314 498.308 258.307C482.5 258.278 466.692 258.193 450.885 258.333C445.477 258.381 442.123 262.108 442.207 267.208C442.287 272.077 445.581 275.598 450.792 275.641C466.765 275.77 482.742 275.819 498.713 275.604C505.214 275.517 508.526 270.258 506.441 263.122ZM275.735 472.5C275.726 465.689 275.769 458.877 275.692 452.066C275.621 445.788 272.445 442.27 266.974 442.215C261.648 442.16 258.336 445.819 258.31 452.107C258.249 467.224 258.255 482.342 258.31 497.46C258.331 503.382 262.027 507.565 267.004 507.57C271.947 507.574 275.647 503.347 275.702 497.423C275.776 489.449 275.73 481.474 275.735 472.5ZM258.35 83.7984C259.951 89.9605 263.086 92.4191 268.431 91.7056C272.895 91.11 275.66 87.5168 275.679 81.9144C275.732 66.7593 275.712 51.6038 275.662 36.4487C275.657 34.9841 275.533 33.3905 274.956 32.0814C273.222 28.1525 270.031 26.218 265.757 26.781C261.136 27.3898 258.37 30.7902 258.341 35.9591C258.254 51.6135 258.314 67.2686 258.35 83.7984Z" fill="#184D98"/>
<path d="M326.342 338.388C312.491 349.807 296.88 356.479 279.561 359.043C276.051 359.563 275.118 360.942 275.207 364.16C275.367 369.986 275.336 375.823 275.224 381.652C275.107 387.698 272.165 391.19 267.359 391.296C262.272 391.408 259.088 387.948 258.897 381.667C258.72 375.841 258.741 370.003 258.895 364.176C258.979 360.961 258.001 359.508 254.532 359.003C237.906 356.582 222.826 350.332 209.572 339.891C205.314 336.537 204.101 332.337 206.243 328.609C208.67 324.386 213.672 323.339 218.389 326.637C226.064 332.002 233.776 337.223 242.887 339.847C246.713 340.949 250.604 341.847 254.501 342.671C257.396 343.284 259.002 342.084 258.798 338.952C258.787 338.787 258.805 338.619 258.803 338.453C258.748 333.792 259.912 328.648 258.31 324.598C256.518 320.066 250.293 321.091 246.158 319.297C228.814 311.773 217.423 299.14 212.643 280.861C211.529 276.603 209.921 274.681 205.292 275.133C200.717 275.58 196.064 275.231 191.076 275.231C191.199 283.524 193.675 290.529 196.455 297.456C197.137 299.154 198.118 300.736 198.738 302.453C200.417 307.104 198.86 311.307 194.937 313.049C190.797 314.888 186.785 313.555 184.423 309.148C180.067 301.022 177.123 292.364 175.677 283.253C174.404 275.227 174.502 275.214 166.637 275.219C161.805 275.221 156.971 275.316 152.143 275.183C146.277 275.02 142.738 271.865 142.707 267.029C142.676 262.14 146.002 259.128 152.128 258.933C158.121 258.742 164.125 258.761 170.119 258.903C173.179 258.976 174.421 257.971 174.909 254.763C178.561 230.767 189.406 210.688 208.232 195.16C221.661 184.084 237.163 177.531 254.308 174.989C257.957 174.448 259.034 173.052 258.883 169.552C258.646 164.065 258.759 158.557 258.877 153.061C259.025 146.135 261.817 142.697 267.072 142.692C272.269 142.688 275.174 146.325 275.249 153.06C275.303 157.891 275.656 162.766 275.144 167.543C274.579 172.816 276.53 174.836 281.672 175.544C300.393 178.118 316.573 186.292 330.315 199.132C345.524 213.343 354.996 230.768 358.386 251.378C359.612 258.832 359.54 258.838 366.944 258.841C372.108 258.843 377.278 258.723 382.436 258.915C388.146 259.127 391.309 262.131 391.323 266.945C391.338 271.726 388.155 274.908 382.544 275.143C376.723 275.387 370.878 275.394 365.055 275.18C361.344 275.044 359.506 275.8 358.879 280.101C355.473 303.463 344.452 322.741 326.342 338.388ZM285.241 231.243C282.236 229.921 279.339 228.232 275.816 228.243C274.702 231.501 275.601 234.701 275.154 237.795C274.457 242.62 271.259 245.627 266.921 245.569C262.793 245.515 259.747 242.668 259.02 238.019C258.791 236.55 258.862 235.031 258.836 233.535C258.739 227.983 257.931 227.396 252.634 229.477C243.121 233.215 235.839 239.463 231.278 248.735C226.726 257.99 226.821 258.202 236.69 258.886C242.354 259.278 245.539 262.191 245.564 267.003C245.588 271.676 242.25 274.741 236.705 275.224C234.097 275.451 231.385 274.661 228.895 275.908C228.01 287.92 246.028 305.844 258.522 305.341C259.795 298.988 256.066 288.874 266.911 288.756C278.247 288.634 274.173 299.134 275.612 305.529C287.647 304.957 303.821 290.197 305.472 278.568C305.834 276.016 304.676 275.301 302.446 275.248C299.957 275.188 297.394 275.351 295.002 274.807C290.82 273.855 288.33 271.18 288.53 266.609C288.721 262.266 291.324 259.966 295.318 259.179C297.254 258.797 299.298 258.798 301.284 258.872C305.215 259.02 306.35 257.589 304.971 253.742C301.433 243.877 295.111 236.511 285.241 231.243ZM335.365 232.116C328.941 219.468 319.577 209.529 307.651 201.921C299.685 196.839 290.992 193.573 281.81 191.593C276.21 190.384 275.285 191.21 275.248 196.805C275.223 200.472 275.327 204.14 275.255 207.805C275.209 210.146 275.958 211.456 278.493 211.92C281.257 212.427 283.993 213.293 286.617 214.32C304.795 221.436 316.35 234.485 321.56 253.299C322.104 255.266 321.476 258.581 324.869 258.688C330.795 258.877 336.73 258.741 343.045 258.741C342.494 248.978 339.493 240.772 335.365 232.116ZM258.835 195.815C259.228 189.756 255.151 190.962 251.813 191.756C221.736 198.913 201.991 217.211 192.951 246.848C191.816 250.57 190.595 254.386 191.531 258.843C196.219 258.843 200.719 258.532 205.156 258.93C209.649 259.332 211.536 257.697 212.628 253.303C217.297 234.501 229.169 221.917 246.881 214.403C250.751 212.761 256.546 213.812 258.263 209.592C259.785 205.85 258.741 201.065 258.835 195.815ZM308.044 305.527C302.052 311.73 294.962 316.209 287.057 319.656C283.211 321.333 277.378 320.094 275.696 324.385C274.218 328.154 275.254 332.928 275.266 337.258C275.283 342.871 276.171 343.565 281.836 342.377C292.23 340.197 301.87 336.213 310.57 330.082C327.551 318.116 338.123 301.914 342.406 281.608C343.558 276.143 342.788 275.277 337.023 275.234C333.691 275.21 330.354 275.336 327.027 275.203C324.133 275.087 322.535 275.901 321.88 279.106C319.871 288.943 315.172 297.498 308.044 305.527Z" fill="#184D98"/>
</svg>
